<?xml version="1.0" standalone="no"?>
<!DOCTYPE svg PUBLIC "-//W3C//DTD SVG 1.1//EN" "http://www.w3.org/Graphics/SVG/1.1/DTD/svg11.dtd">
<svg width="2360" height="1640" viewBox="0 0 2360 1640" xmlns="http://www.w3.org/2000/svg" version="1.1">
<path d="M0.00,820.00 L0.00,0.00 L1180.00,0.00 L2360.00,0.00 L2360.00,820.00 L2360.00,1640.00 L1180.00,1640.00 L0.00,1640.00 L0.00,820.00 Z M480.64,1337.83 C486.06,1334.99 497.48,1328.89 506.00,1324.27 C550.54,1300.15 607.30,1274.91 660.00,1255.79 C697.45,1242.21 746.02,1226.76 777.50,1218.43 C785.20,1216.39 794.65,1213.87 798.50,1212.83 C812.72,1209.00 861.07,1198.00 879.00,1194.51 C909.28,1188.63 911.73,1188.18 930.50,1185.06 C1022.04,1169.83 1088.80,1164.95 1197.00,1165.59 C1283.91,1166.11 1340.36,1170.73 1423.00,1184.08 C1504.54,1197.25 1571.47,1213.43 1652.96,1239.68 C1690.24,1251.69 1707.26,1258.14 1711.53,1261.89 C1714.43,1264.44 1715.93,1265.00 1719.82,1265.00 C1724.89,1265.00 1729.12,1266.53 1760.50,1279.73 C1805.33,1298.57 1864.20,1327.90 1865.51,1332.04 C1866.56,1335.35 1870.95,1338.00 1875.38,1338.00 C1877.78,1338.01 1881.55,1339.05 1884.42,1340.50 C1895.80,1346.28 1905.17,1342.99 1918.59,1328.54 C1933.14,1312.88 1948.31,1289.69 1961.41,1263.12 C1966.90,1251.98 1968.00,1248.90 1968.00,1244.69 C1968.00,1238.93 1965.09,1232.00 1961.48,1229.16 L1959.13,1227.31 L1962.53,1221.91 C1964.40,1218.93 1966.68,1215.15 1967.60,1213.50 C1968.51,1211.85 1973.86,1203.08 1979.48,1194.00 C1998.46,1163.35 2003.76,1154.55 2013.24,1138.00 C2042.92,1086.19 2069.37,1033.40 2099.16,966.50 C2104.06,955.50 2108.48,945.60 2108.99,944.50 C2125.45,908.87 2179.36,770.99 2203.80,701.98 C2220.82,653.96 2223.50,645.68 2231.55,616.35 C2235.28,602.79 2244.00,561.37 2244.00,557.24 L2244.00,554.58 L2239.75,558.62 C2237.41,560.84 2231.44,566.08 2226.48,570.26 C2221.52,574.44 2212.39,583.27 2206.18,589.89 C2182.75,614.90 2142.75,648.09 2104.37,674.39 C2096.60,679.72 2089.54,684.85 2088.68,685.80 C2087.82,686.76 2086.63,690.57 2086.03,694.28 C2083.39,710.86 2070.94,754.66 2054.86,804.00 C2044.61,835.47 2034.69,859.11 2018.59,890.50 C2002.42,922.02 1988.34,945.02 1971.34,967.65 C1965.20,975.83 1949.20,994.00 1948.14,994.00 C1947.75,994.00 1946.58,992.54 1945.53,990.75 C1942.77,986.02 1931.83,974.83 1921.50,966.18 C1892.49,941.87 1855.58,927.14 1809.61,921.50 C1771.98,916.89 1722.02,917.82 1702.75,923.49 L1698.00,924.89 L1696.49,921.98 C1694.77,918.66 1685.61,891.22 1684.51,886.10 C1683.85,883.05 1683.97,882.78 1685.64,883.43 C1697.40,888.05 1731.93,888.95 1749.94,885.11 C1768.33,881.19 1780.88,873.74 1789.24,861.79 C1795.12,853.38 1797.05,848.06 1797.68,838.50 C1798.32,828.71 1796.36,819.51 1791.50,809.53 C1783.61,793.32 1767.41,781.36 1750.70,779.39 C1738.03,777.90 1719.83,783.64 1710.67,792.02 C1706.05,796.24 1700.00,805.81 1700.00,808.90 C1700.00,809.46 1702.14,808.61 1704.75,807.00 C1707.36,805.40 1713.10,802.90 1717.50,801.44 C1724.32,799.17 1726.75,798.84 1734.00,799.21 C1739.73,799.50 1744.04,800.32 1747.22,801.75 C1753.42,804.52 1761.31,812.00 1763.94,817.59 C1766.69,823.46 1767.58,832.41 1766.04,838.84 C1764.54,845.10 1759.49,853.00 1756.99,853.00 C1755.37,853.00 1755.28,852.59 1756.17,849.34 C1760.18,834.83 1741.81,810.00 1727.06,810.00 L1723.04,810.00 L1727.68,814.25 C1739.95,825.51 1739.37,843.47 1726.35,854.92 C1715.51,864.46 1693.11,872.02 1683.39,869.41 C1678.62,868.13 1677.02,862.64 1662.63,798.01 C1661.84,794.44 1660.85,792.40 1659.81,792.20 C1658.82,792.01 1655.86,794.84 1651.96,799.70 C1640.06,814.56 1603.99,848.59 1591.93,856.34 C1589.57,857.86 1588.45,857.87 1578.43,856.51 C1543.15,851.71 1540.77,851.56 1496.00,851.57 C1460.23,851.58 1449.66,851.91 1436.50,853.43 C1418.43,855.51 1379.09,856.71 1376.49,855.26 C1375.09,854.47 1376.31,853.16 1383.66,847.46 C1396.04,837.86 1423.79,809.71 1434.39,796.00 C1454.26,770.28 1469.23,744.43 1479.98,717.27 C1482.75,710.27 1484.26,708.04 1490.14,702.27 C1501.75,690.89 1516.77,683.05 1534.15,679.30 C1545.35,676.88 1568.62,676.89 1578.35,679.31 C1606.15,686.23 1626.11,703.16 1634.79,727.17 C1637.18,733.76 1637.45,735.90 1637.47,748.50 C1637.50,761.22 1637.26,763.17 1634.83,769.81 C1626.19,793.45 1607.55,810.92 1584.35,817.13 C1573.11,820.14 1556.36,820.13 1545.55,817.11 C1533.76,813.82 1524.99,808.81 1518.07,801.41 C1508.07,790.73 1503.39,778.05 1504.21,763.89 C1504.60,757.21 1505.27,754.80 1508.52,748.39 C1512.77,740.02 1519.60,731.77 1524.29,729.35 L1527.33,727.78 L1525.30,731.21 C1516.81,745.60 1518.94,761.67 1530.92,773.77 C1538.38,781.29 1542.93,783.43 1551.50,783.47 C1557.47,783.50 1559.23,783.07 1563.49,780.57 C1570.67,776.34 1577.81,769.30 1580.76,763.52 C1584.45,756.30 1584.98,745.57 1582.03,737.75 C1576.35,722.71 1558.67,712.00 1539.50,712.00 C1515.68,712.00 1494.86,727.48 1487.76,750.46 C1485.05,759.22 1484.88,773.41 1487.37,783.00 C1493.70,807.35 1513.22,827.07 1537.72,833.86 C1549.96,837.25 1562.45,838.36 1574.67,837.16 C1588.04,835.85 1596.62,833.27 1609.35,826.75 C1617.78,822.44 1620.67,820.24 1629.35,811.53 C1640.77,800.08 1647.19,789.95 1652.14,775.57 C1662.98,744.14 1654.54,710.85 1629.56,686.50 C1617.45,674.69 1602.98,666.83 1584.19,661.85 C1574.37,659.24 1550.77,658.24 1538.87,659.92 C1522.34,662.24 1505.66,668.21 1498.25,674.44 C1492.98,678.88 1493.04,680.14 1497.47,656.50 C1510.10,589.10 1501.15,521.84 1471.15,458.66 C1461.65,438.64 1447.83,416.73 1432.77,397.80 C1423.25,385.82 1398.63,360.51 1399.90,364.00 C1400.40,365.38 1401.79,368.75 1403.00,371.50 C1407.36,381.43 1411.83,397.41 1414.01,410.83 C1415.08,417.38 1415.97,419.28 1422.41,428.83 C1451.09,471.31 1465.72,510.29 1473.15,564.00 C1474.89,576.57 1474.89,619.41 1473.16,632.00 C1469.55,658.12 1466.92,670.07 1460.30,690.42 C1448.91,725.48 1431.45,757.44 1407.56,786.99 C1393.07,804.92 1369.96,826.49 1350.00,840.71 C1336.49,850.34 1336.96,850.21 1327.09,847.35 C1322.46,846.02 1314.14,842.60 1308.59,839.76 C1287.08,828.75 1270.54,806.18 1265.40,780.80 C1262.91,768.49 1265.62,753.92 1271.51,748.04 L1274.00,745.55 L1274.00,751.09 C1274.00,771.72 1289.63,782.88 1308.71,775.88 C1315.94,773.22 1325.29,764.24 1326.91,758.37 C1329.92,747.56 1326.90,737.24 1318.05,728.05 C1310.91,720.64 1305.05,717.84 1295.36,717.21 C1281.51,716.32 1267.63,721.28 1258.64,730.34 C1246.23,742.86 1244.32,760.01 1252.57,784.84 C1259.61,806.04 1270.76,823.88 1286.09,838.53 C1295.50,847.52 1301.32,851.80 1311.32,857.09 L1318.15,860.70 L1312.32,863.49 C1293.01,872.77 1286.80,875.36 1271.96,880.33 C1242.60,890.16 1216.38,894.84 1187.00,895.50 C1155.79,896.20 1129.06,892.61 1097.50,883.47 C1081.54,878.85 1069.39,874.00 1048.69,863.98 L1041.87,860.69 L1048.69,857.08 C1058.68,851.80 1064.50,847.52 1073.91,838.53 C1089.09,824.03 1099.86,806.87 1107.38,785.23 C1115.93,760.60 1113.80,742.47 1100.87,729.88 C1088.42,717.75 1065.88,713.42 1051.57,720.42 C1041.55,725.32 1033.08,737.12 1032.27,747.29 C1031.52,756.74 1033.21,761.37 1039.84,768.00 C1051.76,779.92 1068.54,781.52 1078.37,771.68 C1083.24,766.80 1086.00,759.47 1086.00,751.39 C1086.00,748.42 1086.34,746.01 1086.75,746.01 C1087.81,746.03 1091.35,751.78 1093.20,756.50 C1097.01,766.24 1096.31,778.25 1091.07,793.11 C1081.51,820.21 1060.48,839.71 1032.35,847.54 C1022.75,850.21 1023.62,850.49 1009.07,840.09 C948.01,796.40 904.14,727.94 890.55,655.14 C886.27,632.20 885.57,624.28 885.53,598.50 C885.50,574.19 886.04,567.19 889.61,545.50 C893.71,520.63 904.90,486.96 917.12,462.76 C921.55,453.99 931.51,437.54 938.48,427.50 C944.38,419.00 944.82,417.96 946.36,408.88 C948.30,397.51 952.63,382.07 956.43,373.00 C957.93,369.43 959.38,365.60 959.65,364.50 C959.93,363.40 954.60,368.14 947.80,375.04 C874.13,449.84 842.48,556.93 863.35,660.75 C865.15,669.69 866.37,677.00 866.06,677.00 C865.75,677.00 863.38,675.50 860.79,673.66 C854.26,669.01 845.68,665.33 834.24,662.27 C825.40,659.91 822.70,659.66 805.00,659.58 C785.02,659.50 781.60,659.93 768.00,664.22 C760.31,666.64 747.73,672.73 741.18,677.19 C729.79,684.93 716.80,700.54 710.89,713.57 C705.36,725.78 703.56,734.27 703.59,748.00 C703.63,766.60 707.92,780.69 718.59,797.28 C724.14,805.92 737.50,819.21 745.27,823.83 C761.91,833.73 775.45,837.36 795.50,837.29 C812.30,837.23 824.30,834.55 836.80,828.04 C860.19,815.87 874.32,792.93 874.39,767.00 C874.47,736.03 850.92,712.00 820.50,712.00 C801.33,712.00 783.65,722.71 777.97,737.75 C775.02,745.57 775.55,756.30 779.24,763.52 C782.19,769.30 789.33,776.34 796.51,780.57 C800.77,783.07 802.53,783.50 808.50,783.47 C817.01,783.43 821.61,781.29 828.96,773.95 C841.19,761.72 843.31,745.80 834.66,731.14 L832.59,727.65 L835.91,729.57 C841.10,732.59 847.66,740.53 851.66,748.64 C857.79,761.03 857.50,774.54 850.81,788.79 C837.03,818.15 793.85,828.51 759.53,810.71 C744.73,803.02 731.06,786.59 724.86,769.00 C722.89,763.43 722.56,760.49 722.53,748.50 C722.50,736.35 722.81,733.64 724.82,728.00 C738.10,690.76 777.62,670.99 823.00,678.89 C841.51,682.11 856.58,689.57 869.10,701.70 C875.52,707.91 877.15,710.19 879.54,716.28 C890.37,743.95 907.46,773.08 928.27,799.33 C938.21,811.88 963.32,837.02 975.80,846.93 C982.38,852.16 984.72,854.56 983.80,855.14 C981.24,856.77 950.17,856.01 928.78,853.81 C910.62,851.93 901.34,851.60 865.50,851.56 C822.38,851.50 811.85,852.09 785.60,856.05 C778.51,857.12 772.13,858.00 771.41,858.00 C769.33,858.00 757.55,848.60 742.50,834.92 C726.26,820.17 716.91,810.60 708.14,799.75 C702.35,792.60 699.87,790.78 698.64,792.78 C698.37,793.21 697.02,798.95 695.62,805.53 C691.64,824.40 683.21,859.86 681.44,865.17 L679.84,870.00 L674.17,869.98 C665.43,869.96 655.30,867.43 646.45,863.07 C636.49,858.16 630.32,852.84 626.50,845.86 C624.03,841.33 623.58,839.42 623.63,833.50 C623.69,825.18 625.29,821.52 631.86,814.63 L636.50,809.76 L632.56,810.46 C622.29,812.29 611.84,820.85 606.83,831.54 C603.73,838.18 602.67,846.23 604.32,850.75 C605.00,852.62 604.79,853.00 603.08,853.00 C598.80,853.00 593.00,840.32 593.00,830.96 C593.00,819.36 600.58,807.81 611.81,802.29 C616.95,799.77 618.52,799.50 628.00,799.51 C637.30,799.51 639.30,799.84 645.50,802.41 C649.35,804.01 654.19,806.38 656.25,807.67 C660.65,810.43 660.87,809.65 657.54,803.08 C652.52,793.17 639.93,783.84 627.81,781.04 C621.43,779.57 605.29,779.81 599.05,781.48 C585.28,785.14 570.49,796.21 563.55,808.05 C555.32,822.10 551.91,841.24 555.45,853.53 C557.94,862.15 562.44,869.44 570.06,877.20 C580.64,887.97 592.76,892.87 618.00,896.56 C631.61,898.55 653.21,898.06 664.85,895.50 C668.90,894.60 672.42,894.09 672.68,894.35 C673.22,894.88 665.49,918.08 663.44,922.09 L662.12,924.68 L655.19,922.92 C644.20,920.12 626.33,918.74 601.00,918.71 C528.98,918.62 477.10,933.85 438.07,966.54 C428.12,974.87 417.19,986.08 414.47,990.75 C413.42,992.54 412.26,994.00 411.88,994.00 C411.50,994.00 407.48,989.84 402.95,984.75 C380.87,960.00 359.83,927.34 338.67,885.00 C321.53,850.68 309.27,819.81 299.37,786.00 C296.87,777.48 292.41,762.85 289.44,753.50 C282.97,733.08 277.97,714.39 274.99,699.50 C273.78,693.45 272.22,687.60 271.53,686.50 C270.84,685.40 264.05,680.23 256.44,675.00 C217.70,648.40 185.80,622.08 156.50,592.53 C146.05,581.99 134.57,570.96 131.00,568.00 C127.42,565.05 122.59,560.82 120.25,558.61 L116.00,554.58 L116.00,557.38 C116.00,563.28 124.87,603.99 130.54,624.16 C137.75,649.76 153.06,694.72 170.00,740.00 C171.75,744.67 173.55,749.62 174.00,751.00 C174.45,752.38 178.87,764.08 183.82,777.00 C192.00,798.38 196.44,809.84 212.49,851.00 C259.40,971.29 315.80,1088.89 364.76,1168.51 C369.16,1175.65 376.24,1187.12 380.49,1194.00 C398.40,1222.91 400.31,1226.29 399.40,1227.50 C393.90,1234.85 392.62,1237.52 392.21,1242.45 C391.64,1249.31 392.53,1251.83 401.52,1268.85 C416.71,1297.60 428.68,1315.34 442.50,1329.60 C457.46,1345.03 464.15,1346.47 480.64,1337.83 Z M468.47,1291.23 C465.92,1289.42 455.67,1276.29 448.44,1265.56 L440.52,1253.83 L443.48,1251.66 C449.97,1246.91 477.30,1229.82 490.50,1222.26 C579.02,1171.55 685.78,1130.37 803.89,1101.39 C892.20,1079.72 971.30,1067.84 1067.00,1061.89 C1090.18,1060.45 1235.38,1059.86 1269.00,1061.07 C1389.48,1065.40 1497.68,1083.27 1625.00,1119.87 C1630.78,1121.53 1648.33,1127.13 1664.00,1132.31 C1755.81,1162.68 1836.02,1199.71 1902.53,1242.42 C1919.72,1253.46 1919.47,1253.24 1917.99,1256.02 C1913.37,1264.64 1892.37,1291.84 1890.25,1291.94 C1889.57,1291.97 1883.94,1289.26 1877.75,1285.92 C1844.12,1267.76 1793.24,1244.06 1755.18,1228.85 C1717.36,1213.72 1655.11,1192.13 1624.50,1183.52 C1617.35,1181.51 1606.10,1178.33 1599.50,1176.46 C1592.90,1174.58 1573.78,1169.67 1557.00,1165.55 C1464.05,1142.70 1376.80,1129.10 1280.50,1122.43 C1249.40,1120.28 1144.52,1119.34 1110.00,1120.91 C1004.72,1125.68 902.11,1140.74 798.50,1166.63 C755.10,1177.47 731.79,1184.20 689.00,1198.21 C617.50,1221.62 543.36,1252.96 485.26,1284.31 C470.43,1292.32 470.15,1292.43 468.47,1291.23 Z M428.69,1186.68 C424.64,1179.98 418.25,1169.55 414.50,1163.50 C393.27,1129.22 380.41,1107.03 363.46,1075.50 C344.78,1040.74 314.38,977.62 297.96,939.50 C295.35,933.45 290.21,921.52 286.52,913.00 C262.33,856.98 198.11,691.17 199.26,687.72 C199.44,687.19 203.39,689.89 208.04,693.72 C212.69,697.54 221.70,704.52 228.06,709.21 L239.62,717.75 L240.88,727.63 C242.74,742.26 249.43,775.44 253.14,788.50 C269.63,846.44 291.82,897.74 323.42,950.94 C347.41,991.35 376.18,1025.82 401.66,1044.70 C419.58,1057.97 444.16,1070.06 466.06,1076.36 C502.74,1086.92 542.52,1085.80 574.45,1073.31 C618.44,1056.09 655.40,1026.04 680.68,986.93 C691.97,969.47 703.29,946.11 709.49,927.50 C713.70,914.86 719.85,894.65 721.93,886.59 C723.06,882.24 724.20,878.47 724.46,878.21 C724.72,877.95 729.11,881.56 734.21,886.22 C762.45,912.02 821.50,949.14 856.00,962.79 C903.38,981.54 959.08,986.16 1002.44,974.95 C1031.75,967.37 1061.22,949.88 1086.30,925.18 C1094.41,917.19 1095.79,915.40 1094.30,914.83 C1093.31,914.45 1088.37,913.00 1083.33,911.60 C1078.29,910.21 1068.45,906.95 1061.48,904.35 C1053.03,901.21 1048.38,899.95 1047.55,900.57 C1046.86,901.08 1042.74,904.19 1038.40,907.49 C1011.82,927.63 986.31,935.98 951.30,935.99 C911.49,936.01 874.20,925.22 835.33,902.45 C820.26,893.62 799.00,879.92 799.00,879.04 C799.00,878.60 805.19,877.29 812.75,876.12 C844.58,871.20 867.96,870.39 932.32,872.01 C973.15,873.03 987.23,873.06 997.07,872.13 L1009.64,870.94 L1020.57,877.14 C1055.23,896.80 1095.84,910.16 1136.84,915.42 C1143.63,916.29 1151.05,917.01 1153.34,917.02 C1160.79,917.04 1160.86,917.84 1154.20,927.63 C1142.54,944.80 1119.10,982.51 1106.83,1003.84 C1103.45,1009.70 1100.20,1014.83 1099.60,1015.23 C1098.99,1015.64 1093.55,1015.98 1087.50,1015.99 C1075.58,1016.01 1034.93,1018.37 1018.00,1020.02 C979.53,1023.76 920.88,1031.37 899.50,1035.38 C861.41,1042.54 853.27,1044.00 851.61,1044.00 C850.61,1044.00 848.15,1042.72 846.14,1041.16 C844.14,1039.60 835.08,1033.23 826.00,1026.99 C809.60,1015.72 790.46,1001.66 780.07,993.25 C769.52,984.71 762.83,982.66 755.76,985.78 C753.32,986.86 750.40,989.04 749.28,990.62 C746.74,994.22 739.52,1007.29 730.02,1025.50 C716.38,1051.63 712.45,1058.45 701.79,1074.44 L694.50,1085.39 L676.00,1091.55 C629.15,1107.17 582.39,1125.86 533.83,1148.37 C532.00,1149.22 523.98,1152.66 516.00,1156.02 C496.63,1164.17 466.28,1180.17 443.78,1194.09 L436.07,1198.86 L428.69,1186.68 Z M1916.99,1194.67 C1900.37,1183.60 1864.53,1164.72 1841.00,1154.65 C1831.38,1150.54 1818.33,1144.84 1812.00,1141.99 C1765.43,1121.02 1726.76,1105.79 1684.00,1091.56 L1665.50,1085.41 L1657.24,1072.95 C1652.69,1066.10 1647.47,1057.80 1645.63,1054.50 C1637.60,1040.12 1638.48,1041.77 1620.48,1007.50 C1612.15,991.64 1609.51,988.11 1604.27,985.80 C1596.41,982.32 1591.32,984.29 1575.00,997.11 C1564.27,1005.55 1550.72,1015.44 1534.08,1027.00 C1528.94,1030.58 1521.39,1035.86 1517.30,1038.75 C1513.22,1041.64 1509.25,1044.00 1508.48,1044.00 C1507.70,1044.00 1495.92,1041.93 1482.29,1039.41 C1447.62,1032.99 1431.61,1030.49 1400.00,1026.55 C1349.18,1020.21 1318.10,1017.54 1281.98,1016.38 C1270.57,1016.02 1260.93,1015.27 1260.20,1014.70 C1258.92,1013.68 1256.74,1010.15 1246.25,992.07 C1239.24,979.98 1218.64,946.99 1208.42,931.50 C1204.07,924.90 1200.36,919.19 1200.19,918.81 C1199.82,917.99 1201.81,917.68 1220.86,915.52 C1262.15,910.85 1305.84,896.64 1340.45,876.61 L1350.41,870.86 L1362.95,872.06 C1372.15,872.94 1384.97,873.03 1411.00,872.38 C1458.75,871.20 1507.85,871.41 1522.50,872.86 C1537.28,874.32 1561.00,878.16 1561.00,879.08 C1561.00,879.89 1538.76,894.18 1524.62,902.47 C1486.14,925.04 1448.59,935.98 1409.63,936.00 C1374.82,936.01 1348.06,927.47 1322.59,908.23 C1317.69,904.53 1313.12,901.08 1312.44,900.57 C1311.62,899.95 1306.99,901.21 1298.64,904.31 C1291.72,906.88 1281.25,910.34 1275.37,911.99 C1269.49,913.64 1264.52,915.15 1264.34,915.33 C1264.15,915.51 1268.39,920.00 1273.75,925.29 C1292.88,944.18 1312.64,957.67 1334.66,966.85 C1357.53,976.39 1374.36,979.87 1401.54,980.71 C1445.18,982.06 1484.79,973.18 1525.16,952.98 C1560.09,935.51 1605.51,905.28 1627.29,885.01 C1631.58,881.02 1635.30,877.96 1635.55,878.22 C1635.81,878.47 1636.94,882.24 1638.07,886.59 C1648.99,928.75 1662.86,962.02 1680.68,988.84 C1698.22,1015.24 1716.58,1033.56 1743.40,1051.43 C1782.33,1077.38 1822.22,1087.76 1862.63,1082.46 C1898.86,1077.71 1930.84,1065.16 1957.63,1045.19 C1998.00,1015.09 2040.47,954.35 2074.47,878.09 C2085.92,852.41 2101.50,809.14 2108.02,784.92 C2111.54,771.87 2120.00,726.35 2120.00,720.49 C2120.00,718.51 2122.26,716.36 2131.59,709.45 C2137.97,704.74 2147.07,697.72 2151.81,693.86 C2156.56,690.00 2160.58,687.25 2160.75,687.76 C2161.22,689.16 2132.47,766.53 2115.52,809.50 C2086.36,883.38 2075.59,909.27 2054.19,957.00 C2018.07,1037.51 1988.48,1093.94 1948.01,1159.50 C1938.85,1174.35 1929.66,1189.31 1927.60,1192.75 C1925.54,1196.19 1923.77,1199.00 1923.67,1199.00 C1923.56,1199.00 1920.56,1197.05 1916.99,1194.67 Z M1582.75,1062.14 C1561.99,1056.87 1545.01,1052.32 1545.02,1052.03 C1545.03,1051.74 1548.29,1049.75 1552.27,1047.61 C1562.93,1041.87 1580.51,1031.28 1588.46,1025.80 C1593.95,1022.02 1595.68,1021.27 1596.59,1022.25 C1597.23,1022.94 1601.07,1030.47 1605.12,1038.99 C1609.18,1047.51 1614.42,1058.07 1616.77,1062.45 C1619.11,1066.82 1620.91,1070.70 1620.77,1071.06 C1620.62,1071.42 1603.51,1067.41 1582.75,1062.14 Z M739.20,1070.25 C751.22,1045.96 763.14,1022.46 763.74,1021.86 C764.17,1021.43 768.80,1023.94 774.01,1027.44 C779.23,1030.94 790.66,1037.90 799.42,1042.90 C808.17,1047.91 814.99,1052.00 814.58,1052.00 C814.17,1052.00 797.69,1056.28 777.95,1061.50 C742.88,1070.78 738.44,1071.78 739.20,1070.25 Z M504.00,1038.38 C496.01,1037.41 480.31,1033.68 470.25,1030.37 C454.87,1025.31 435.16,1014.59 424.14,1005.29 L420.77,1002.45 L434.80,988.87 C456.25,968.11 477.00,955.28 503.36,946.47 C515.38,942.46 538.39,937.00 543.30,937.00 C546.28,937.00 546.10,937.21 540.13,940.74 C526.01,949.09 513.41,961.99 506.49,975.15 C501.95,983.79 498.21,994.68 497.48,1001.37 L496.92,1006.50 L498.71,1004.02 C507.57,991.72 513.42,984.89 523.17,975.45 C535.99,963.03 548.38,954.28 558.59,950.43 C565.83,947.69 578.87,944.80 580.22,945.63 C582.31,946.93 580.12,949.02 570.49,954.95 C555.88,963.94 546.14,971.47 534.49,982.78 C520.61,996.26 502.71,1018.04 504.25,1019.58 C505.42,1020.76 522.77,1020.14 531.50,1018.60 C550.47,1015.27 558.67,1011.92 566.36,1004.35 C570.87,999.92 581.16,984.52 593.49,963.76 C598.30,955.66 602.63,949.27 603.12,949.57 C603.60,949.87 604.01,954.03 604.02,958.81 C604.05,968.65 605.15,974.58 607.36,976.79 C608.71,978.13 609.47,978.00 614.41,975.59 C621.45,972.14 623.24,969.80 626.57,959.70 C633.01,940.17 640.10,933.00 652.96,933.00 C656.28,933.00 659.00,933.23 659.00,933.51 C659.00,933.79 656.47,938.85 653.38,944.76 C634.20,981.39 608.00,1007.40 572.07,1025.48 C564.44,1029.32 548.87,1034.83 540.54,1036.65 C533.64,1038.15 510.91,1039.23 504.00,1038.38 Z M1831.00,1038.55 C1830.17,1038.35 1826.12,1037.63 1822.00,1036.96 C1806.76,1034.49 1783.90,1024.75 1767.70,1013.83 C1746.33,999.42 1732.01,984.99 1717.26,963.00 C1713.10,956.80 1701.00,934.76 1701.00,933.39 C1701.00,933.18 1703.72,933.00 1707.04,933.00 C1714.46,933.00 1719.40,935.32 1724.39,941.14 C1727.61,944.91 1729.40,948.82 1735.43,965.27 C1737.30,970.37 1741.01,973.85 1747.45,976.54 C1750.78,977.93 1751.47,977.96 1752.72,976.71 C1754.85,974.58 1755.95,968.54 1755.98,958.81 C1755.99,954.03 1756.41,949.86 1756.92,949.55 C1757.43,949.24 1759.31,951.57 1761.11,954.74 C1765.50,962.46 1781.39,988.14 1786.03,995.02 C1794.99,1008.28 1803.82,1013.64 1823.20,1017.58 C1834.70,1019.92 1854.21,1021.13 1855.73,1019.60 C1857.26,1018.07 1839.63,996.60 1825.61,982.91 C1813.94,971.52 1804.28,964.03 1789.51,954.95 C1779.83,948.99 1777.69,946.93 1779.82,945.61 C1781.09,944.83 1794.70,947.90 1801.86,950.60 C1816.91,956.26 1840.74,976.55 1855.78,996.50 L1863.32,1006.50 L1862.64,1001.37 C1861.73,994.47 1857.93,983.56 1853.51,975.15 C1846.70,962.20 1833.19,948.31 1820.00,940.71 C1812.62,936.46 1814.96,936.19 1830.79,939.48 C1854.36,944.38 1879.05,954.06 1896.00,965.04 C1906.26,971.69 1918.66,982.01 1929.39,992.84 L1939.28,1002.81 L1930.39,1009.40 C1907.17,1026.60 1875.43,1037.60 1846.50,1038.49 C1838.80,1038.72 1831.83,1038.75 1831.00,1038.55 Z M1155.25,1015.33 C1151.81,1015.09 1149.00,1014.65 1149.00,1014.35 C1149.00,1014.04 1153.19,1006.75 1158.31,998.14 C1163.43,989.54 1170.30,977.21 1173.56,970.75 C1176.83,964.29 1179.72,959.01 1180.00,959.01 C1180.28,959.01 1183.07,964.07 1186.20,970.25 C1189.34,976.44 1196.23,988.86 1201.52,997.85 C1206.81,1006.84 1210.89,1014.45 1210.58,1014.75 C1209.90,1015.43 1163.87,1015.91 1155.25,1015.33 Z M1127.83,871.25 C1142.22,847.92 1160.47,807.26 1165.94,786.33 C1167.02,782.21 1167.09,782.16 1170.26,783.08 C1174.40,784.26 1185.58,784.27 1189.71,783.08 L1192.91,782.17 L1194.48,787.83 C1200.60,809.97 1218.43,849.00 1233.73,873.75 C1237.33,879.58 1238.69,881.00 1240.67,881.00 C1247.00,881.00 1279.48,870.89 1282.37,868.03 C1282.85,867.55 1282.13,865.71 1280.72,863.83 C1272.42,852.84 1257.67,825.63 1248.01,803.50 C1241.34,788.21 1240.52,785.91 1236.89,772.04 C1232.98,757.15 1232.13,748.62 1234.31,746.21 C1236.85,743.40 1245.60,724.36 1248.89,714.50 C1258.36,686.08 1262.29,660.20 1262.27,626.50 C1262.22,563.97 1245.86,511.00 1217.92,482.87 C1208.51,473.40 1198.37,468.04 1188.32,467.23 L1181.87,466.72 L1182.46,463.11 C1182.78,461.12 1184.14,450.73 1185.48,440.00 C1190.83,397.16 1195.84,381.80 1209.08,367.62 C1218.25,357.80 1228.27,351.58 1242.40,346.91 C1255.36,342.63 1255.37,342.65 1237.41,338.22 C1210.88,331.68 1201.04,323.20 1193.64,300.50 C1190.00,289.33 1184.20,259.74 1182.95,246.00 C1181.13,225.84 1180.87,224.00 1179.93,224.00 C1179.42,224.00 1178.99,224.34 1178.97,224.75 C1178.95,225.16 1178.31,232.47 1177.54,241.00 C1174.94,269.78 1166.75,304.29 1159.66,316.27 C1153.56,326.60 1142.02,333.43 1122.59,338.22 C1104.64,342.65 1104.65,342.63 1117.55,346.90 C1139.64,354.22 1154.61,367.01 1162.70,385.50 C1168.12,397.88 1172.54,419.66 1175.99,451.00 C1176.57,456.23 1177.29,461.89 1177.60,463.60 L1178.17,466.70 L1171.46,467.32 C1137.73,470.47 1108.09,520.83 1099.55,589.50 C1097.94,602.39 1097.26,628.71 1098.14,644.00 C1100.26,680.90 1107.30,709.98 1120.63,736.86 C1126.90,749.53 1127.22,750.50 1126.63,755.36 C1125.53,764.42 1120.40,783.20 1116.07,794.01 C1109.27,810.98 1094.83,839.47 1085.66,854.00 C1080.97,861.42 1077.44,867.80 1077.82,868.16 C1080.59,870.85 1112.48,880.83 1118.66,880.94 C1121.60,881.00 1122.24,880.31 1127.83,871.25 Z M1170.31,766.20 C1156.26,761.18 1142.71,746.85 1132.47,726.19 C1107.49,675.77 1104.94,593.82 1126.63,538.06 C1133.92,519.33 1141.52,506.73 1151.63,496.64 C1166.65,481.63 1179.11,477.47 1190.98,483.49 C1214.72,495.52 1233.55,526.79 1242.45,568.98 C1249.13,600.59 1249.92,640.11 1244.50,671.50 C1233.56,734.83 1200.53,777.00 1170.31,766.20 Z M1188.50,739.62 C1212.01,728.54 1227.99,680.51 1227.97,621.00 C1227.96,593.90 1224.72,569.24 1218.45,548.50 C1214.30,534.75 1211.03,527.34 1205.39,518.84 C1198.58,508.58 1191.78,503.55 1182.23,501.68 C1175.18,500.30 1164.39,505.99 1157.58,514.66 C1141.76,534.82 1131.98,575.66 1132.01,621.42 C1132.04,671.83 1143.63,714.60 1162.23,733.04 C1167.28,738.04 1175.11,741.98 1180.00,741.98 C1181.92,741.98 1185.75,740.92 1188.50,739.62 Z " fill="black" stroke="none"/>
</svg>
