<?xml version="1.0" standalone="no"?>
<!DOCTYPE svg PUBLIC "-//W3C//DTD SVG 1.1//EN" "http://www.w3.org/Graphics/SVG/1.1/DTD/svg11.dtd">
<svg width="1720" height="1754" viewBox="0 0 1720 1754" xmlns="http://www.w3.org/2000/svg" version="1.1">
<path d="M165.59,1634.14 C165.29,1633.66 236.51,1633.31 326.96,1633.35 C416.00,1633.38 488.64,1633.77 488.37,1634.21 C487.70,1635.29 166.25,1635.22 165.59,1634.14 Z M1231.64,1634.23 C1231.38,1633.80 1304.02,1633.41 1393.06,1633.35 C1485.05,1633.30 1554.73,1633.63 1554.42,1634.13 C1553.75,1635.21 1232.31,1635.31 1231.64,1634.23 Z M62.16,1364.00 C62.16,1362.62 62.38,1362.06 62.66,1362.75 C62.94,1363.44 62.94,1364.56 62.66,1365.25 C62.38,1365.94 62.16,1365.38 62.16,1364.00 Z M1657.35,1350.00 C1657.35,1345.33 1657.52,1343.41 1657.73,1345.75 C1657.94,1348.09 1657.94,1351.91 1657.73,1354.25 C1657.52,1356.59 1657.35,1354.67 1657.35,1350.00 Z M62.39,1338.00 C62.39,1331.12 62.55,1328.31 62.74,1331.75 C62.94,1335.19 62.94,1340.81 62.74,1344.25 C62.55,1347.69 62.39,1344.88 62.39,1338.00 Z M1657.27,1337.00 C1657.27,1334.53 1657.47,1333.51 1657.71,1334.75 C1657.94,1335.99 1657.94,1338.01 1657.71,1339.25 C1657.47,1340.49 1657.27,1339.47 1657.27,1337.00 Z M835.00,1328.74 C834.73,1328.47 830.00,1327.98 824.50,1327.65 C815.00,1327.09 790.64,1324.29 775.50,1322.03 C759.86,1319.70 712.08,1306.71 698.00,1300.97 C692.77,1298.84 684.79,1295.74 680.26,1294.08 C672.00,1291.05 638.30,1274.87 628.00,1268.98 C624.98,1267.25 618.90,1263.78 614.50,1261.27 C610.10,1258.76 604.92,1255.49 603.00,1254.01 C601.08,1252.52 597.28,1250.02 594.56,1248.45 C591.84,1246.87 587.03,1243.54 583.87,1241.04 C580.71,1238.54 575.50,1234.62 572.31,1232.31 C543.22,1211.36 499.24,1167.13 480.52,1140.00 C478.43,1136.97 474.98,1132.25 472.86,1129.50 C470.73,1126.75 466.18,1120.20 462.75,1114.95 C454.21,1101.91 454.12,1101.76 453.03,1099.50 C452.49,1098.40 450.03,1094.12 447.56,1090.00 C443.34,1082.96 426.97,1050.56 423.44,1042.26 C422.56,1040.19 420.33,1034.45 418.49,1029.50 C416.64,1024.55 413.95,1017.35 412.49,1013.50 C402.21,986.24 392.29,943.95 389.05,913.50 C385.78,882.75 384.75,836.85 386.90,817.69 C391.98,772.49 392.61,768.49 398.03,747.00 C405.57,717.08 408.23,708.33 416.00,688.00 C423.84,667.49 437.28,638.72 447.22,621.17 C457.60,602.84 475.60,576.27 487.55,561.67 C490.32,558.28 494.74,552.69 497.36,549.25 C503.50,541.18 537.90,506.54 549.32,496.93 C567.53,481.59 596.24,460.38 607.29,454.11 C609.60,452.79 614.88,449.59 619.00,446.99 C630.14,439.97 660.37,424.96 678.00,417.70 C696.78,409.97 694.45,410.84 711.50,405.32 C735.33,397.62 741.09,396.02 754.00,393.47 C760.88,392.11 769.65,390.34 773.50,389.52 C784.44,387.21 808.86,384.02 827.50,382.46 C868.07,379.07 909.40,382.09 959.00,392.06 C969.73,394.21 982.10,397.06 986.50,398.39 C1009.26,405.28 1026.84,411.33 1038.74,416.38 C1046.02,419.47 1052.26,422.00 1052.61,422.00 C1053.80,422.00 1093.49,442.18 1095.08,443.60 C1095.95,444.37 1096.97,445.00 1097.34,445.00 C1097.72,445.00 1100.39,446.52 1103.27,448.38 C1106.14,450.23 1110.39,452.82 1112.71,454.13 C1121.47,459.07 1161.00,487.58 1162.54,490.06 C1162.86,490.59 1166.14,493.43 1169.81,496.38 C1181.57,505.80 1217.73,542.23 1223.50,550.47 C1224.60,552.04 1227.97,556.35 1231.00,560.04 C1239.76,570.72 1245.35,578.05 1249.67,584.50 C1251.88,587.80 1256.40,594.55 1259.71,599.50 C1263.03,604.45 1266.93,610.75 1268.39,613.50 C1269.84,616.25 1272.61,621.20 1274.53,624.50 C1280.08,634.03 1295.86,666.73 1299.15,675.50 C1300.80,679.90 1302.56,684.40 1303.07,685.50 C1312.15,705.22 1326.61,760.21 1329.50,786.00 C1329.84,789.02 1330.51,794.20 1330.98,797.50 C1333.33,813.74 1334.24,836.28 1333.71,864.66 C1332.78,913.87 1328.73,941.15 1314.99,990.76 C1309.41,1010.94 1297.65,1040.68 1286.05,1064.00 C1280.99,1074.17 1275.76,1084.30 1274.43,1086.50 C1273.10,1088.70 1271.33,1091.85 1270.49,1093.50 C1268.65,1097.13 1268.33,1097.65 1259.43,1111.50 C1250.10,1126.02 1250.39,1125.60 1243.58,1134.64 C1240.32,1138.96 1236.54,1144.02 1235.18,1145.87 C1224.83,1160.00 1198.27,1188.66 1178.95,1206.55 C1165.00,1219.46 1138.48,1240.01 1121.00,1251.46 C1111.15,1257.91 1094.33,1268.00 1093.44,1268.00 C1093.22,1268.00 1090.09,1269.80 1086.50,1272.00 C1082.91,1274.20 1079.80,1276.00 1079.59,1276.00 C1079.39,1276.00 1072.31,1279.29 1063.86,1283.30 C1047.10,1291.28 1047.45,1291.13 1025.00,1299.83 C1010.61,1305.41 986.75,1312.46 961.88,1318.48 C950.87,1321.15 931.52,1324.09 908.50,1326.60 C895.19,1328.05 836.06,1329.77 835.00,1328.74 Z M1657.34,1272.75 C1657.32,1243.19 1657.68,1219.00 1658.15,1219.00 C1659.19,1219.00 1659.18,1316.92 1658.14,1322.50 C1657.72,1324.70 1657.37,1302.31 1657.34,1272.75 Z M61.64,1319.36 C60.66,1312.22 60.88,1219.00 61.88,1219.00 C62.36,1219.00 62.74,1242.14 62.73,1271.50 C62.71,1300.38 62.60,1324.00 62.49,1324.00 C62.37,1324.00 61.99,1321.91 61.64,1319.36 Z M911.00,1288.61 C938.03,1285.15 979.96,1275.62 999.00,1268.62 C1004.23,1266.70 1011.20,1264.15 1014.50,1262.96 C1017.80,1261.78 1023.20,1259.75 1026.50,1258.46 C1035.86,1254.80 1065.63,1240.30 1071.58,1236.49 C1074.52,1234.61 1079.31,1231.86 1082.22,1230.39 C1092.23,1225.32 1122.92,1203.94 1136.56,1192.53 C1157.49,1175.04 1173.51,1159.24 1191.86,1138.00 C1218.53,1107.13 1237.20,1078.22 1255.81,1039.00 C1263.84,1022.06 1266.45,1015.43 1275.49,989.00 C1280.04,975.69 1288.96,938.76 1291.44,923.00 C1297.79,882.47 1298.01,832.16 1292.01,791.00 C1290.15,778.22 1283.72,749.24 1279.26,733.50 C1275.14,718.95 1263.57,688.12 1257.43,675.34 C1254.30,668.83 1250.88,661.48 1249.81,659.00 C1248.75,656.52 1245.49,650.45 1242.56,645.50 C1239.64,640.55 1235.50,633.48 1233.37,629.80 C1224.37,614.21 1207.12,590.40 1191.32,571.76 C1174.69,552.13 1144.73,523.98 1123.38,507.92 C1114.31,501.10 1092.41,486.27 1085.91,482.55 C1084.03,481.48 1079.12,478.63 1075.00,476.22 C1066.22,471.09 1035.30,455.75 1029.50,453.65 C1027.30,452.85 1020.49,450.18 1014.37,447.71 C1002.33,442.85 967.51,432.50 951.69,429.08 C938.50,426.24 919.18,423.49 898.02,421.45 C884.32,420.13 874.38,419.88 852.02,420.30 C836.33,420.59 820.35,421.27 816.50,421.82 C812.65,422.37 804.77,423.36 799.00,424.01 C770.24,427.28 718.68,440.98 697.50,450.99 C696.40,451.51 692.12,453.25 688.00,454.86 C679.03,458.35 651.12,472.36 642.00,477.94 C638.42,480.13 633.70,482.90 631.50,484.11 C618.73,491.09 591.47,511.23 573.00,527.34 C561.23,537.61 534.11,564.63 530.18,570.00 C528.78,571.92 525.96,575.30 523.93,577.50 C519.03,582.81 504.15,602.88 495.27,616.17 C485.10,631.39 473.39,652.18 465.52,669.00 C456.24,688.84 455.17,691.33 451.99,700.50 C450.47,704.90 447.58,713.00 445.58,718.50 C441.99,728.34 434.70,756.36 430.88,775.00 C423.04,813.22 421.32,866.32 426.55,909.09 C429.13,930.22 438.01,970.26 443.89,987.32 C447.82,998.72 454.95,1018.49 456.76,1023.00 C464.40,1042.05 483.25,1076.84 497.15,1097.56 C503.61,1107.20 519.35,1128.63 520.96,1130.00 C521.29,1130.28 525.81,1135.45 531.02,1141.50 C548.81,1162.18 575.48,1187.13 596.46,1202.73 C607.15,1210.67 633.77,1228.40 640.25,1231.89 C643.42,1233.59 647.87,1236.16 650.16,1237.60 C654.54,1240.37 685.06,1255.26 691.00,1257.53 C696.53,1259.64 709.62,1264.50 720.50,1268.49 C726.00,1270.50 740.17,1274.57 752.00,1277.52 C781.29,1284.83 801.56,1288.30 823.00,1289.66 C828.23,1290.00 832.73,1290.48 833.00,1290.75 C834.11,1291.82 900.04,1290.02 911.00,1288.61 Z M856.25,1027.47 C855.01,1026.15 854.00,1024.48 854.00,1023.76 C854.00,1023.03 853.10,1021.79 852.00,1021.00 C850.90,1020.21 850.00,1018.86 850.00,1018.00 C850.00,1017.14 849.10,1015.79 848.00,1015.00 C846.90,1014.21 846.00,1012.92 846.00,1012.14 C846.00,1011.36 844.65,1009.43 843.00,1007.85 C841.35,1006.27 840.00,1004.53 840.00,1003.98 C840.00,1002.62 811.29,974.00 809.93,974.00 C809.33,974.00 807.11,972.20 805.00,970.00 C802.89,967.80 800.63,966.00 799.98,966.00 C799.33,966.00 797.54,964.65 796.00,963.00 C794.46,961.35 792.58,960.00 791.82,960.00 C791.06,960.00 789.79,959.10 789.00,958.00 C788.21,956.90 786.86,956.00 786.00,956.00 C785.14,956.00 783.79,955.10 783.00,954.00 C782.21,952.90 780.86,952.00 780.00,952.00 C779.14,952.00 777.79,951.10 777.00,950.00 C776.21,948.90 774.86,948.00 774.00,948.00 C773.14,948.00 771.79,947.10 771.00,946.00 C770.21,944.90 768.76,944.00 767.78,944.00 C766.80,944.00 766.00,943.55 766.00,943.00 C766.00,942.45 765.20,942.00 764.22,942.00 C763.24,942.00 761.79,941.10 761.00,940.00 C760.21,938.90 758.86,938.00 758.00,938.00 C757.14,938.00 755.79,937.10 755.00,936.00 C754.21,934.90 752.76,934.00 751.78,934.00 C750.80,934.00 750.00,933.55 750.00,933.00 C750.00,932.45 749.20,932.00 748.22,932.00 C747.24,932.00 745.79,931.10 745.00,930.00 C744.21,928.90 742.86,928.00 742.00,928.00 C741.14,928.00 739.79,927.10 739.00,926.00 C738.21,924.90 736.86,924.00 736.00,924.00 C735.14,924.00 733.79,923.10 733.00,922.00 C732.21,920.90 730.86,920.00 730.00,920.00 C729.14,920.00 727.79,919.10 727.00,918.00 C726.21,916.90 724.86,916.00 724.00,916.00 C723.14,916.00 721.79,915.10 721.00,914.00 C720.21,912.90 718.95,912.00 718.20,912.00 C717.45,912.00 715.11,910.20 713.00,908.00 C710.89,905.80 708.70,904.00 708.14,904.00 C706.62,904.00 686.00,883.29 686.00,881.76 C686.00,881.03 685.10,879.79 684.00,879.00 C682.90,878.21 682.00,876.86 682.00,876.00 C682.00,875.14 681.10,873.79 680.00,873.00 C678.90,872.21 678.00,870.76 678.00,869.78 C678.00,868.80 677.55,868.00 677.00,868.00 C676.45,868.00 676.00,867.10 676.00,866.00 C676.00,864.90 675.55,864.00 675.00,864.00 C674.45,864.00 674.00,862.65 674.00,861.00 C674.00,859.35 673.55,858.00 673.00,858.00 C672.45,858.00 672.00,857.10 672.00,856.00 C672.00,854.90 671.55,854.00 671.00,854.00 C670.45,854.00 670.00,852.20 670.00,850.00 C670.00,847.80 669.55,846.00 669.00,846.00 C668.45,846.00 668.00,843.75 668.00,841.00 C668.00,838.25 667.55,836.00 667.00,836.00 C666.37,836.00 666.00,829.33 666.00,818.00 C666.00,806.67 666.37,800.00 667.00,800.00 C667.57,800.00 668.00,797.00 668.00,793.00 C668.00,789.00 668.43,786.00 669.00,786.00 C669.55,786.00 670.00,784.20 670.00,782.00 C670.00,779.80 670.45,778.00 671.00,778.00 C671.55,778.00 672.00,775.75 672.00,773.00 C672.00,770.25 672.45,768.00 673.00,768.00 C673.55,768.00 674.00,767.10 674.00,766.00 C674.00,764.90 674.45,764.00 675.00,764.00 C675.55,764.00 676.00,762.65 676.00,761.00 C676.00,759.35 676.45,758.00 677.00,758.00 C677.55,758.00 678.00,757.10 678.00,756.00 C678.00,754.90 678.45,754.00 679.00,754.00 C679.55,754.00 680.00,752.65 680.00,751.00 C680.00,749.35 680.45,748.00 681.00,748.00 C681.55,748.00 682.00,747.20 682.00,746.22 C682.00,745.24 682.90,743.79 684.00,743.00 C685.10,742.21 686.00,740.86 686.00,740.00 C686.00,739.14 686.90,737.79 688.00,737.00 C689.10,736.21 690.00,735.02 690.00,734.36 C690.00,732.70 704.59,718.00 706.23,718.00 C706.96,718.00 708.21,717.10 709.00,716.00 C709.79,714.90 711.14,714.00 712.00,714.00 C712.86,714.00 714.21,713.10 715.00,712.00 C715.79,710.90 717.24,710.00 718.22,710.00 C719.20,710.00 720.00,709.55 720.00,709.00 C720.00,708.45 721.35,708.00 723.00,708.00 C724.65,708.00 726.00,707.55 726.00,707.00 C726.00,706.45 726.90,706.00 728.00,706.00 C729.10,706.00 730.00,705.55 730.00,705.00 C730.00,704.45 731.35,704.00 733.00,704.00 C734.65,704.00 736.00,703.55 736.00,703.00 C736.00,702.45 737.80,702.00 740.00,702.00 C742.20,702.00 744.00,701.55 744.00,701.00 C744.00,700.37 751.33,700.00 764.00,700.00 C776.67,700.00 784.00,700.37 784.00,701.00 C784.00,701.55 785.35,702.00 787.00,702.00 C788.65,702.00 790.00,702.45 790.00,703.00 C790.00,703.55 790.90,704.00 792.00,704.00 C793.10,704.00 794.00,704.45 794.00,705.00 C794.00,705.55 794.90,706.00 796.00,706.00 C797.10,706.00 798.00,706.45 798.00,707.00 C798.00,707.55 798.90,708.00 800.00,708.00 C801.10,708.00 802.00,708.45 802.00,709.00 C802.00,709.55 802.80,710.00 803.78,710.00 C804.76,710.00 806.21,710.90 807.00,712.00 C807.79,713.10 809.02,714.00 809.73,714.00 C811.30,714.00 840.00,742.53 840.00,744.09 C840.00,744.70 841.35,746.46 843.00,748.00 C844.65,749.54 846.00,751.34 846.00,752.00 C846.00,752.66 847.35,754.46 849.00,756.00 C850.65,757.54 852.00,759.42 852.00,760.18 C852.00,760.94 852.90,762.21 854.00,763.00 C855.10,763.79 856.00,765.05 856.00,765.79 C856.00,767.62 858.50,770.00 860.43,770.00 C861.33,770.00 862.00,769.15 862.00,768.00 C862.00,766.90 862.45,766.00 863.00,766.00 C863.55,766.00 864.00,765.28 864.00,764.40 C864.00,763.52 865.35,761.54 867.00,760.00 C868.65,758.46 870.00,756.66 870.00,756.00 C870.00,755.34 871.35,753.54 873.00,752.00 C874.65,750.46 876.00,748.68 876.00,748.04 C876.00,747.41 878.70,744.24 882.00,741.00 C885.30,737.76 888.00,734.68 888.00,734.14 C888.00,732.78 898.67,722.00 900.02,722.00 C900.63,722.00 903.32,719.75 906.00,717.00 C908.68,714.25 911.57,712.00 912.44,712.00 C913.30,712.00 914.00,711.55 914.00,711.00 C914.00,710.45 914.80,710.00 915.78,710.00 C916.76,710.00 918.21,709.10 919.00,708.00 C919.79,706.90 921.24,706.00 922.22,706.00 C923.20,706.00 924.00,705.55 924.00,705.00 C924.00,704.45 925.35,704.00 927.00,704.00 C928.65,704.00 930.00,703.55 930.00,703.00 C930.00,702.45 931.35,702.00 933.00,702.00 C934.65,702.00 936.00,701.55 936.00,701.00 C936.00,700.37 943.00,700.00 955.00,700.00 C967.00,700.00 974.00,700.37 974.00,701.00 C974.00,701.55 975.80,702.00 978.00,702.00 C980.20,702.00 982.00,702.45 982.00,703.00 C982.00,703.55 983.35,704.00 985.00,704.00 C986.65,704.00 988.00,704.45 988.00,705.00 C988.00,705.55 989.35,706.00 991.00,706.00 C992.65,706.00 994.00,706.45 994.00,707.00 C994.00,707.55 994.90,708.00 996.00,708.00 C997.10,708.00 998.00,708.45 998.00,709.00 C998.00,709.55 998.90,710.00 1000.00,710.00 C1001.10,710.00 1002.00,710.45 1002.00,711.00 C1002.00,711.55 1002.80,712.00 1003.78,712.00 C1004.76,712.00 1006.21,712.90 1007.00,714.00 C1007.79,715.10 1009.05,716.00 1009.80,716.00 C1010.55,716.00 1012.89,717.80 1015.00,720.00 C1017.11,722.20 1019.36,724.00 1019.99,724.00 C1021.48,724.00 1024.00,726.52 1024.00,728.01 C1024.00,728.64 1025.80,730.89 1028.00,733.00 C1030.20,735.11 1032.00,737.45 1032.00,738.20 C1032.00,738.95 1032.90,740.21 1034.00,741.00 C1035.10,741.79 1036.00,743.24 1036.00,744.22 C1036.00,745.20 1036.45,746.00 1037.00,746.00 C1037.55,746.00 1038.00,746.90 1038.00,748.00 C1038.00,749.10 1038.45,750.00 1039.00,750.00 C1039.55,750.00 1040.00,751.35 1040.00,753.00 C1040.00,754.65 1040.45,756.00 1041.00,756.00 C1041.55,756.00 1042.00,756.90 1042.00,758.00 C1042.00,759.10 1042.45,760.00 1043.00,760.00 C1043.55,760.00 1044.00,761.35 1044.00,763.00 C1044.00,764.65 1044.45,766.00 1045.00,766.00 C1045.55,766.00 1046.00,767.35 1046.00,769.00 C1046.00,770.65 1046.45,772.00 1047.00,772.00 C1047.55,772.00 1048.00,774.25 1048.00,777.00 C1048.00,779.75 1048.45,782.00 1049.00,782.00 C1049.55,782.00 1050.00,784.25 1050.00,787.00 C1050.00,789.75 1050.45,792.00 1051.00,792.00 C1051.59,792.00 1052.00,795.67 1052.00,801.00 C1052.00,806.33 1052.41,810.00 1053.00,810.00 C1053.59,810.00 1054.00,813.67 1054.00,819.00 C1054.00,824.33 1053.59,828.00 1053.00,828.00 C1052.43,828.00 1052.00,831.00 1052.00,835.00 C1052.00,839.00 1051.57,842.00 1051.00,842.00 C1050.45,842.00 1050.00,843.80 1050.00,846.00 C1050.00,848.20 1049.55,850.00 1049.00,850.00 C1048.45,850.00 1048.00,851.35 1048.00,853.00 C1048.00,854.65 1047.55,856.00 1047.00,856.00 C1046.45,856.00 1046.00,857.35 1046.00,859.00 C1046.00,860.65 1045.55,862.00 1045.00,862.00 C1044.45,862.00 1044.00,862.90 1044.00,864.00 C1044.00,865.10 1043.55,866.00 1043.00,866.00 C1042.45,866.00 1042.00,866.90 1042.00,868.00 C1042.00,869.10 1041.55,870.00 1041.00,870.00 C1040.45,870.00 1040.00,870.80 1040.00,871.78 C1040.00,872.76 1039.10,874.21 1038.00,875.00 C1036.90,875.79 1036.00,877.05 1036.00,877.79 C1036.00,878.52 1033.75,881.32 1031.00,884.00 C1028.25,886.68 1026.00,889.36 1026.00,889.96 C1026.00,891.38 1017.38,900.00 1015.96,900.00 C1015.36,900.00 1012.68,902.25 1010.00,905.00 C1007.32,907.75 1004.52,910.00 1003.79,910.00 C1003.05,910.00 1001.79,910.90 1001.00,912.00 C1000.21,913.10 998.86,914.00 998.00,914.00 C997.14,914.00 995.79,914.90 995.00,916.00 C994.21,917.10 992.86,918.00 992.00,918.00 C991.14,918.00 989.79,918.90 989.00,920.00 C988.21,921.10 986.86,922.00 986.00,922.00 C985.14,922.00 983.79,922.90 983.00,924.00 C982.21,925.10 980.86,926.00 980.00,926.00 C979.14,926.00 977.79,926.90 977.00,928.00 C976.21,929.10 974.76,930.00 973.78,930.00 C972.80,930.00 972.00,930.45 972.00,931.00 C972.00,931.55 971.20,932.00 970.22,932.00 C969.24,932.00 967.79,932.90 967.00,934.00 C966.21,935.10 964.86,936.00 964.00,936.00 C963.14,936.00 961.79,936.90 961.00,938.00 C960.21,939.10 958.86,940.00 958.00,940.00 C957.14,940.00 955.79,940.90 955.00,942.00 C954.21,943.10 952.76,944.00 951.78,944.00 C950.80,944.00 950.00,944.45 950.00,945.00 C950.00,945.55 949.20,946.00 948.22,946.00 C947.24,946.00 945.79,946.90 945.00,948.00 C944.21,949.10 942.86,950.00 942.00,950.00 C941.14,950.00 939.79,950.90 939.00,952.00 C938.21,953.10 936.86,954.00 936.00,954.00 C935.14,954.00 933.79,954.90 933.00,956.00 C932.21,957.10 930.94,958.00 930.18,958.00 C929.42,958.00 927.54,959.35 926.00,961.00 C924.46,962.65 922.66,964.00 922.00,964.00 C921.34,964.00 919.54,965.35 918.00,967.00 C916.46,968.65 914.68,970.00 914.06,970.00 C913.43,970.00 910.18,972.70 906.84,976.00 C903.50,979.30 900.36,982.00 899.86,982.00 C898.58,982.00 886.00,994.74 886.00,996.04 C886.00,996.63 883.30,999.76 880.00,1003.00 C876.70,1006.24 874.00,1009.49 874.00,1010.22 C874.00,1010.96 873.10,1012.21 872.00,1013.00 C870.90,1013.79 870.00,1015.14 870.00,1016.00 C870.00,1016.86 869.10,1018.21 868.00,1019.00 C866.90,1019.79 866.00,1021.14 866.00,1022.00 C866.00,1022.86 865.10,1024.21 864.00,1025.00 C862.90,1025.79 862.00,1027.24 862.00,1028.22 C862.00,1030.75 858.94,1030.35 856.25,1027.47 Z M1417.00,707.62 C1417.00,707.41 1417.79,706.63 1418.75,705.87 C1420.34,704.63 1420.37,704.66 1419.13,706.25 C1417.82,707.92 1417.00,708.45 1417.00,707.62 Z M284.87,692.25 C283.63,690.66 283.66,690.63 285.25,691.87 C286.21,692.63 287.00,693.41 287.00,693.62 C287.00,694.45 286.18,693.92 284.87,692.25 Z M362.96,547.16 C363.62,545.88 364.44,545.10 364.77,545.44 C365.11,545.77 364.57,546.82 363.57,547.77 C361.85,549.42 361.82,549.40 362.96,547.16 Z M315.75,82.34 C316.44,82.06 317.56,82.06 318.25,82.34 C318.94,82.62 318.38,82.84 317.00,82.84 C315.62,82.84 315.06,82.62 315.75,82.34 Z M367.50,81.97 C378.53,80.83 401.00,80.86 401.00,82.00 C401.00,82.64 393.69,82.94 380.75,82.84 C365.94,82.73 362.38,82.49 367.50,81.97 Z M408.00,81.75 C408.00,80.49 477.78,80.83 478.56,82.09 C479.04,82.88 469.21,83.09 443.62,82.84 C424.03,82.65 408.00,82.16 408.00,81.75 Z M1241.00,82.03 C1241.93,81.41 1254.70,81.08 1274.50,81.16 C1294.32,81.24 1303.65,81.56 1299.00,82.00 C1286.78,83.16 1239.27,83.18 1241.00,82.03 Z M1309.00,82.00 C1307.79,81.22 1307.93,81.03 1309.75,81.02 C1310.99,81.01 1312.00,81.45 1312.00,82.00 C1312.00,83.25 1310.94,83.25 1309.00,82.00 Z M1314.00,81.91 C1314.00,80.84 1343.22,80.90 1353.50,81.99 C1358.28,82.49 1353.13,82.74 1337.25,82.77 C1323.97,82.79 1314.00,82.43 1314.00,81.91 Z " fill="black" stroke="none"/>
</svg>
