<?xml version="1.0" standalone="no"?>
<!DOCTYPE svg PUBLIC "-//W3C//DTD SVG 1.1//EN" "http://www.w3.org/Graphics/SVG/1.1/DTD/svg11.dtd">
<svg width="1140" height="1140" viewBox="0 0 1140 1140" xmlns="http://www.w3.org/2000/svg" version="1.1">
<path d="M202.50,855.38 C192.93,852.96 180.14,843.68 170.21,831.98 C150.45,808.67 142.41,795.52 139.65,782.00 C137.84,773.16 136.92,737.46 137.05,681.00 C137.10,660.38 137.07,642.60 137.00,641.50 C136.93,640.40 136.69,606.42 136.47,566.00 C136.25,525.58 135.77,456.05 135.40,411.50 C134.79,337.73 134.88,329.92 136.40,324.03 C141.29,305.10 155.58,292.06 174.69,289.11 C183.17,287.80 202.49,287.73 220.00,288.94 C233.46,289.87 240.18,291.77 247.23,296.66 C251.20,299.41 251.21,299.41 254.35,297.58 C270.35,288.21 272.75,287.79 308.53,287.95 C333.44,288.06 339.77,288.39 345.60,289.83 C352.32,291.50 352.89,291.50 358.56,289.79 C363.97,288.15 369.59,287.99 422.00,287.96 C479.42,287.93 493.42,288.54 505.38,291.56 C521.40,295.60 535.81,302.38 547.73,311.48 C551.70,314.52 555.12,317.00 555.33,317.00 C555.53,317.00 558.70,315.03 562.36,312.63 C592.00,293.16 630.94,283.84 669.54,286.96 C676.71,287.54 685.48,288.65 689.04,289.41 C696.13,290.95 706.90,293.56 708.54,294.13 C709.10,294.34 712.48,293.03 716.04,291.22 C727.43,285.46 730.73,284.98 763.00,284.35 C779.23,284.03 805.77,284.26 822.00,284.86 C838.23,285.47 863.88,286.41 879.00,286.97 C911.00,288.15 920.22,289.23 932.39,293.23 C954.06,300.37 970.75,313.56 982.24,332.64 C997.90,358.65 998.84,388.61 984.88,416.80 C980.28,426.08 979.93,427.27 981.28,428.80 C983.80,431.67 987.67,440.23 988.82,445.50 C990.29,452.19 990.87,476.17 991.59,559.50 C991.93,598.00 992.32,635.39 992.48,642.59 C992.78,656.48 991.25,668.57 988.16,676.81 L986.40,681.50 L990.85,688.00 C1000.03,701.40 1003.71,711.98 1004.66,727.66 C1005.45,740.72 1003.48,749.93 996.96,763.50 C991.52,774.84 984.06,784.12 974.00,792.07 C957.57,805.05 942.11,810.39 913.50,812.98 C901.02,814.11 842.15,813.77 834.00,812.52 C826.82,811.42 818.97,808.97 812.41,805.79 L806.32,802.84 L800.08,806.87 C788.64,814.26 791.00,814.05 712.93,814.72 C648.21,815.28 642.61,815.19 636.57,813.56 C630.52,811.92 629.72,811.91 625.35,813.40 C622.23,814.46 617.17,815.00 610.30,815.00 C598.64,815.00 600.07,813.96 596.52,825.00 C593.05,835.80 585.59,844.64 575.71,849.65 C557.97,858.65 535.48,855.53 522.86,842.31 C520.86,840.22 508.99,825.67 496.48,810.00 C483.98,794.33 473.10,780.83 472.31,780.00 C471.04,778.67 470.58,778.85 468.34,781.50 C454.60,797.80 445.19,802.92 428.89,802.98 C423.33,803.00 420.94,803.62 413.89,806.90 C409.27,809.05 402.58,811.54 399.01,812.44 C382.12,816.71 343.43,816.96 325.87,812.93 L316.37,810.75 L308.81,813.36 C304.64,814.80 298.15,816.42 294.37,816.97 C285.89,818.19 269.04,818.22 263.00,817.02 C257.89,816.00 256.00,817.34 256.00,821.97 C256.00,827.05 249.59,838.21 243.17,844.29 C234.25,852.75 228.09,855.22 215.00,855.59 C209.22,855.75 203.60,855.66 202.50,855.38 Z M214.86,803.75 C215.45,799.21 216.16,785.83 216.44,774.00 C216.89,755.09 217.16,752.36 218.69,751.24 C220.01,750.28 225.95,750.03 242.97,750.23 L265.50,750.50 L266.00,760.83 C266.65,774.31 266.56,774.23 282.15,773.81 C291.92,773.55 294.14,773.19 295.90,771.60 C297.99,769.70 298.00,769.39 298.00,709.30 C298.00,643.14 298.05,643.77 292.27,642.62 C289.18,642.00 283.35,641.77 274.75,641.91 C264.51,642.07 265.00,640.03 265.00,682.31 C265.00,709.79 264.70,719.03 263.75,720.33 C262.62,721.87 260.21,722.01 239.00,721.77 L215.50,721.50 L215.41,684.50 C215.35,664.15 214.99,646.49 214.59,645.25 C213.88,643.06 213.50,643.00 200.18,643.01 C192.66,643.02 185.52,643.29 184.33,643.61 C179.83,644.82 179.76,646.10 180.85,710.95 L181.88,772.06 L184.29,777.28 C187.96,785.21 209.89,812.00 212.73,812.00 C213.31,812.00 214.28,808.29 214.86,803.75 Z M555.85,727.03 C555.53,653.30 555.30,642.87 553.95,641.52 C552.67,640.24 550.44,640.10 540.05,640.66 C522.16,641.62 523.57,638.40 524.63,675.87 C525.79,716.64 525.75,725.50 524.42,725.50 C523.83,725.50 510.38,709.30 494.54,689.50 C462.19,649.06 460.02,646.51 455.19,643.00 C451.95,640.66 451.05,640.51 440.75,640.71 C431.99,640.87 429.37,641.26 427.87,642.62 C426.06,644.26 425.99,646.56 426.24,701.40 C426.47,752.63 426.66,758.50 428.09,758.78 C429.12,758.98 433.76,753.99 441.22,744.70 C447.57,736.79 453.33,729.26 454.02,727.96 C456.62,723.10 457.98,715.18 457.99,704.75 C457.99,698.84 458.40,694.00 458.89,694.00 C459.37,694.00 480.86,720.31 506.64,752.48 C532.41,784.64 554.11,810.96 554.86,810.98 C556.01,811.00 556.17,797.43 555.85,727.03 Z M383.33,770.97 C392.09,769.71 400.30,765.79 405.57,760.37 C416.18,749.46 418.50,735.56 419.68,675.75 C420.38,640.10 420.51,640.69 413.49,647.71 C406.71,654.49 391.72,673.44 389.93,677.50 C388.49,680.75 387.98,686.36 387.18,707.50 C385.97,739.16 385.19,741.78 376.00,744.91 C371.46,746.46 357.33,747.47 352.62,746.59 C347.76,745.68 342.48,740.89 340.62,735.70 C338.71,730.38 337.74,718.44 336.44,684.50 C336.08,675.15 335.33,666.94 334.77,666.25 C334.05,665.36 329.78,665.00 319.95,665.00 C305.05,665.00 303.00,665.66 303.00,670.42 C303.00,685.18 305.39,730.50 306.52,737.20 C309.96,757.63 318.25,766.86 336.50,770.58 C343.83,772.07 373.96,772.33 383.33,770.97 Z M611.56,770.71 C611.83,770.00 612.15,746.04 612.28,717.46 L612.50,665.50 L624.94,665.22 C632.01,665.06 637.94,664.47 638.69,663.85 C640.74,662.14 640.51,642.67 638.42,640.94 C637.18,639.90 629.63,639.68 602.67,639.86 C583.79,639.99 567.11,640.53 565.40,641.07 C563.69,641.62 561.82,643.10 561.24,644.38 C559.76,647.63 561.24,664.89 563.11,666.13 C564.39,666.99 571.01,666.66 578.61,665.36 C581.56,664.86 581.74,665.02 582.34,668.67 C582.69,670.77 582.98,694.18 582.99,720.68 C583.00,763.13 583.19,769.04 584.57,770.43 C586.66,772.52 610.77,772.77 611.56,770.71 Z M711.75,771.00 C729.06,771.00 740.00,770.63 740.00,770.04 C740.00,769.52 738.18,767.15 735.95,764.79 C733.72,762.43 729.84,757.93 727.32,754.78 C719.89,745.47 717.11,744.56 695.00,744.17 C684.83,743.99 676.46,743.76 676.39,743.67 C676.33,743.58 676.74,737.99 677.31,731.25 L678.34,719.00 L700.67,719.00 C719.78,719.00 723.00,718.79 723.00,717.51 C723.00,715.91 715.64,705.63 710.59,700.16 C705.28,694.43 702.72,693.58 689.00,693.01 L676.50,692.50 L676.22,680.85 C675.83,664.64 674.40,665.55 698.97,666.35 C709.71,666.70 719.74,667.27 721.25,667.61 C725.74,668.63 724.67,666.31 715.09,654.38 C701.41,637.35 705.40,638.80 673.36,639.18 C658.40,639.36 645.79,639.88 645.33,640.34 C644.48,641.21 644.66,764.77 645.52,768.68 C645.78,769.87 646.79,771.09 647.75,771.39 C648.71,771.68 657.15,771.71 666.50,771.46 C675.85,771.21 696.21,771.00 711.75,771.00 Z M776.01,765.75 C776.01,762.86 775.49,751.55 774.84,740.61 C773.71,721.44 773.74,720.66 775.58,719.29 C778.08,717.44 785.11,718.41 790.46,721.33 C792.73,722.57 797.79,727.56 802.30,733.00 C825.66,761.20 830.91,766.88 834.73,768.06 C838.97,769.37 871.00,770.64 871.00,769.50 C871.00,768.50 866.72,763.59 853.86,749.85 C839.93,734.96 831.84,725.28 828.37,719.37 L825.62,714.68 L827.88,713.09 C837.09,706.63 840.72,702.95 843.85,696.94 C847.08,690.71 847.18,690.19 846.79,681.00 C846.29,669.45 843.33,662.36 835.57,654.14 C824.16,642.06 813.92,639.70 767.14,638.40 C746.91,637.84 742.64,637.96 741.89,639.11 C741.38,639.91 741.28,651.06 741.65,665.21 C742.17,684.57 742.03,690.25 741.03,691.46 C740.13,692.55 737.80,693.02 733.13,693.07 C723.99,693.18 717.75,694.25 717.23,695.81 C716.99,696.53 721.78,701.93 727.88,707.81 C734.36,714.06 739.56,719.97 740.41,722.04 C741.61,724.99 742.84,746.78 742.99,767.78 C743.01,770.14 747.39,770.87 761.75,770.94 L776.00,771.00 L776.01,765.75 Z M925.47,767.57 C935.60,765.31 943.95,760.79 950.30,754.13 C958.63,745.39 960.47,741.21 960.49,731.00 C960.50,723.44 960.17,721.91 957.55,717.17 C952.30,707.69 940.91,698.72 928.57,694.34 C926.33,693.54 917.30,692.05 908.50,691.03 C890.48,688.93 888.14,688.27 885.13,684.44 C881.30,679.57 883.13,672.13 888.99,668.66 C892.42,666.64 906.26,665.02 920.17,665.01 C931.76,665.00 934.00,664.56 934.00,662.31 C934.00,661.50 930.32,656.39 925.81,650.96 C916.00,639.10 913.47,637.75 901.00,637.71 C888.16,637.68 876.86,641.43 865.43,649.54 C858.89,654.18 855.64,657.91 851.95,665.00 C850.09,668.56 849.61,671.06 849.62,677.00 C849.64,688.39 853.93,696.19 864.43,703.95 C875.01,711.77 878.39,712.90 907.99,718.56 C922.09,721.25 927.45,723.12 928.43,725.68 C929.57,728.64 924.99,734.76 920.10,736.82 C909.74,741.18 901.98,742.38 876.74,743.54 C868.63,743.91 861.73,744.62 861.42,745.13 C860.67,746.35 876.55,764.63 881.00,767.65 C884.42,769.98 884.88,770.02 901.50,769.58 C911.56,769.31 921.34,768.49 925.47,767.57 Z M773.00,679.65 C773.00,663.32 772.79,663.53 788.20,664.45 C794.42,664.83 801.82,665.78 804.66,666.57 C816.50,669.86 818.54,680.98 808.55,687.82 C804.43,690.65 796.31,691.99 783.25,691.99 L773.00,692.00 L773.00,679.65 Z M948.00,658.00 C948.77,655.15 948.76,625.74 947.99,555.26 C947.09,473.31 946.67,456.15 945.50,454.36 C944.15,452.30 943.55,452.23 931.29,452.68 C924.26,452.94 917.29,453.61 915.82,454.17 C914.28,454.75 912.41,456.72 911.43,458.79 C909.88,462.06 909.78,465.66 910.36,497.94 C910.71,517.50 911.28,542.73 911.62,554.00 L912.25,574.50 L909.50,572.00 C907.00,569.72 899.15,560.02 863.60,515.28 C848.02,495.67 847.71,495.49 828.77,495.52 C817.31,495.53 814.76,495.81 813.37,497.20 C811.83,498.74 811.79,502.95 812.84,553.68 C813.96,608.11 814.63,617.00 817.60,617.00 C819.49,617.00 823.11,612.81 836.55,595.06 L848.25,579.62 L847.88,563.06 C847.64,552.74 847.87,546.33 848.49,546.06 C849.03,545.82 856.16,553.92 864.34,564.06 C877.61,580.53 892.14,598.52 913.50,624.92 C917.35,629.68 925.65,639.97 931.94,647.79 C938.88,656.42 944.08,662.00 945.15,662.00 C946.37,662.00 947.26,660.76 948.00,658.00 Z M201.50,634.03 C206.45,633.52 215.45,632.83 221.50,632.50 C227.55,632.17 235.43,631.49 239.00,630.99 C242.57,630.49 248.43,629.80 252.00,629.45 C265.78,628.13 281.80,623.02 291.67,616.80 C318.65,599.82 326.89,564.12 310.29,536.15 C302.15,522.45 289.95,513.29 272.50,507.79 C265.76,505.66 244.51,503.70 210.00,502.01 C197.62,501.41 186.68,500.67 185.68,500.37 C184.67,500.06 183.00,500.60 181.93,501.56 C180.06,503.25 180.00,505.37 180.00,567.33 C180.00,639.84 179.44,635.01 187.90,634.98 C190.43,634.97 196.55,634.55 201.50,634.03 Z M430.87,630.84 C432.90,630.09 433.15,629.50 432.61,626.79 C431.76,622.54 423.44,611.76 418.55,608.57 L414.60,606.00 L389.55,605.99 C375.77,605.98 363.49,605.70 362.25,605.37 C360.08,604.79 360.00,604.36 360.00,593.01 C360.00,583.51 360.30,580.99 361.58,579.94 C362.78,578.94 369.13,578.61 388.33,578.56 C412.70,578.50 417.01,578.06 416.99,575.64 C416.97,573.73 400.24,555.21 397.79,554.39 C396.53,553.97 388.30,553.72 379.50,553.84 C370.70,553.95 362.98,553.69 362.33,553.27 C360.56,552.08 360.19,529.68 361.91,527.61 C363.06,526.22 366.24,526.00 385.12,526.00 C397.16,526.00 407.00,525.72 407.00,525.38 C407.00,523.99 392.28,505.55 389.04,502.88 L385.54,500.00 L355.80,500.00 L326.05,500.00 L324.74,502.25 C322.82,505.53 323.86,627.38 325.83,630.84 L327.17,633.18 L377.83,632.45 C405.70,632.06 429.57,631.33 430.87,630.84 Z M473.02,630.48 C474.03,629.26 474.10,622.12 473.37,595.73 C472.87,577.45 472.60,562.17 472.78,561.76 C473.06,561.13 480.87,570.33 500.50,594.42 C522.88,621.89 529.36,629.62 530.63,630.33 C532.66,631.47 537.96,625.82 551.50,608.05 C557.55,600.11 564.96,590.44 567.96,586.56 C570.96,582.68 576.52,575.45 580.30,570.50 C584.09,565.55 587.80,561.15 588.55,560.73 C589.65,560.10 589.86,561.83 589.70,570.23 C589.47,581.84 590.71,586.96 595.44,594.12 C601.16,602.75 621.18,627.00 622.60,627.00 C623.81,627.00 623.98,617.54 623.76,562.75 L623.50,498.50 L608.63,498.50 L593.77,498.50 L590.26,502.50 C588.34,504.70 575.56,521.35 561.88,539.50 C534.15,576.28 532.22,578.64 531.03,577.38 C530.58,576.90 521.93,566.15 511.81,553.50 C478.10,511.32 473.06,505.19 470.46,503.15 C466.96,500.39 458.23,498.67 448.12,498.74 C442.23,498.78 439.49,499.20 438.88,500.15 C437.90,501.69 437.71,630.38 438.69,631.36 C439.05,631.71 446.63,632.00 455.54,632.00 C468.85,632.00 471.98,631.73 473.02,630.48 Z M741.20,627.91 C776.39,620.69 798.50,600.87 803.98,571.64 C808.10,549.67 796.66,525.24 776.00,511.87 C769.21,507.48 755.66,501.72 747.00,499.53 C704.64,488.84 655.27,507.67 639.55,540.50 C631.92,556.42 632.00,573.02 639.77,588.75 C649.09,607.60 669.61,621.58 696.56,627.45 C704.00,629.07 734.06,629.38 741.20,627.91 Z M217.79,567.39 C217.51,543.49 217.70,528.02 218.29,527.25 C219.64,525.48 225.33,525.70 236.14,527.95 C254.53,531.77 264.71,536.62 272.53,545.27 C284.69,558.72 285.23,575.02 273.93,587.39 C263.98,598.27 248.31,604.64 228.87,605.71 L218.24,606.29 L217.79,567.39 Z M706.50,602.96 C695.82,600.77 687.36,596.29 681.10,589.50 C666.81,573.99 667.45,549.92 682.54,536.14 C710.26,510.80 761.44,525.09 766.86,559.67 C767.96,566.69 766.14,576.38 762.58,582.45 C756.85,592.24 747.42,597.80 730.12,601.60 C719.08,604.02 713.29,604.35 706.50,602.96 Z M720.96,591.75 C722.74,584.45 728.00,575.22 733.67,569.46 C740.19,562.83 740.13,561.93 732.51,554.00 C727.03,548.29 723.64,542.81 720.65,534.84 C719.04,530.54 716.62,528.10 715.67,529.79 C715.45,530.18 714.47,532.98 713.49,536.00 C709.89,547.19 702.74,558.00 697.92,559.52 C694.83,560.51 695.63,562.37 702.08,569.13 C706.26,573.52 709.53,578.32 712.58,584.55 C715.01,589.52 717.00,594.13 717.00,594.80 C717.00,595.46 717.66,596.00 718.46,596.00 C719.35,596.00 720.33,594.34 720.96,591.75 Z M533.92,539.75 C539.04,523.67 542.28,518.31 553.15,507.91 L563.21,498.28 L557.35,493.76 C544.09,483.53 536.56,472.62 533.89,459.75 C532.63,453.68 530.59,450.00 528.48,450.00 C527.49,450.00 527.00,451.03 527.00,453.11 C527.00,457.77 524.22,467.84 521.33,473.66 C517.25,481.87 510.19,489.68 501.25,495.88 C499.46,497.12 498.00,498.52 498.00,498.99 C498.00,499.45 499.47,500.74 501.27,501.85 C505.26,504.32 515.13,514.23 518.37,519.02 C521.43,523.53 526.31,535.02 528.04,541.75 C528.77,544.64 529.88,547.00 530.49,547.00 C531.10,547.00 532.65,543.74 533.92,539.75 Z M226.78,490.75 C227.35,490.06 227.97,485.00 228.18,479.50 C228.68,465.75 231.36,460.66 248.75,440.44 L253.00,435.50 L257.24,440.44 C259.57,443.16 264.63,449.30 268.49,454.09 C290.31,481.21 295.57,487.38 298.39,489.09 C301.18,490.80 303.63,490.99 322.06,491.00 C336.99,491.00 343.05,490.66 344.21,489.75 C345.61,488.66 341.67,483.46 313.33,449.00 C295.47,427.27 280.18,408.51 279.35,407.30 C277.91,405.20 278.37,404.46 290.17,389.95 C296.95,381.61 303.62,373.29 305.00,371.45 C306.38,369.62 313.93,360.21 321.79,350.54 C333.84,335.72 335.80,332.85 334.29,332.23 C333.30,331.83 321.43,331.50 307.90,331.50 C288.78,331.50 282.73,331.81 280.70,332.89 C278.32,334.17 271.75,343.15 239.71,389.00 C233.75,397.52 228.46,404.65 227.94,404.83 C227.37,405.04 226.97,392.72 226.93,373.33 C226.88,355.82 226.66,340.38 226.42,339.00 C226.19,337.62 224.84,335.49 223.44,334.25 C220.98,332.08 220.21,332.00 201.19,332.02 C190.36,332.02 180.87,332.43 180.09,332.92 C178.89,333.69 178.77,345.25 179.28,411.48 C179.72,469.04 180.19,489.52 181.06,490.57 C182.68,492.53 225.19,492.69 226.78,490.75 Z M420.79,489.36 L423.08,487.90 L422.38,461.80 C421.72,437.11 421.78,435.63 423.53,434.35 C424.94,433.32 430.12,433.00 445.23,433.00 C483.84,433.00 502.60,429.18 519.00,417.97 C528.33,411.59 533.35,404.87 536.94,393.96 C542.09,378.26 537.42,361.16 524.79,349.46 C518.37,343.53 506.01,336.95 496.50,334.43 C487.48,332.03 456.82,330.88 410.53,331.21 C376.69,331.45 368.99,331.76 366.60,332.98 C365.00,333.80 359.88,339.20 355.22,344.98 C340.75,362.95 340.76,363.00 360.93,363.00 C374.74,363.00 376.01,363.15 376.96,364.93 C377.55,366.04 378.00,373.76 378.00,382.90 C378.00,397.72 377.85,399.01 376.07,399.96 C374.82,400.63 359.62,401.00 333.57,401.00 C294.82,401.00 293.00,401.08 293.00,402.84 C293.00,404.93 314.92,431.35 318.04,433.02 C319.38,433.74 329.73,434.08 348.42,434.03 C373.57,433.96 376.84,434.13 377.38,435.56 C377.72,436.44 378.00,448.28 378.00,461.86 C378.00,482.71 378.25,486.91 379.57,488.80 C381.11,491.00 381.54,491.05 399.82,490.94 C414.35,490.85 419.01,490.50 420.79,489.36 Z M682.71,486.09 C718.12,479.22 743.73,462.29 756.29,437.43 C765.07,420.06 763.66,394.94 752.88,376.72 C736.55,349.09 697.32,330.00 656.88,330.00 C634.70,330.00 614.12,334.42 597.50,342.75 C572.91,355.06 558.49,370.34 551.47,391.50 C548.13,401.57 547.68,416.79 550.43,426.98 C555.24,444.85 567.42,460.39 585.50,471.75 C598.30,479.79 619.86,486.75 637.00,488.37 C647.00,489.32 672.68,488.04 682.71,486.09 Z M830.70,486.58 C831.14,485.79 831.20,473.55 830.83,459.36 C830.42,443.54 830.53,432.89 831.11,431.79 C831.97,430.18 833.82,430.01 850.28,430.03 C872.91,430.06 892.05,428.53 901.76,425.93 C938.74,416.02 956.54,393.83 949.46,366.46 C945.37,350.65 932.10,338.04 914.93,333.63 C909.45,332.23 905.08,331.95 857.50,330.00 C788.47,327.18 775.18,326.91 756.54,327.93 C740.01,328.84 737.33,329.22 735.66,330.90 C734.22,332.33 733.91,333.54 734.44,335.66 C735.44,339.73 747.59,351.26 754.59,354.78 C759.64,357.32 772.61,360.51 775.57,359.94 C776.08,359.84 778.41,359.82 780.75,359.88 L785.00,360.00 L785.01,376.75 C785.01,385.96 784.51,413.58 783.90,438.12 C783.08,471.21 783.09,483.29 783.92,484.85 C785.01,486.88 785.85,486.97 806.77,487.25 C818.72,487.41 828.82,487.64 829.20,487.77 C829.59,487.90 830.26,487.36 830.70,486.58 Z M640.50,457.40 C619.66,453.68 603.42,443.18 596.62,429.00 C593.64,422.79 593.50,421.94 593.50,410.00 C593.50,397.89 593.60,397.31 596.67,391.50 C602.81,379.87 615.44,370.35 630.50,366.00 C642.94,362.40 645.64,362.11 657.07,363.05 C677.73,364.74 690.85,369.54 701.67,379.36 C719.81,395.82 720.75,423.21 703.76,440.19 C695.31,448.64 682.66,454.86 668.50,457.50 C658.81,459.32 651.11,459.29 640.50,457.40 Z M655.98,439.25 C657.76,434.44 660.36,428.12 661.75,425.21 C664.38,419.70 670.80,413.34 674.72,412.35 C675.98,412.04 677.00,411.11 677.00,410.28 C677.00,409.46 673.74,405.31 669.75,401.06 C665.76,396.82 661.52,391.35 660.33,388.92 C657.75,383.67 653.56,374.26 652.63,371.64 C651.66,368.88 649.37,371.19 648.52,375.79 C647.15,383.24 642.09,391.77 633.96,400.36 C629.58,404.99 626.00,409.09 626.00,409.49 C626.00,409.89 629.12,413.43 632.92,417.36 C640.80,425.48 646.12,433.71 648.01,440.70 C649.33,445.58 650.65,448.00 651.99,448.00 C652.40,448.00 654.19,444.06 655.98,439.25 Z M422.48,400.81 C422.19,400.05 422.08,391.13 422.23,380.97 L422.50,362.50 L441.32,362.71 C461.49,362.93 482.41,365.13 487.00,367.50 C492.12,370.15 494.00,373.61 494.00,380.38 C493.99,387.06 491.93,391.69 487.75,394.43 C485.30,396.04 469.07,398.39 453.00,399.47 C440.92,400.28 433.74,400.89 427.75,401.61 C424.24,402.04 422.87,401.83 422.48,400.81 Z M831.25,396.97 C829.04,396.08 829.00,395.75 829.00,379.19 C829.00,358.06 828.48,358.81 842.57,359.48 C890.32,361.78 898.57,363.32 901.58,370.53 C904.44,377.38 902.83,387.22 898.18,391.36 C894.75,394.42 884.75,395.95 861.50,396.96 C835.07,398.12 834.11,398.12 831.25,396.97 Z " fill="black" stroke="none"/>
</svg>
