<?xml version="1.0" standalone="no"?>
<!DOCTYPE svg PUBLIC "-//W3C//DTD SVG 1.1//EN" "http://www.w3.org/Graphics/SVG/1.1/DTD/svg11.dtd">
<svg width="4560" height="2400" viewBox="0 0 4560 2400" xmlns="http://www.w3.org/2000/svg" version="1.1">
<path d="M1785.59,1824.33 C1745.91,1824.08 1729.29,1823.65 1728.32,1822.85 C1727.18,1821.90 1727.00,1803.52 1727.23,1710.90 C1727.47,1610.57 1727.35,1599.92 1725.91,1598.48 C1724.52,1597.09 1720.45,1596.87 1694.91,1596.82 C1671.45,1596.78 1665.04,1596.48 1663.25,1595.36 L1661.00,1593.95 L1661.00,1075.55 L1661.00,557.14 L1663.90,555.07 C1666.78,553.02 1667.51,553.00 1749.24,553.00 C1794.57,553.00 1831.89,553.23 1832.17,553.51 C1832.45,553.78 1897.44,553.91 1976.59,553.79 C2152.52,553.52 2616.48,553.49 2720.52,553.75 C2780.42,553.90 2796.91,554.21 2798.28,555.22 C2799.93,556.43 2800.02,583.74 2800.01,1075.91 C2800.01,1361.59 2799.75,1595.58 2799.45,1595.89 C2799.14,1596.19 2785.09,1596.46 2768.23,1596.47 L2737.56,1596.50 L2736.29,1599.00 C2735.29,1600.98 2735.02,1624.61 2735.03,1711.93 C2735.03,1799.98 2734.78,1822.52 2733.77,1823.17 C2733.07,1823.61 2607.59,1823.98 2454.92,1823.98 C2302.24,1823.99 2101.77,1824.15 2009.42,1824.34 C1917.06,1824.53 1816.34,1824.52 1785.59,1824.33 Z M1830.83,1818.50 C1831.60,1817.73 1831.70,561.13 1830.93,559.88 C1830.21,558.71 1669.99,558.61 1668.82,559.78 C1667.97,560.63 1667.61,1590.95 1668.46,1591.80 C1668.72,1592.06 1681.89,1592.22 1697.72,1592.16 C1713.55,1592.09 1727.00,1592.37 1727.61,1592.77 C1728.22,1593.17 1729.47,1594.96 1730.39,1596.75 C1731.91,1599.72 1732.04,1609.21 1731.97,1709.16 C1731.93,1777.62 1732.25,1818.54 1732.85,1818.91 C1734.11,1819.69 1830.04,1819.29 1830.83,1818.50 Z M2069.97,1818.23 C2070.26,1817.83 2070.28,1789.50 2070.00,1755.28 L2069.50,1693.05 L2067.22,1690.78 L2064.94,1688.50 L1954.39,1688.50 L1843.83,1688.50 L1841.41,1691.31 L1839.00,1694.11 L1839.13,1755.81 C1839.20,1789.74 1839.61,1817.95 1840.04,1818.50 C1840.96,1819.67 2069.11,1819.41 2069.97,1818.23 Z M2729.75,1819.01 C2730.74,1819.00 2731.00,1796.25 2731.00,1708.58 C2731.00,1647.85 2731.28,1597.44 2731.62,1596.54 C2733.23,1592.34 2736.72,1591.88 2765.64,1592.06 C2781.31,1592.16 2793.56,1591.84 2794.08,1591.32 C2794.64,1590.76 2794.90,1387.64 2794.75,1074.95 L2794.50,559.50 L2723.60,559.29 C2678.39,559.16 2652.04,559.44 2650.86,560.07 C2649.07,561.03 2649.01,573.88 2649.02,988.74 C2649.02,1331.46 2648.77,1416.65 2647.76,1417.64 C2646.77,1418.61 2590.21,1418.94 2382.25,1419.15 C2148.57,1419.40 2117.83,1419.26 2116.51,1417.93 C2115.18,1416.61 2115.01,1367.38 2115.00,988.77 C2114.99,728.84 2114.62,560.89 2114.06,560.54 C2112.73,559.72 2080.56,559.53 2079.26,560.34 C2078.46,560.83 2078.16,735.19 2078.15,1189.50 C2078.14,1718.80 2078.35,1818.10 2079.50,1818.74 C2080.43,1819.26 2630.46,1819.49 2729.75,1819.01 Z M2898.49,1808.99 C2897.69,1807.69 2898.85,1804.00 2900.07,1804.00 C2900.58,1804.00 2901.00,1805.35 2901.00,1807.00 C2901.00,1809.95 2899.72,1810.97 2898.49,1808.99 Z M1840.50,1684.00 C1841.32,1682.67 2063.87,1682.62 2067.36,1683.95 C2069.10,1684.61 2070.12,1684.53 2070.75,1683.70 C2071.65,1682.53 2071.63,1667.30 2070.74,1666.41 C2070.43,1666.10 1878.29,1665.76 1837.75,1666.00 C1837.34,1666.00 1837.00,1670.28 1837.00,1675.50 C1837.00,1683.10 1837.29,1685.00 1838.44,1685.00 C1839.23,1685.00 1840.16,1684.55 1840.50,1684.00 Z M2069.54,1657.94 C2070.29,1656.72 2070.57,1643.24 2069.86,1642.52 C2069.59,1642.26 2017.92,1642.01 1955.02,1641.98 C1868.75,1641.93 1840.49,1642.20 1839.95,1643.09 C1839.14,1644.40 1838.88,1656.99 1839.63,1658.21 C1840.41,1659.47 2068.76,1659.20 2069.54,1657.94 Z M2070.79,1625.74 L2071.08,1616.99 L1953.82,1617.24 L1836.57,1617.50 L1836.72,1625.50 C1836.80,1629.90 1836.89,1633.84 1836.93,1634.25 C1836.97,1634.67 1889.54,1634.89 1953.75,1634.75 L2070.50,1634.50 L2070.79,1625.74 Z M2067.68,1611.51 C2070.32,1610.89 2070.65,1609.48 2070.00,1601.60 L2069.50,1595.50 L1956.00,1595.00 C1859.48,1594.57 1842.24,1594.71 1840.75,1595.90 C1838.56,1597.66 1838.24,1609.10 1840.32,1611.18 C1841.40,1612.26 1861.90,1612.46 1953.57,1612.27 C2015.13,1612.14 2066.48,1611.80 2067.68,1611.51 Z M2071.20,1586.75 C2071.43,1586.06 2071.36,1582.35 2071.06,1578.50 L2070.50,1571.50 L1954.62,1571.24 C1874.49,1571.06 1838.34,1571.30 1837.46,1572.03 C1836.06,1573.19 1835.95,1584.61 1837.32,1586.75 C1837.95,1587.74 1862.48,1588.00 1954.45,1588.00 C2046.63,1588.00 2070.87,1587.74 2071.20,1586.75 Z M2212.46,1572.56 C2211.67,1570.67 2209.85,1567.41 2208.42,1565.31 C2206.98,1563.22 2204.06,1558.05 2201.93,1553.83 C2199.80,1549.60 2197.63,1545.89 2197.10,1545.56 C2196.58,1545.24 2194.75,1542.17 2193.03,1538.74 C2189.55,1531.79 2189.21,1531.20 2183.44,1522.00 C2181.19,1518.42 2179.06,1514.83 2178.70,1514.00 C2178.34,1513.17 2177.02,1510.85 2175.77,1508.84 C2166.33,1493.65 2165.71,1491.36 2170.42,1489.22 C2172.01,1488.50 2187.37,1488.10 2216.41,1488.04 C2253.94,1487.97 2260.43,1488.17 2263.00,1489.50 C2266.69,1491.41 2266.82,1493.75 2263.50,1499.00 C2262.12,1501.18 2261.00,1503.36 2261.00,1503.85 C2261.00,1504.33 2260.16,1505.80 2259.13,1507.12 C2258.11,1508.43 2255.94,1511.97 2254.31,1515.00 C2252.68,1518.03 2250.36,1522.08 2249.16,1524.00 C2247.95,1525.92 2246.21,1529.19 2245.29,1531.25 C2244.37,1533.31 2243.26,1535.00 2242.82,1535.00 C2242.38,1535.00 2241.34,1536.46 2240.51,1538.25 C2239.67,1540.04 2237.89,1543.30 2236.54,1545.50 C2235.20,1547.70 2233.61,1550.61 2233.00,1551.96 C2231.81,1554.59 2226.58,1563.50 2221.67,1571.25 C2217.85,1577.28 2214.62,1577.74 2212.46,1572.56 Z M2219.89,1563.25 C2220.48,1561.74 2221.41,1559.83 2221.95,1559.00 C2222.49,1558.17 2224.41,1554.87 2226.22,1551.66 C2228.02,1548.44 2230.52,1544.17 2231.77,1542.16 C2233.01,1540.15 2234.50,1537.40 2235.07,1536.05 C2235.64,1534.70 2237.60,1531.51 2239.43,1528.96 C2241.26,1526.41 2243.10,1523.27 2243.51,1521.97 C2243.92,1520.67 2245.77,1517.45 2247.63,1514.82 C2249.48,1512.18 2251.00,1509.74 2251.00,1509.39 C2251.00,1509.04 2252.60,1506.12 2254.57,1502.89 C2256.53,1499.66 2257.84,1496.55 2257.48,1495.97 C2256.53,1494.42 2177.29,1494.79 2176.70,1496.34 C2176.12,1497.89 2177.69,1502.00 2178.87,1502.00 C2179.38,1502.00 2180.32,1503.24 2180.94,1504.75 C2181.57,1506.26 2183.07,1509.15 2184.29,1511.16 C2185.51,1513.17 2188.51,1518.34 2190.96,1522.66 C2193.41,1526.97 2196.19,1531.85 2197.14,1533.50 C2198.09,1535.15 2199.37,1537.62 2200.00,1539.00 C2200.63,1540.37 2201.73,1542.17 2202.46,1543.00 C2203.18,1543.82 2205.08,1546.97 2206.69,1550.00 C2208.29,1553.03 2210.37,1556.74 2211.30,1558.25 C2212.24,1559.76 2213.69,1562.12 2214.52,1563.50 C2216.51,1566.77 2218.54,1566.67 2219.89,1563.25 Z M2069.83,1562.25 C2070.53,1560.87 2070.66,1553.56 2070.08,1547.75 C2070.03,1547.34 2018.53,1547.00 1955.62,1547.00 C1865.32,1547.00 1841.03,1547.26 1840.24,1548.25 C1838.90,1549.91 1838.88,1561.15 1840.20,1562.74 C1841.03,1563.74 1864.94,1564.00 1955.09,1564.00 C2062.50,1564.00 2068.98,1563.90 2069.83,1562.25 Z M2070.40,1540.17 C2071.11,1539.02 2071.52,1525.19 2070.86,1524.53 C2069.83,1523.50 1837.67,1523.92 1837.03,1524.96 C1836.54,1525.75 1836.44,1536.03 1836.90,1539.25 C1836.95,1539.66 1888.86,1540.11 1952.25,1540.25 C2015.64,1540.39 2068.04,1540.62 2068.69,1540.75 C2069.35,1540.89 2070.11,1540.63 2070.40,1540.17 Z M2069.15,1516.24 C2069.54,1515.83 2070.00,1512.44 2070.16,1508.70 C2070.39,1503.55 2070.10,1501.68 2068.98,1500.97 C2068.08,1500.40 2022.83,1500.02 1954.37,1500.02 C1861.89,1500.00 1841.05,1500.24 1840.15,1501.32 C1838.66,1503.11 1838.98,1514.14 1840.57,1516.00 C1841.70,1517.32 1855.46,1517.47 1955.14,1517.24 C2017.45,1517.09 2068.75,1516.64 2069.15,1516.24 Z M2070.89,1491.64 C2071.66,1490.70 2071.78,1488.09 2071.26,1483.39 L2070.50,1476.50 L1954.55,1476.25 C1876.91,1476.08 1838.27,1476.33 1837.59,1477.01 C1836.27,1478.33 1836.03,1490.12 1837.28,1491.75 C1838.77,1493.68 2069.28,1493.57 2070.89,1491.64 Z M1954.99,1469.99 C2030.57,1470.01 2066.71,1469.69 2068.04,1468.98 C2069.71,1468.08 2070.00,1466.85 2070.00,1460.57 C2070.00,1454.78 2069.66,1453.08 2068.42,1452.61 C2067.55,1452.27 2016.08,1452.00 1954.04,1452.00 C1854.56,1452.00 1841.10,1452.18 1839.99,1453.51 C1838.32,1455.52 1839.20,1468.89 1841.08,1470.05 C1841.81,1470.50 1842.74,1470.66 1843.15,1470.41 C1843.56,1470.16 1893.88,1469.97 1954.99,1469.99 Z M2070.79,1437.75 L2071.08,1429.00 L1954.04,1429.00 C1889.67,1429.00 1836.97,1429.34 1836.92,1429.75 C1836.36,1435.31 1836.66,1444.80 1837.42,1445.85 C1838.25,1446.98 1857.85,1447.14 1954.46,1446.85 L2070.50,1446.50 L2070.79,1437.75 Z M2068.36,1421.73 C2069.79,1420.68 2070.04,1419.15 2069.80,1412.98 L2069.50,1405.50 L1955.61,1405.25 C1886.03,1405.09 1841.28,1405.36 1840.59,1405.93 C1839.40,1406.92 1839.23,1419.95 1840.39,1421.83 C1841.43,1423.51 2066.06,1423.41 2068.36,1421.73 Z M2642.97,1413.05 C2644.62,1409.97 2644.39,569.90 2642.75,568.53 C2641.89,567.83 2559.49,567.66 2381.50,568.00 L2121.50,568.50 L2121.24,989.31 C2121.07,1271.05 2121.32,1410.73 2122.00,1412.00 C2122.98,1413.84 2129.26,1413.89 2381.19,1413.96 C2523.18,1414.00 2639.58,1414.25 2639.85,1414.51 C2640.82,1415.49 2641.95,1414.96 2642.97,1413.05 Z M2071.11,1390.23 C2071.45,1385.98 2071.41,1382.14 2071.02,1381.71 C2070.32,1380.92 1838.00,1380.67 1837.21,1381.46 C1836.42,1382.24 1836.28,1395.49 1837.04,1397.00 C1837.71,1398.32 1851.55,1398.47 1954.15,1398.23 L2070.50,1397.96 L2071.11,1390.23 Z M2067.79,1375.37 C2069.97,1374.78 2070.06,1374.35 2069.79,1366.62 L2069.50,1358.50 L1955.61,1358.25 C1872.28,1358.06 1841.35,1358.29 1840.36,1359.12 C1838.64,1360.55 1838.49,1373.09 1840.18,1374.78 C1841.06,1375.66 1868.91,1375.96 1953.43,1375.97 C2015.07,1375.98 2066.53,1375.71 2067.79,1375.37 Z M2070.64,1350.75 C2072.02,1348.82 2071.57,1335.97 2070.10,1335.06 C2069.41,1334.63 2016.89,1334.28 1953.39,1334.27 C1847.89,1334.26 1837.87,1334.40 1837.17,1335.88 C1836.76,1336.77 1836.44,1340.42 1836.48,1344.00 L1836.54,1350.50 L1951.52,1351.01 C2014.76,1351.28 2067.23,1351.62 2068.13,1351.76 C2069.02,1351.89 2070.16,1351.44 2070.64,1350.75 Z M2069.69,1326.59 C2070.14,1325.80 2070.28,1321.86 2070.00,1317.83 L2069.50,1310.50 L1955.29,1310.24 C1846.27,1309.99 1841.04,1310.06 1840.12,1311.77 C1838.87,1314.11 1838.94,1325.14 1840.22,1326.73 C1840.99,1327.68 1866.41,1327.96 1955.05,1327.99 C2052.95,1328.02 2069.00,1327.82 2069.69,1326.59 Z M2070.95,1303.53 C2072.00,1302.88 2071.41,1288.94 2070.30,1288.10 C2069.86,1287.77 2017.25,1287.62 1953.39,1287.76 L1837.29,1288.02 L1836.69,1295.21 C1836.35,1299.16 1836.48,1302.87 1836.96,1303.45 C1837.85,1304.53 2069.21,1304.61 2070.95,1303.53 Z M2069.34,1279.06 C2070.25,1278.15 2070.60,1265.26 2069.74,1264.41 C2069.10,1263.77 1841.06,1263.85 1840.03,1264.48 C1838.57,1265.38 1839.00,1278.90 1840.52,1279.75 C1842.47,1280.84 2068.24,1280.16 2069.34,1279.06 Z M2070.41,1255.07 C2071.45,1254.21 2071.77,1241.44 2070.78,1240.45 C2070.18,1239.85 1837.86,1239.81 1837.26,1240.41 C1836.41,1241.26 1836.19,1254.50 1837.01,1255.50 C1838.07,1256.79 2068.85,1256.37 2070.41,1255.07 Z M2068.07,1232.96 C2069.71,1232.09 2070.00,1230.82 2070.00,1224.57 C2070.00,1218.78 2069.66,1217.08 2068.42,1216.61 C2067.55,1216.27 2016.08,1216.00 1954.04,1216.00 C1865.02,1216.00 1841.03,1216.26 1840.22,1217.25 C1839.66,1217.94 1839.17,1221.18 1839.13,1224.46 C1839.02,1235.06 1826.29,1234.00 1954.22,1234.00 C2029.45,1234.00 2066.77,1233.66 2068.07,1232.96 Z M2070.76,1208.25 C2071.65,1206.39 2071.68,1194.35 2070.80,1193.47 C2070.15,1192.82 1838.09,1192.82 1837.04,1193.47 C1836.10,1194.05 1836.41,1207.24 1837.41,1208.85 C1837.94,1209.71 1867.64,1210.00 1954.02,1210.00 C2063.43,1210.00 2069.98,1209.90 2070.76,1208.25 Z M2069.80,1177.59 C2070.01,1171.93 2069.72,1169.44 2068.80,1168.86 C2066.74,1167.58 1841.85,1167.88 1840.30,1169.17 C1838.72,1170.47 1838.54,1181.26 1840.04,1184.07 C1841.06,1185.97 1843.17,1186.00 1955.29,1185.75 L2069.50,1185.50 L2069.80,1177.59 Z M2071.12,1154.77 C2071.45,1150.77 2071.43,1146.93 2071.07,1146.23 C2070.54,1145.22 2046.94,1144.97 1954.04,1144.98 C1890.04,1144.99 1837.46,1145.21 1837.19,1145.48 C1836.66,1146.01 1836.91,1161.04 1837.46,1161.94 C1837.65,1162.25 1890.16,1162.40 1954.15,1162.27 L2070.50,1162.05 L2071.12,1154.77 Z M2069.79,1130.28 C2070.07,1122.43 2069.98,1122.03 2067.79,1121.50 C2066.53,1121.19 2014.65,1121.07 1952.50,1121.22 L1839.50,1121.50 L1839.28,1128.38 C1838.91,1140.35 1824.36,1139.05 1955.29,1138.75 L2069.50,1138.50 L2069.79,1130.28 Z M2070.54,1113.93 C2071.48,1112.42 2071.91,1100.47 2071.08,1099.13 C2070.58,1098.32 2038.31,1097.98 1953.95,1097.89 L1837.50,1097.76 L1836.62,1104.82 C1836.13,1108.70 1836.01,1112.58 1836.34,1113.44 C1836.88,1114.84 1848.71,1115.00 1953.41,1115.00 C2035.01,1115.00 2070.08,1114.68 2070.54,1113.93 Z M2070.00,1083.20 C2070.00,1078.47 2069.53,1074.93 2068.80,1074.20 C2067.01,1072.41 1840.05,1072.46 1839.89,1074.25 C1839.37,1080.23 1839.62,1088.74 1840.35,1089.75 C1841.06,1090.74 1865.27,1091.00 1955.62,1091.00 L2070.00,1091.00 L2070.00,1083.20 Z M2071.19,1066.75 C2071.53,1065.73 2071.47,1057.98 2071.08,1052.25 C2071.02,1051.25 2047.29,1051.04 1954.25,1051.25 L1837.50,1051.50 L1836.78,1058.50 C1836.38,1062.35 1836.25,1066.06 1836.49,1066.75 C1836.85,1067.74 1861.22,1068.00 1953.86,1068.00 C2046.52,1068.00 2070.87,1067.74 2071.19,1066.75 Z M2069.69,1042.75 C2070.86,1041.18 2070.58,1029.18 2069.34,1027.94 C2068.36,1026.96 1841.13,1026.53 1840.15,1027.51 C1838.91,1028.76 1838.79,1041.04 1840.01,1042.51 C1841.09,1043.82 1855.33,1044.00 1955.00,1044.00 C2044.84,1044.00 2068.95,1043.74 2069.69,1042.75 Z M2071.17,1013.40 C2071.35,1009.82 2071.23,1006.13 2070.90,1005.19 C2070.34,1003.62 2062.17,1003.46 1954.55,1003.00 C1890.89,1002.73 1838.47,1002.73 1838.05,1003.00 C1836.70,1003.90 1836.04,1017.64 1837.29,1018.89 C1838.14,1019.74 1868.35,1020.02 1954.64,1019.98 L2070.83,1019.92 L2071.17,1013.40 Z M2070.00,989.57 C2070.36,984.60 2070.13,982.27 2069.18,981.32 C2068.10,980.24 2047.45,980.00 1956.51,980.00 C1895.27,980.00 1844.51,979.75 1843.71,979.44 C1840.83,978.34 1839.11,981.70 1839.18,988.26 C1839.22,991.69 1839.70,995.06 1840.25,995.75 C1841.04,996.75 1864.83,996.96 1955.38,996.75 L2069.50,996.50 L2070.00,989.57 Z M2070.50,964.50 L2070.50,956.50 L1954.55,956.25 C1882.29,956.09 1838.25,956.35 1837.66,956.94 C1836.68,957.92 1835.98,969.53 1836.76,971.73 C1837.11,972.70 1862.20,972.91 1953.85,972.73 L2070.50,972.50 L2070.50,964.50 Z M2069.78,946.75 C2070.72,943.86 2070.63,934.83 2069.64,933.23 C2068.52,931.41 1841.70,931.44 1840.24,933.25 C1839.06,934.70 1839.12,945.90 1840.31,947.75 C1840.95,948.74 1865.01,949.00 1955.08,949.00 L2069.05,949.00 L2069.78,946.75 Z M2070.08,925.45 C2070.59,925.14 2071.00,921.31 2071.00,916.94 L2071.00,909.00 L1954.08,909.00 C1861.47,909.00 1837.07,909.26 1836.69,910.25 C1836.25,911.44 1836.84,923.37 1837.46,925.50 C1837.76,926.56 2068.36,926.51 2070.08,925.45 Z M2065.67,901.99 L2069.84,902.00 L2070.20,894.75 C2070.40,890.76 2070.16,886.94 2069.66,886.25 C2068.94,885.26 2044.75,885.00 1954.48,885.00 C1852.74,885.00 1840.15,885.17 1839.63,886.53 C1839.10,887.90 1839.71,898.92 1840.46,901.50 C1840.65,902.16 1878.17,902.41 1951.12,902.24 C2011.83,902.10 2063.38,901.99 2065.67,901.99 Z M2070.50,869.99 L2070.50,861.50 L1953.82,861.25 C1839.89,861.00 1837.12,861.04 1836.53,862.89 C1835.77,865.29 1836.73,876.13 1837.80,877.20 C1838.35,877.75 2044.91,878.91 2069.00,878.50 C2070.21,878.48 2070.50,876.85 2070.50,869.99 Z M2068.75,854.53 C2070.21,853.98 2070.55,838.46 2069.12,837.57 C2068.63,837.27 2017.02,837.01 1954.44,836.99 C1863.27,836.96 1840.49,837.20 1839.84,838.22 C1838.37,840.54 1838.84,853.81 1840.43,854.70 C1841.90,855.53 2066.52,855.36 2068.75,854.53 Z M2071.29,830.50 C2071.46,829.95 2071.35,826.12 2071.05,822.00 L2070.50,814.50 L1954.29,814.25 C1843.53,814.00 1838.03,814.08 1837.12,815.78 C1835.97,817.93 1835.90,829.09 1837.03,830.50 C1837.56,831.16 1877.89,831.50 1954.40,831.50 C2031.25,831.50 2071.08,831.16 2071.29,830.50 Z M2070.21,800.74 C2070.42,797.31 2070.25,793.49 2069.82,792.25 L2069.05,790.00 L1957.11,790.00 C1895.54,790.00 1844.51,789.75 1843.71,789.44 C1840.83,788.34 1839.00,791.80 1839.02,798.32 C1839.03,804.66 1839.57,806.40 1841.75,807.10 C1842.44,807.32 1894.03,807.38 1956.41,807.24 L2069.82,806.98 L2070.21,800.74 Z M2070.79,775.37 C2070.96,771.15 2070.72,767.32 2070.28,766.88 C2069.53,766.13 1838.21,765.45 1837.47,766.19 C1836.51,767.16 1836.71,782.20 1837.69,782.81 C1838.31,783.19 1890.94,783.40 1954.65,783.28 L2070.50,783.06 L2070.79,775.37 Z M2069.90,759.43 C2070.93,758.40 2069.85,744.52 2068.67,743.78 C2068.03,743.37 2016.56,743.02 1954.31,743.02 C1864.83,743.00 1840.95,743.26 1840.33,744.25 C1838.92,746.48 1839.10,758.96 1840.55,759.77 C1842.02,760.59 2069.07,760.26 2069.90,759.43 Z M2071.17,734.75 C2071.39,734.06 2071.40,730.35 2071.21,726.50 L2070.86,719.50 L1957.20,719.77 C1872.73,719.98 1842.82,719.75 1840.74,718.89 C1839.20,718.25 1837.76,717.91 1837.54,718.13 C1836.86,718.81 1836.10,733.10 1836.67,734.59 C1837.13,735.79 1854.25,736.00 1954.00,736.00 C2046.55,736.00 2070.87,735.74 2071.17,734.75 Z M2068.85,711.50 C2069.79,711.14 2070.07,709.82 2069.76,707.24 C2069.50,705.18 2069.70,702.41 2070.19,701.08 C2072.16,695.74 2077.42,695.97 1954.53,695.96 C1891.89,695.95 1840.34,696.30 1839.95,696.72 C1838.58,698.24 1838.14,709.87 1839.41,710.92 C1840.07,711.47 1845.31,712.05 1851.06,712.21 C1868.94,712.70 2067.40,712.06 2068.85,711.50 Z M2070.13,689.23 C2070.76,688.57 2071.41,679.04 2071.12,674.75 C2071.01,673.08 2064.91,673.00 1953.75,673.25 L1836.50,673.50 L1836.86,681.50 C1837.05,685.90 1837.35,689.73 1837.51,690.00 C1837.99,690.80 2069.36,690.04 2070.13,689.23 Z M2068.80,667.14 C2069.72,666.56 2070.01,664.07 2069.80,658.41 L2069.50,650.50 L1956.10,650.00 C1874.31,649.64 1842.28,649.81 1841.19,650.60 C1839.32,651.97 1838.44,664.62 1840.07,666.59 C1840.97,667.66 1861.93,667.91 1954.33,667.93 C2016.57,667.94 2068.08,667.58 2068.80,667.14 Z M2071.14,642.26 C2071.58,641.82 2071.61,638.55 2071.22,634.98 L2070.50,628.50 L1954.50,628.00 C1890.70,627.73 1838.01,627.83 1837.41,628.24 C1836.27,629.01 1836.11,640.75 1837.20,642.52 C1837.94,643.71 2069.96,643.44 2071.14,642.26 Z M2068.67,620.86 C2069.56,620.12 2070.00,617.29 2070.00,612.37 L2070.00,604.99 L1954.75,605.25 L1839.50,605.50 L1839.32,611.86 C1839.22,615.36 1839.50,619.18 1839.95,620.36 L1840.76,622.50 L1954.05,622.23 C2034.71,622.04 2067.73,621.64 2068.67,620.86 Z M2070.50,590.23 L2070.50,582.97 L1954.00,582.96 L1837.50,582.96 L1836.79,589.17 C1836.33,593.16 1836.46,595.85 1837.15,596.68 C1838.02,597.73 1860.43,597.93 1954.36,597.74 L2070.50,597.50 L2070.50,590.23 Z M2068.39,575.40 C2069.65,574.92 2070.00,573.31 2070.00,567.93 C2070.00,562.17 2069.69,560.90 2068.07,560.04 C2065.00,558.40 1841.57,558.61 1840.20,560.26 C1838.89,561.84 1838.90,573.09 1840.22,574.73 C1840.99,575.68 1866.20,575.96 1953.99,575.99 C2016.02,576.01 2067.50,575.74 2068.39,575.40 Z M2898.50,573.00 C2897.47,571.34 2898.89,566.80 2900.29,567.26 C2901.83,567.78 2901.88,573.21 2900.34,573.72 C2899.70,573.93 2898.87,573.61 2898.50,573.00 Z M2642.50,561.00 C2642.50,558.98 2642.49,558.98 2382.50,558.98 C2203.29,558.98 2122.40,559.31 2122.16,560.03 C2120.98,563.56 2116.69,563.51 2382.62,563.26 C2642.41,563.02 2642.50,563.01 2642.50,561.00 Z M1680.21,528.81 C1678.34,526.94 1678.77,525.83 1681.25,526.18 C1682.49,526.36 1683.50,527.14 1683.50,527.92 C1683.50,529.82 1681.71,530.31 1680.21,528.81 Z M2778.02,528.52 C2777.00,527.30 2777.08,526.90 2778.45,526.38 C2780.79,525.48 2782.48,527.36 2780.68,528.85 C2779.58,529.76 2778.99,529.69 2778.02,528.52 Z M1673.47,526.96 C1673.15,526.43 1673.81,526.00 1674.94,526.00 C1677.36,526.00 1677.60,526.56 1675.53,527.35 C1674.72,527.66 1673.80,527.48 1673.47,526.96 Z M2784.50,527.00 C2784.16,526.45 2784.78,526.00 2785.88,526.00 C2786.98,526.00 2788.16,526.45 2788.50,527.00 C2788.84,527.55 2788.22,528.00 2787.12,528.00 C2786.02,528.00 2784.84,527.55 2784.50,527.00 Z " fill="black" stroke="none"/>
</svg>
