<?xml version="1.0" standalone="no"?>
<!DOCTYPE svg PUBLIC "-//W3C//DTD SVG 1.1//EN" "http://www.w3.org/Graphics/SVG/1.1/DTD/svg11.dtd">
<svg width="1260" height="1260" viewBox="0 0 1260 1260" xmlns="http://www.w3.org/2000/svg" version="1.1">
<path d="M437.50,1078.35 C422.99,1076.68 412.33,1071.59 402.47,1061.61 C394.34,1053.39 389.79,1045.39 386.98,1034.40 C385.34,1028.02 385.00,1023.33 385.00,1007.35 C385.00,983.41 386.87,962.69 394.16,905.69 C395.99,891.39 396.18,887.73 395.15,887.10 C392.93,885.72 367.48,885.05 357.95,886.11 C348.29,887.19 315.36,885.83 309.33,884.10 C307.50,883.57 302.95,883.56 298.35,884.08 C293.72,884.60 287.19,884.59 282.42,884.05 C277.98,883.54 271.00,883.37 266.92,883.65 C262.84,883.94 255.30,883.74 250.16,883.21 C242.30,882.39 239.46,881.56 232.25,877.99 L223.69,873.75 L219.10,876.00 C212.17,879.39 209.67,879.97 195.00,881.57 C181.16,883.07 170.59,882.60 155.50,879.81 C142.62,877.43 127.59,867.27 118.03,854.48 C108.44,841.65 105.99,832.20 106.02,808.09 C106.04,798.42 106.51,788.51 107.07,786.07 C107.86,782.66 107.72,779.91 106.46,774.07 C105.18,768.11 104.90,762.23 105.18,746.50 C105.51,726.90 105.59,726.32 108.76,717.38 C112.88,705.78 113.05,698.81 109.43,689.27 C104.03,675.01 105.17,660.53 113.01,643.66 C117.10,634.86 119.92,623.88 122.56,606.50 C123.47,600.45 125.94,586.27 128.04,575.00 C130.13,563.73 132.58,549.21 133.46,542.74 C136.35,521.63 140.68,511.13 150.58,501.24 C162.75,489.06 175.83,485.03 203.18,485.01 C225.59,484.99 238.67,488.57 249.93,497.80 L254.45,501.50 L274.47,501.14 L294.50,500.78 L299.82,494.90 C303.80,490.51 307.21,488.01 313.32,485.00 C323.85,479.81 329.74,479.07 360.78,479.03 C379.33,479.01 385.14,478.71 385.41,477.75 C385.60,477.06 386.51,468.43 387.43,458.57 C390.73,423.31 395.49,396.35 405.57,356.00 C411.45,332.43 421.90,298.10 425.17,291.62 C437.31,267.52 457.70,256.41 485.18,258.92 C491.56,259.50 495.48,260.50 500.49,262.85 C504.19,264.58 507.35,266.00 507.50,266.00 C507.65,266.00 510.86,261.01 514.64,254.91 C531.58,227.54 553.61,206.53 578.98,193.55 C593.45,186.15 599.32,184.17 611.50,182.57 C621.64,181.23 629.70,181.65 640.50,184.07 C647.44,185.63 668.67,195.94 678.94,202.74 C695.70,213.84 716.25,236.25 728.76,257.05 C731.37,261.38 734.01,264.95 734.64,264.96 C735.26,264.98 738.69,263.64 742.25,261.97 C746.61,259.93 751.41,258.64 756.99,258.00 C775.74,255.86 791.74,261.36 804.44,274.29 C812.97,282.99 817.29,290.88 822.88,308.00 C838.85,356.93 850.94,414.22 855.05,460.50 C857.64,489.70 857.03,488.49 867.71,485.60 C878.97,482.56 887.31,482.03 900.83,483.52 C911.25,484.67 914.36,485.45 920.87,488.50 C928.57,492.12 928.60,492.12 937.04,491.21 C943.04,490.57 949.14,490.70 957.98,491.66 L970.47,493.03 L976.91,490.45 C987.04,486.39 999.62,485.58 1050.00,485.72 C1064.05,485.76 1067.42,486.08 1072.67,487.87 C1086.81,492.68 1097.26,501.49 1102.83,513.31 C1107.00,522.16 1107.78,527.05 1108.58,549.31 L1109.30,569.12 L1115.34,572.17 C1122.58,575.83 1131.52,584.49 1135.83,592.02 C1140.06,599.40 1142.39,610.26 1141.72,619.36 C1140.85,631.17 1138.61,636.47 1128.60,650.44 C1128.00,651.29 1129.03,653.45 1131.78,657.10 C1136.68,663.59 1139.39,669.65 1140.95,677.59 C1141.59,680.84 1143.17,685.98 1144.48,689.00 C1145.78,692.02 1147.39,697.33 1148.06,700.80 C1149.67,709.13 1148.79,727.01 1146.48,733.00 C1145.52,735.48 1144.78,738.62 1144.84,740.00 C1144.90,741.38 1145.22,748.80 1145.57,756.50 C1146.05,767.38 1145.84,771.98 1144.63,777.14 L1143.08,783.78 L1146.50,790.57 C1151.78,801.06 1154.11,812.67 1153.88,827.28 C1153.77,834.00 1154.04,849.85 1154.47,862.50 C1155.22,884.27 1155.15,885.92 1153.12,893.31 C1150.71,902.08 1147.03,909.91 1143.03,914.77 L1140.34,918.04 L1140.80,936.39 C1141.17,951.14 1140.93,956.21 1139.59,962.25 C1135.88,978.92 1122.91,993.10 1106.75,998.17 C1099.49,1000.44 1084.02,1000.89 1077.10,999.03 C1059.90,994.39 1046.23,980.72 1041.68,963.59 C1040.09,957.61 1039.68,950.89 1039.03,920.68 C1038.57,899.26 1037.86,884.46 1037.26,883.86 C1036.71,883.31 1034.53,883.01 1032.41,883.18 L1028.56,883.50 L1026.92,890.50 C1024.14,902.38 1022.92,905.13 1014.72,917.99 C1013.24,920.32 1013.11,921.51 1013.95,925.14 C1015.49,931.85 1015.21,955.49 1013.49,962.77 C1010.12,977.06 1001.31,987.81 987.09,994.96 C962.17,1007.48 932.40,998.00 919.28,973.37 C913.72,962.94 913.09,958.04 912.35,919.85 L911.68,885.20 L905.51,884.54 C902.12,884.18 894.49,884.40 888.55,885.04 C880.15,885.94 874.77,885.92 864.36,884.95 C856.99,884.26 850.74,883.93 850.46,884.21 C850.17,884.49 851.50,896.15 853.41,910.11 C862.27,975.00 864.22,1018.18 859.08,1035.84 C855.84,1046.97 852.43,1052.79 844.49,1060.73 C831.26,1073.97 815.59,1079.23 796.07,1077.01 C782.56,1075.47 771.65,1069.74 761.65,1058.94 C745.28,1041.26 732.96,1005.71 716.55,928.78 C711.31,904.25 701.88,854.10 700.40,842.93 C699.86,838.91 698.88,836.77 696.23,833.84 C694.33,831.73 692.37,830.00 691.88,830.00 C691.40,830.00 691.00,833.33 691.00,837.39 C691.00,871.55 681.62,969.79 676.48,989.43 C673.54,1000.68 669.31,1007.93 660.98,1016.00 C648.09,1028.50 633.60,1033.15 613.82,1031.14 C601.31,1029.87 591.74,1025.39 582.53,1016.50 C571.10,1005.45 565.65,992.48 563.01,970.00 C556.31,913.08 554.09,887.08 552.40,845.75 C551.77,830.34 551.20,827.25 549.49,830.02 C549.14,830.58 547.78,837.45 546.47,845.27 C542.15,871.07 537.03,898.92 533.94,913.50 C533.36,916.25 531.35,925.92 529.48,935.00 C519.81,981.81 508.05,1022.10 498.49,1041.16 C490.14,1057.79 477.81,1069.79 463.74,1074.96 C459.02,1076.69 444.65,1079.23 441.68,1078.85 C441.03,1078.77 439.15,1078.54 437.50,1078.35 Z M448.18,1028.25 C457.46,1022.82 474.85,965.00 487.06,899.00 C487.51,896.52 488.84,889.55 490.00,883.50 C493.10,867.39 495.62,853.11 499.53,829.50 C501.45,817.95 503.26,807.04 503.55,805.25 C503.98,802.66 504.95,801.56 508.30,799.88 C514.92,796.56 516.73,794.30 520.51,784.59 C522.46,779.59 525.30,773.25 526.81,770.50 C529.51,765.60 529.64,765.51 533.53,765.99 C540.43,766.84 550.35,766.46 554.74,765.17 C557.07,764.49 561.97,761.88 565.63,759.38 C572.83,754.44 573.14,754.49 574.93,760.81 C577.28,769.08 585.92,778.90 594.80,783.40 L599.68,785.87 L600.37,820.19 C600.75,839.06 601.48,859.67 601.98,866.00 C602.49,872.33 603.41,884.02 604.02,892.00 C605.16,906.93 607.23,928.07 609.00,943.00 C609.55,947.67 610.49,955.77 611.07,961.00 C612.42,973.06 613.39,977.42 615.41,980.50 C618.77,985.63 626.00,984.63 628.48,978.69 C630.23,974.51 633.37,951.11 637.51,911.50 C640.36,884.14 642.97,834.50 642.99,807.35 L643.00,784.21 L647.86,781.09 C656.91,775.28 665.69,764.79 667.37,757.77 L668.03,755.03 L674.35,759.36 C682.66,765.05 691.66,767.55 700.22,766.55 C713.48,765.00 711.56,763.64 719.05,779.91 C722.98,788.47 726.78,795.27 728.38,796.65 C729.86,797.92 733.53,799.68 736.54,800.55 C742.46,802.28 743.45,803.40 744.38,809.50 C747.04,826.91 752.75,860.00 757.00,882.50 C771.98,961.99 787.71,1016.96 798.28,1026.82 C802.08,1030.35 807.71,1029.58 810.72,1025.10 C812.87,1021.90 813.00,1020.73 813.00,1005.10 C812.99,973.97 804.65,905.34 790.53,820.23 C786.45,795.63 786.30,792.57 789.00,788.50 C792.10,783.83 791.62,777.29 787.41,766.77 C783.64,757.34 779.50,749.77 773.64,741.60 L770.13,736.69 L772.70,730.10 C789.38,687.23 801.07,637.65 806.56,586.50 C808.74,566.17 809.64,504.92 808.07,484.13 C804.00,430.32 794.75,381.34 779.61,333.37 C772.45,310.69 771.01,307.55 767.16,306.21 C761.50,304.23 759.05,307.10 744.32,333.00 C736.97,345.93 729.58,359.26 727.89,362.64 C724.28,369.90 724.04,368.55 733.86,397.00 C740.09,415.03 746.66,439.45 747.20,446.50 L747.50,450.50 L735.85,451.18 C717.26,452.28 711.90,454.57 706.38,463.77 C702.42,470.38 702.02,472.99 702.01,492.75 L702.00,509.00 L696.71,509.00 L691.42,509.00 L691.38,493.25 C691.31,462.59 684.53,426.25 671.34,385.84 L666.74,371.75 L681.90,341.12 C699.88,304.81 699.56,306.34 692.20,291.91 C680.43,268.85 664.99,251.29 646.39,239.81 C635.21,232.91 628.90,230.69 620.50,230.68 C614.15,230.68 612.63,231.11 604.11,235.39 C581.58,246.69 561.92,267.26 549.29,292.74 C542.69,306.07 542.50,305.22 559.88,340.52 C568.20,357.41 575.00,371.66 575.00,372.18 C575.00,372.70 572.76,379.96 570.03,388.32 C557.38,426.92 551.00,461.74 551.00,492.19 L551.00,509.00 L546.59,509.00 L542.17,509.00 L542.34,490.75 C542.50,472.67 542.47,472.45 539.72,466.84 C536.43,460.13 530.62,454.56 525.32,453.02 C523.22,452.41 515.52,451.64 508.22,451.31 C500.91,450.97 494.76,450.41 494.54,450.07 C492.92,447.45 502.39,412.10 511.12,388.18 C513.87,380.66 516.16,372.66 516.21,370.41 C516.30,366.90 514.12,362.40 501.00,338.91 C492.58,323.83 484.75,310.52 483.59,309.31 C480.52,306.10 477.05,305.62 473.36,307.90 C470.59,309.61 469.68,311.49 465.66,323.67 C443.70,390.25 433.07,455.97 433.02,525.55 C432.96,599.70 444.85,666.61 469.19,729.14 L472.16,736.77 L467.47,743.14 C458.79,754.92 451.00,773.02 451.00,781.43 C451.00,784.98 451.68,786.69 454.49,790.17 C460.71,797.88 460.62,796.66 456.66,820.68 C447.87,873.93 445.27,891.38 439.95,933.00 C435.15,970.60 432.45,1005.65 433.50,1016.84 C434.10,1023.25 434.62,1024.77 437.03,1027.18 C440.30,1030.45 443.84,1030.79 448.18,1028.25 Z M440.31,1022.38 C439.48,1020.19 440.70,983.75 441.99,972.50 C442.56,967.55 443.49,959.00 444.07,953.50 C445.26,942.14 446.55,931.68 448.02,921.50 C448.58,917.65 450.15,906.62 451.51,897.00 C454.88,873.22 457.73,854.20 459.46,844.00 C460.26,839.33 462.30,826.73 464.00,816.00 C467.42,794.45 468.76,790.29 473.71,785.95 C476.54,783.47 477.90,783.01 482.28,783.05 C485.15,783.07 489.06,783.86 490.96,784.80 C495.37,786.96 499.30,792.65 498.71,796.00 C498.47,797.38 495.97,812.00 493.16,828.50 C490.35,845.00 487.12,863.45 485.97,869.50 C484.83,875.55 483.50,882.75 483.02,885.50 C481.22,895.74 473.84,931.00 470.46,945.50 C459.14,994.00 448.62,1024.00 442.93,1024.00 C441.83,1024.00 440.66,1023.27 440.31,1022.38 Z M800.30,1018.75 C788.87,999.56 772.59,935.62 758.48,854.50 C751.44,814.02 747.96,791.28 748.46,789.10 C749.86,783.10 751.31,781.03 755.54,778.98 C764.29,774.75 773.53,776.67 776.83,783.40 C778.10,785.98 782.15,808.52 786.93,839.50 C788.12,847.20 789.94,858.90 790.98,865.50 C792.02,872.10 793.12,879.30 793.43,881.50 C793.74,883.70 794.66,890.00 795.46,895.50 C805.83,966.12 809.94,1024.00 804.58,1024.00 C803.94,1024.00 802.02,1021.64 800.30,1018.75 Z M620.71,978.27 C619.73,976.53 618.96,971.42 616.50,950.49 C609.87,893.99 607.05,852.06 607.02,809.46 L607.00,781.42 L617.75,781.46 C623.66,781.48 630.41,781.16 632.75,780.74 L637.00,779.98 L637.00,794.46 C637.00,821.48 634.59,871.86 631.94,900.00 C629.31,928.08 626.13,955.98 623.83,971.25 C622.89,977.51 621.74,980.10 620.71,978.27 Z M965.99,951.51 C966.67,950.69 966.92,949.24 966.55,948.27 C966.18,947.31 965.68,938.87 965.43,929.51 C965.18,920.16 964.50,897.96 963.91,880.19 C962.61,840.87 963.64,831.00 969.04,831.00 C971.38,831.00 972.57,834.85 974.08,847.35 C975.18,856.46 975.07,861.52 973.39,879.03 C972.89,884.26 973.07,885.81 974.31,886.85 C975.63,887.94 976.15,887.71 977.68,885.36 C979.24,882.98 979.50,880.41 979.48,867.05 C979.46,858.50 978.83,845.81 978.06,838.85 C976.96,828.79 976.92,825.61 977.89,823.26 C979.30,819.86 978.61,815.95 975.77,811.23 C972.67,806.06 969.09,804.75 959.13,805.15 L950.53,805.50 L949.77,800.50 C949.36,797.75 949.47,792.35 950.03,788.50 C950.58,784.65 951.14,778.80 951.27,775.50 L951.50,769.50 L960.00,769.00 C964.67,768.73 969.06,768.14 969.75,767.69 C970.55,767.17 971.00,764.40 971.00,759.94 L971.00,753.00 L960.50,753.00 L950.00,753.00 L950.00,743.18 L950.00,733.36 L946.76,731.93 C942.54,730.07 940.97,725.92 943.07,722.19 C945.10,718.57 947.21,718.39 951.69,721.43 C954.86,723.59 956.59,724.00 962.54,724.00 C966.69,724.00 970.34,723.47 971.36,722.73 C973.72,721.00 974.93,710.20 972.90,708.92 C972.13,708.43 961.53,708.02 949.35,708.02 L927.20,708.00 L926.10,711.15 C924.43,715.93 924.57,817.04 926.25,819.32 C927.25,820.67 930.33,821.23 941.50,822.09 C956.99,823.27 957.54,823.54 960.01,831.04 C961.00,834.03 960.95,835.21 959.74,837.59 C958.49,840.06 958.39,843.91 959.14,863.00 C959.62,875.38 960.35,900.12 960.77,918.00 C961.19,935.88 961.89,951.06 962.33,951.75 C963.37,953.40 964.48,953.33 965.99,951.51 Z M1092.19,941.91 C1091.81,929.03 1089.79,853.61 1089.72,849.50 C1089.65,845.80 1091.61,833.45 1092.48,832.03 C1093.36,830.61 1096.55,830.74 1097.73,832.25 C1099.96,835.09 1101.24,849.82 1100.87,868.50 C1100.55,884.81 1100.71,887.50 1101.99,887.50 C1106.56,887.50 1107.69,871.15 1105.04,843.50 C1104.01,832.78 1103.79,825.98 1104.39,822.89 C1105.56,816.85 1104.68,813.71 1100.54,809.20 L1097.15,805.50 L1087.34,805.42 L1077.53,805.35 L1076.58,802.03 C1075.95,799.85 1076.03,795.09 1076.82,788.06 C1077.47,782.20 1078.00,775.56 1078.00,773.30 L1078.00,769.20 L1087.04,768.85 C1097.69,768.44 1098.13,768.05 1097.76,759.50 L1097.50,753.50 L1086.78,753.22 L1076.06,752.93 L1076.67,743.57 L1077.29,734.20 L1073.89,732.46 C1069.75,730.34 1069.03,729.33 1069.02,725.58 C1069.00,722.49 1071.43,719.00 1073.61,719.00 C1074.33,719.00 1076.57,720.12 1078.60,721.50 C1081.68,723.59 1083.44,724.00 1089.39,723.98 C1093.30,723.98 1096.99,723.64 1097.59,723.23 C1099.13,722.19 1101.00,716.28 1101.00,712.47 C1101.00,709.96 1100.50,709.10 1098.75,708.63 C1097.51,708.30 1086.93,708.02 1075.23,708.01 L1053.95,708.00 L1052.76,710.75 C1051.90,712.75 1051.57,727.73 1051.54,765.71 C1051.50,812.17 1051.68,818.10 1053.09,819.52 C1054.27,820.70 1058.17,821.37 1068.06,822.12 C1075.42,822.67 1082.04,823.62 1082.78,824.24 C1085.62,826.59 1087.21,831.17 1086.47,834.88 C1085.42,840.19 1085.46,851.34 1086.68,903.27 C1087.79,950.26 1088.12,953.80 1091.40,952.69 C1092.13,952.45 1092.40,948.85 1092.19,941.91 Z M365.02,836.00 C366.50,833.65 366.16,826.68 364.44,824.22 C363.01,822.18 362.08,822.00 353.04,822.00 L343.20,822.00 L343.26,812.75 C343.34,803.17 341.77,796.00 339.60,796.00 C338.91,796.00 337.29,797.12 336.00,798.50 C332.96,801.73 328.00,801.98 328.00,798.90 C328.00,796.09 330.67,790.61 333.12,788.39 C335.04,786.65 335.17,786.69 337.39,789.46 C338.65,791.04 339.93,791.92 340.24,791.42 C341.53,789.31 343.13,759.18 342.83,742.50 L342.50,724.50 L331.59,724.21 C325.58,724.06 320.26,724.34 319.75,724.85 C318.57,726.03 316.52,819.37 317.46,829.37 C318.13,836.52 318.29,836.90 320.83,837.32 C322.30,837.56 332.63,837.70 343.79,837.63 C360.64,837.52 364.24,837.25 365.02,836.00 Z M418.07,836.96 C419.61,836.14 420.00,834.85 420.00,830.54 C420.00,822.75 418.90,822.00 407.56,822.00 L398.26,822.00 L397.81,811.25 C397.38,801.13 396.11,796.00 394.02,796.00 C393.51,796.00 391.89,797.12 390.41,798.50 C387.41,801.27 383.25,801.80 382.37,799.52 C381.62,797.56 385.70,789.23 388.03,787.99 C389.48,787.21 390.29,787.55 391.91,789.61 L393.96,792.22 L395.05,789.37 C395.65,787.80 396.39,779.31 396.69,770.51 C397.07,759.41 397.78,752.81 398.98,749.00 C401.45,741.19 401.48,714.77 399.05,693.16 C397.41,678.56 397.36,676.16 398.62,671.89 C400.65,665.06 399.01,659.08 393.52,653.36 L389.34,649.00 L376.74,649.00 L364.14,649.00 L363.47,643.57 C363.09,640.59 363.00,636.20 363.26,633.82 C363.52,631.44 364.32,623.54 365.04,616.25 L366.34,603.00 L376.48,603.00 C389.96,603.00 390.17,602.82 389.79,591.98 L389.50,583.50 L376.50,583.22 L363.50,582.95 L363.50,570.72 C363.50,558.86 363.43,558.49 361.28,558.18 C358.24,557.75 354.00,552.44 354.00,549.06 C354.00,545.63 357.47,541.00 360.04,541.00 C361.09,541.00 364.02,542.46 366.55,544.25 C370.87,547.30 371.68,547.50 379.33,547.43 C383.82,547.40 388.50,546.83 389.72,546.17 C392.37,544.73 394.23,538.59 393.80,532.70 C393.53,528.95 393.19,528.44 390.50,527.87 C388.85,527.52 375.69,527.18 361.25,527.12 C336.60,527.01 335.00,527.11 335.00,528.80 C335.00,529.79 334.49,531.11 333.86,531.74 C333.04,532.56 332.57,548.39 332.22,587.19 C331.71,643.44 332.27,663.62 334.45,666.60 C335.48,668.01 338.82,668.58 352.61,669.71 C361.90,670.47 370.04,671.27 370.71,671.50 C372.47,672.09 377.00,681.49 377.00,684.53 C377.00,685.96 376.44,688.11 375.75,689.32 C374.90,690.81 374.47,696.90 374.40,708.50 C374.35,717.85 373.78,735.17 373.14,747.00 C372.50,758.83 372.10,783.78 372.24,802.46 L372.50,836.41 L375.00,837.11 C379.08,838.24 415.91,838.12 418.07,836.96 Z M883.83,837.13 C885.59,836.01 886.93,825.08 886.97,811.40 C887.01,795.37 888.03,785.00 889.55,785.00 C891.01,785.00 891.92,796.88 892.27,820.50 L892.50,835.50 L904.61,835.78 L916.72,836.06 L916.70,833.28 C916.70,831.75 917.21,820.60 917.84,808.50 C919.11,783.93 919.31,766.82 918.38,762.13 C917.86,759.54 917.09,758.83 913.82,757.95 C906.37,755.95 903.98,750.84 908.05,745.66 C909.18,744.22 911.88,742.57 914.05,741.99 L918.00,740.92 L918.00,733.96 C918.00,723.95 916.83,723.00 904.57,723.00 C892.62,723.00 892.00,723.51 892.00,733.32 C891.99,743.44 890.04,763.05 888.82,765.34 C886.70,769.29 886.03,764.36 886.02,744.79 C886.00,721.56 886.85,723.00 873.09,723.00 C864.73,723.00 863.93,723.18 862.52,725.32 C861.29,727.21 860.88,733.24 860.34,757.28 L859.69,786.91 L863.00,788.71 C867.40,791.09 870.22,793.85 869.74,795.31 C869.52,795.97 867.49,797.76 865.21,799.29 C862.08,801.40 860.89,802.98 860.30,805.79 C859.30,810.62 859.35,834.69 860.37,835.71 C861.90,837.24 881.76,838.44 883.83,837.13 Z M300.50,835.50 C312.18,834.32 311.38,835.13 310.68,825.19 C308.65,796.17 301.20,726.88 299.98,725.61 C299.48,725.10 297.75,725.87 295.89,727.44 C292.96,729.90 292.07,730.12 286.08,729.78 C282.46,729.57 278.64,729.01 277.59,728.53 C275.73,727.69 275.70,728.13 276.35,742.58 C276.72,750.79 277.44,761.33 277.96,766.00 C278.47,770.67 279.37,779.67 279.96,786.00 C284.61,835.84 285.03,837.72 291.40,836.64 C293.11,836.34 297.20,835.83 300.50,835.50 Z M852.68,834.80 C853.39,834.24 853.65,832.43 853.33,830.19 C852.29,822.93 844.99,779.24 842.52,765.50 C841.14,757.80 840.01,749.79 840.00,747.69 C840.00,744.05 840.23,743.79 845.42,741.49 C851.19,738.94 852.48,736.99 851.46,732.34 C850.19,726.49 848.89,725.00 845.07,725.00 C843.10,725.00 839.91,725.46 837.99,726.01 C836.07,726.57 827.76,728.17 819.51,729.57 C811.27,730.97 803.39,732.66 802.01,733.32 C798.93,734.79 798.33,738.46 800.37,743.34 C801.74,746.62 802.21,746.91 806.67,747.19 C810.67,747.45 811.68,747.92 812.67,750.00 C814.12,753.08 819.12,778.11 822.49,799.18 C823.87,807.80 825.41,815.95 825.92,817.28 C826.42,818.62 828.38,820.61 830.25,821.72 C832.91,823.29 833.96,824.81 834.99,828.62 C837.28,837.09 837.16,837.00 844.76,836.32 C848.47,836.00 852.03,835.31 852.68,834.80 Z M269.09,834.75 C269.48,829.25 268.10,818.74 262.90,787.54 C259.60,767.77 257.04,749.77 257.20,747.54 C257.48,743.79 257.86,743.32 262.50,741.00 C267.00,738.75 267.53,738.13 267.81,734.81 C267.98,732.78 267.40,729.74 266.53,728.06 C265.21,725.51 264.35,725.00 261.37,725.00 C259.40,725.00 255.25,725.65 252.14,726.44 C249.04,727.24 240.82,728.80 233.88,729.92 C226.94,731.04 220.01,732.42 218.49,733.00 C215.82,734.02 215.74,734.24 216.31,739.67 C216.62,742.76 217.36,745.76 217.94,746.34 C218.53,746.93 220.99,747.28 223.43,747.13 C227.02,746.91 228.06,747.24 228.94,748.89 C230.35,751.52 233.19,765.41 237.57,791.00 C242.03,817.14 242.23,817.81 246.73,822.04 C249.00,824.17 251.24,827.66 252.35,830.79 L254.20,836.00 L261.60,836.00 C266.81,836.00 269.03,835.63 269.09,834.75 Z M1010.44,833.78 C1011.74,831.92 1012.00,827.73 1012.00,808.28 C1012.00,793.83 1012.37,785.00 1012.97,785.00 C1015.67,785.00 1017.11,791.61 1018.36,809.77 C1019.07,820.07 1020.19,829.50 1020.85,830.73 C1022.75,834.27 1025.24,835.00 1035.43,835.00 L1045.00,835.00 L1044.96,827.75 C1044.95,823.76 1044.52,814.63 1044.03,807.46 C1042.98,792.31 1040.64,784.71 1035.41,779.47 C1033.53,777.60 1032.00,775.86 1032.00,775.61 C1032.00,775.37 1033.54,774.21 1035.43,773.04 C1040.83,769.70 1043.00,764.07 1043.00,753.33 C1043.00,739.25 1040.02,733.18 1030.83,728.60 C1025.80,726.09 1024.97,726.00 1008.05,726.02 C998.40,726.02 989.84,726.45 989.03,726.96 C987.81,727.73 987.50,733.15 987.17,759.78 L986.76,791.67 L990.43,796.48 C994.82,802.23 994.75,804.38 990.15,804.82 L986.81,805.14 L987.15,818.42 C987.39,827.52 987.92,832.20 988.82,833.29 C990.28,835.04 993.31,835.60 1002.69,835.84 C1008.06,835.98 1009.09,835.70 1010.44,833.78 Z M196.35,833.06 C201.22,831.93 204.72,828.72 207.32,823.00 C208.98,819.33 209.37,816.39 209.40,807.00 C209.44,795.80 209.36,795.34 206.05,789.19 C204.19,785.72 198.71,778.30 193.88,772.69 C183.17,760.24 181.09,756.80 182.94,754.58 C184.99,752.10 186.00,752.71 186.00,756.44 C186.00,758.33 186.34,760.08 186.75,760.33 C187.16,760.58 192.22,760.94 198.00,761.14 L208.50,761.50 L208.21,754.00 C207.38,732.02 203.60,725.31 191.17,723.72 C188.78,723.42 186.61,722.94 186.33,722.67 C186.06,722.39 185.43,716.61 184.95,709.83 C184.47,703.05 183.63,693.50 183.08,688.61 C182.29,681.50 182.38,679.04 183.50,676.36 C184.27,674.51 185.26,672.99 185.70,672.97 C186.14,672.95 187.40,672.26 188.50,671.43 C190.31,670.07 190.55,668.42 191.00,654.42 C191.40,642.14 191.81,638.72 193.00,637.95 C193.82,637.42 197.18,637.10 200.45,637.24 L206.40,637.50 L207.68,646.50 C209.49,659.11 211.66,668.17 213.09,669.06 C214.52,669.94 220.67,670.67 234.40,671.59 L244.30,672.26 L243.60,664.58 C243.22,660.36 241.86,653.22 240.58,648.70 C237.23,636.88 236.36,632.96 234.01,619.09 C231.57,604.76 230.85,603.00 227.42,603.00 C223.73,603.00 217.08,599.28 215.82,596.50 C213.88,592.24 216.60,585.37 222.75,579.03 L228.11,573.50 L226.99,567.00 C225.46,558.14 221.22,540.11 219.89,536.80 C218.50,533.35 214.35,532.65 198.43,533.15 C184.14,533.60 183.76,533.92 182.02,546.73 C180.65,556.76 179.27,564.93 175.15,587.50 C173.54,596.30 171.47,608.45 170.54,614.50 C167.09,637.06 163.45,650.76 157.45,663.80 L154.09,671.09 L157.53,677.35 L160.97,683.61 L160.47,705.92 C159.98,728.18 159.97,728.23 157.51,730.17 C151.89,734.59 152.23,745.52 158.08,748.54 C161.97,750.56 161.77,752.78 157.52,754.56 C151.61,757.03 151.81,761.48 158.15,768.78 C160.83,771.88 161.00,772.60 161.00,781.13 C161.00,789.41 160.82,790.23 158.96,790.72 C155.25,791.69 154.00,796.03 154.00,807.98 C154.00,815.03 154.49,820.24 155.35,822.30 C157.02,826.29 163.10,831.77 166.77,832.57 C168.27,832.90 169.95,833.33 170.50,833.51 C172.70,834.24 192.75,833.90 196.35,833.06 Z M322.13,832.66 C321.42,831.80 321.00,830.29 321.21,829.30 C321.54,827.72 321.74,827.78 322.86,829.81 C324.45,832.69 323.91,834.80 322.13,832.66 Z M376.09,831.60 C375.45,830.00 375.12,828.20 375.35,827.60 C375.58,826.99 376.28,827.81 376.91,829.40 C377.55,831.00 377.88,832.80 377.65,833.40 C377.42,834.01 376.72,833.19 376.09,831.60 Z M325.64,828.50 C325.30,827.62 325.62,827.00 326.41,827.00 C327.15,827.00 328.32,827.67 329.00,828.50 C330.04,829.75 329.91,830.00 328.23,830.00 C327.12,830.00 325.95,829.33 325.64,828.50 Z M324.08,819.42 C324.13,818.25 324.36,818.01 324.68,818.81 C324.97,819.53 324.94,820.40 324.60,820.73 C324.27,821.06 324.04,820.47 324.08,819.42 Z M177.46,813.56 C176.67,811.67 175.73,806.83 175.38,802.81 C174.59,794.02 173.75,792.16 169.92,790.82 C167.16,789.86 167.00,789.50 167.00,784.18 L167.00,778.56 L173.53,785.03 C184.14,795.53 185.30,797.68 184.84,805.90 C184.55,810.89 183.91,813.44 182.57,814.93 C179.99,817.78 179.13,817.55 177.46,813.56 Z M941.50,812.00 C941.16,811.45 941.56,811.00 942.38,811.00 C943.21,811.00 944.16,811.45 944.50,812.00 C944.84,812.55 944.44,813.00 943.62,813.00 C942.79,813.00 941.84,812.55 941.50,812.00 Z M1068.00,812.00 C1068.00,810.75 1069.06,810.75 1071.00,812.00 C1072.21,812.78 1072.07,812.97 1070.25,812.98 C1069.01,812.99 1068.00,812.55 1068.00,812.00 Z M338.00,803.06 C338.00,801.93 338.45,801.00 339.00,801.00 C339.55,801.00 340.00,801.65 340.00,802.44 C340.00,803.23 339.55,804.16 339.00,804.50 C338.45,804.84 338.00,804.19 338.00,803.06 Z M933.00,796.85 C933.00,792.15 932.71,784.75 932.36,780.40 C932.01,776.06 931.98,772.74 932.30,773.03 C933.51,774.11 935.14,803.26 934.05,804.35 C933.32,805.08 933.00,802.83 933.00,796.85 Z M392.67,803.33 C391.71,802.38 391.84,801.00 392.89,801.00 C393.38,801.00 394.05,801.67 394.36,802.50 C394.95,804.02 393.88,804.55 392.67,803.33 Z M1060.58,803.13 C1059.73,801.76 1058.64,773.42 1059.46,774.18 C1060.07,774.75 1061.89,804.00 1061.31,804.00 C1061.20,804.00 1060.88,803.61 1060.58,803.13 Z M1013.62,765.46 C1013.28,764.57 1013.00,758.92 1013.00,752.92 C1013.00,743.80 1013.25,742.00 1014.52,742.00 C1015.36,742.00 1016.49,743.15 1017.02,744.57 C1018.11,747.42 1018.18,760.16 1017.12,763.93 C1016.30,766.87 1014.47,767.68 1013.62,765.46 Z M691.93,759.91 C671.36,756.79 655.55,731.78 646.94,688.74 C645.76,682.82 645.04,676.97 645.36,675.74 C645.67,674.51 647.23,671.93 648.84,670.02 L651.75,666.54 L652.47,675.02 C655.15,706.34 665.86,732.38 680.34,742.78 C686.75,747.38 692.37,749.15 700.67,749.19 C707.73,749.22 707.88,749.28 710.37,752.78 C711.77,754.74 712.72,756.65 712.48,757.03 C712.13,757.59 704.27,759.41 698.00,760.37 C697.17,760.50 694.44,760.29 691.93,759.91 Z M535.50,759.57 C534.95,759.35 533.26,758.90 531.75,758.57 C528.25,757.80 528.28,756.27 531.88,752.43 C534.46,749.69 535.43,749.35 541.06,749.19 C565.52,748.52 583.47,720.14 587.53,675.75 C587.92,671.49 588.58,668.00 589.00,668.00 C590.37,668.00 595.00,674.81 595.00,676.83 C595.00,677.90 594.08,683.45 592.95,689.14 C587.49,716.65 579.40,736.22 568.81,747.54 C560.49,756.44 554.84,759.25 544.50,759.65 C540.10,759.82 536.05,759.78 535.50,759.57 Z M936.67,750.33 C936.30,749.97 936.03,748.73 936.06,747.58 C936.12,745.67 936.20,745.69 937.08,747.90 C938.06,750.34 937.86,751.53 936.67,750.33 Z M1063.16,749.00 C1063.16,747.62 1063.38,747.06 1063.66,747.75 C1063.94,748.44 1063.94,749.56 1063.66,750.25 C1063.38,750.94 1063.16,750.38 1063.16,749.00 Z M608.06,745.57 C606.25,743.39 607.64,742.00 611.63,742.00 C614.70,742.00 615.10,741.72 614.82,739.75 C614.60,738.18 613.48,737.20 611.14,736.51 L607.79,735.53 L608.39,723.26 C610.43,681.99 610.03,685.79 612.37,686.42 C613.54,686.73 615.51,687.27 616.75,687.61 L619.00,688.23 L619.00,613.12 C619.00,541.39 618.92,538.00 617.20,538.00 C616.20,538.00 613.06,536.84 610.21,535.42 C597.12,528.90 591.17,513.99 596.25,500.50 C599.40,492.15 604.77,487.12 613.95,483.91 L618.50,482.33 L619.00,359.41 L619.50,236.50 L622.50,236.50 L625.50,236.50 L626.00,359.35 L626.50,482.20 L631.00,483.72 C644.66,488.33 652.33,501.16 650.00,515.49 C648.43,525.16 642.30,532.47 632.40,536.50 L626.50,538.90 L626.50,613.18 L626.50,687.46 L630.64,687.16 L634.77,686.86 L635.37,696.68 C635.69,702.08 636.23,712.63 636.57,720.12 L637.19,733.74 L633.35,735.62 C630.91,736.81 629.39,738.30 629.19,739.69 C628.91,741.61 629.40,741.92 633.19,742.19 C636.73,742.44 637.50,742.86 637.50,744.50 C637.50,746.39 636.74,746.51 623.39,746.78 C611.91,747.00 609.06,746.78 608.06,745.57 Z M330.02,741.25 C330.01,739.46 330.45,738.00 331.00,738.00 C332.27,738.00 332.27,741.03 331.00,743.00 C330.26,744.14 330.03,743.72 330.02,741.25 Z M384.00,741.00 C384.00,739.35 384.45,738.00 385.00,738.00 C385.55,738.00 386.00,739.35 386.00,741.00 C386.00,742.65 385.55,744.00 385.00,744.00 C384.45,744.00 384.00,742.65 384.00,741.00 Z M677.34,731.15 C670.02,721.85 664.05,706.17 660.95,688.15 C658.23,672.35 658.37,669.05 662.00,663.16 C673.83,643.92 684.77,602.99 691.49,552.75 L692.12,548.00 L697.47,548.00 L702.82,548.00 L702.66,567.75 C702.51,586.39 702.62,587.73 704.72,591.64 C707.51,596.87 713.86,602.36 718.74,603.76 C720.81,604.35 726.21,605.14 730.75,605.52 C740.53,606.34 740.28,605.69 736.52,620.51 C732.01,638.29 726.13,650.16 716.40,661.11 C708.69,669.79 708.70,668.56 716.16,692.35 C718.89,701.07 720.99,708.29 720.81,708.40 C720.64,708.50 716.16,709.30 710.86,710.17 C697.77,712.31 692.61,715.02 687.98,722.16 C685.97,725.27 683.74,729.21 683.04,730.91 C681.48,734.68 680.16,734.73 677.34,731.15 Z M555.97,725.34 C553.51,721.17 550.43,716.91 549.11,715.87 C545.88,713.33 535.94,710.37 527.70,709.48 C521.42,708.81 520.98,708.61 521.55,706.63 C521.88,705.46 524.11,698.42 526.49,691.00 C533.55,669.02 533.61,669.84 524.26,659.50 C515.22,649.49 505.53,627.01 503.43,611.16 L502.78,606.29 L512.59,605.57 C528.51,604.40 534.88,601.02 539.73,591.15 C542.50,585.50 542.50,585.50 542.20,566.75 L541.90,548.00 L545.90,548.00 C549.65,548.00 549.94,548.21 550.43,551.25 C550.72,553.04 551.90,560.80 553.06,568.50 C558.94,607.56 567.78,640.02 577.88,659.65 L581.92,667.50 L580.94,675.91 C579.73,686.22 577.53,697.24 574.84,706.50 C572.46,714.67 565.90,727.81 562.68,730.83 L560.45,732.93 L555.97,725.34 Z M387.60,731.16 C387.25,730.60 387.45,729.84 388.05,729.47 C389.59,728.52 390.58,729.82 389.30,731.10 C388.58,731.82 388.02,731.84 387.60,731.16 Z M333.00,730.00 C333.00,729.45 333.68,729.00 334.50,729.00 C335.32,729.00 336.00,729.45 336.00,730.00 C336.00,730.55 335.32,731.00 334.50,731.00 C333.68,731.00 333.00,730.55 333.00,730.00 Z M320.00,729.06 C320.00,728.54 320.45,727.84 321.00,727.50 C321.55,727.16 322.00,727.58 322.00,728.44 C322.00,729.30 321.55,730.00 321.00,730.00 C320.45,730.00 320.00,729.58 320.00,729.06 Z M164.81,716.78 C164.59,712.22 164.78,706.70 165.23,704.50 C165.67,702.30 166.43,697.76 166.91,694.40 C167.38,691.05 168.29,687.33 168.92,686.15 C170.52,683.15 173.66,683.45 175.37,686.75 C177.12,690.13 178.99,704.85 179.00,715.20 L179.00,722.91 L175.25,723.50 C173.19,723.83 170.09,724.31 168.36,724.57 L165.21,725.05 L164.81,716.78 Z M380.46,715.38 C379.76,706.91 380.00,702.71 381.90,690.18 C383.00,682.97 384.24,681.00 387.65,681.00 C389.30,681.00 390.35,681.79 391.02,683.55 C392.40,687.17 395.00,709.19 395.00,717.22 L395.00,724.00 L388.09,724.00 L381.18,724.00 L380.46,715.38 Z M957.24,718.34 C955.27,717.54 956.78,716.13 958.99,716.71 C960.08,716.99 960.73,717.63 960.43,718.11 C959.84,719.07 959.19,719.12 957.24,718.34 Z M1083.50,718.00 C1083.16,717.45 1083.81,717.00 1084.94,717.00 C1086.07,717.00 1087.00,717.45 1087.00,718.00 C1087.00,718.55 1086.35,719.00 1085.56,719.00 C1084.77,719.00 1083.84,718.55 1083.50,718.00 Z M1049.42,694.56 C1049.72,693.43 1049.98,691.66 1049.99,690.63 C1050.00,689.05 1049.75,688.96 1048.46,690.04 C1047.29,691.00 1046.63,691.03 1045.76,690.16 C1043.06,687.46 1037.00,689.43 1037.00,693.00 C1037.00,695.73 1038.98,696.77 1044.02,696.69 C1048.03,696.63 1048.96,696.27 1049.42,694.56 Z M1063.05,692.50 C1062.97,691.02 1060.74,691.29 1060.22,692.85 C1059.94,693.69 1060.39,694.06 1061.44,693.85 C1062.36,693.66 1063.08,693.05 1063.05,692.50 Z M1093.81,686.92 C1093.61,686.33 1093.02,685.85 1092.50,685.85 C1091.98,685.85 1091.39,686.33 1091.19,686.92 C1090.99,687.52 1091.58,688.00 1092.50,688.00 C1093.42,688.00 1094.01,687.52 1093.81,686.92 Z M281.13,685.35 C282.20,684.06 282.61,677.10 283.00,653.85 C283.29,636.42 283.89,623.89 284.44,623.75 C284.96,623.61 286.21,624.91 287.22,626.63 C289.08,629.82 289.81,635.81 291.95,665.26 C293.00,679.79 293.68,682.21 297.27,684.17 C299.92,685.60 322.78,686.64 323.98,685.38 C325.30,683.98 322.36,636.16 320.66,631.40 C318.06,624.13 314.79,618.58 311.10,615.19 C307.93,612.28 307.70,611.76 309.20,610.92 C313.07,608.73 317.22,604.50 319.29,600.62 C321.26,596.95 321.50,595.03 321.48,583.00 C321.47,570.87 321.23,569.02 319.12,564.74 C316.44,559.32 312.92,556.04 305.61,552.21 C300.78,549.67 299.62,549.51 284.50,549.22 C275.70,549.06 265.12,549.28 261.00,549.71 L253.50,550.50 L252.86,560.00 C252.50,565.23 251.88,583.26 251.46,600.09 L250.71,630.67 L255.35,636.37 C258.55,640.30 260.00,643.00 260.00,645.04 C260.00,647.84 259.78,648.00 255.92,648.00 L251.83,648.00 L252.17,664.97 C252.54,683.73 252.79,684.50 259.14,686.00 C260.99,686.44 266.38,686.84 271.13,686.90 C278.02,686.98 280.03,686.67 281.13,685.35 Z M1040.53,681.37 C1042.52,679.11 1044.57,677.86 1046.53,677.72 C1049.20,677.52 1049.53,677.82 1049.81,680.75 C1049.99,682.54 1050.53,684.00 1051.03,684.00 C1051.52,684.00 1053.72,682.09 1055.91,679.75 L1059.88,675.50 L1064.42,679.94 C1066.92,682.38 1069.25,684.09 1069.60,683.74 C1069.95,683.38 1069.44,680.88 1068.46,678.17 C1066.26,672.04 1066.90,669.85 1070.71,670.53 C1073.03,670.95 1073.96,670.42 1076.23,667.38 C1078.88,663.83 1078.91,663.66 1077.26,660.87 C1076.33,659.29 1075.33,657.99 1075.03,657.98 C1074.74,657.97 1073.41,657.12 1072.07,656.09 L1069.65,654.23 L1073.32,649.93 C1077.95,644.53 1078.16,642.70 1074.00,644.15 C1072.35,644.73 1070.75,645.60 1070.44,646.10 C1069.52,647.58 1066.26,647.12 1065.61,645.42 C1065.27,644.55 1065.00,642.51 1065.00,640.89 C1065.00,637.16 1062.84,632.00 1060.39,629.85 C1059.35,628.94 1056.05,627.47 1053.06,626.59 C1050.06,625.71 1047.26,624.43 1046.82,623.75 C1045.21,621.20 1046.08,618.11 1049.14,615.54 C1051.71,613.38 1053.10,612.96 1056.89,613.20 C1060.80,613.45 1061.55,613.84 1061.82,615.75 C1062.39,619.79 1067.00,617.71 1067.00,613.41 C1067.00,611.08 1064.90,609.72 1062.64,610.58 C1061.52,611.02 1061.20,605.20 1060.79,577.11 C1060.38,548.33 1060.06,542.74 1058.72,540.69 C1057.59,538.97 1057.44,537.96 1058.20,537.20 C1058.79,536.61 1058.99,535.43 1058.66,534.57 C1058.16,533.27 1056.07,533.00 1046.28,533.02 C1033.39,533.03 1030.14,533.95 1033.50,536.63 C1034.87,537.73 1035.11,538.38 1034.26,538.69 C1033.58,538.95 1032.11,539.91 1031.00,540.83 C1029.03,542.45 1028.93,544.08 1027.98,591.50 C1027.11,635.30 1026.36,648.00 1024.46,651.07 C1024.14,651.58 1023.04,652.00 1022.01,652.00 C1019.07,652.00 1018.78,645.98 1019.16,591.10 L1019.50,540.83 L1017.14,538.92 C1015.84,537.86 1013.14,536.94 1011.14,536.87 L1007.50,536.74 L1011.00,536.07 C1014.36,535.44 1014.26,535.38 1008.79,534.64 C1001.89,533.70 994.52,534.67 992.81,536.73 C991.88,537.85 991.30,549.60 990.56,581.87 C989.02,650.04 989.05,651.54 992.43,658.44 C994.51,662.71 996.42,664.94 999.77,667.07 C1007.95,672.26 1013.25,673.51 1026.75,673.43 C1036.36,673.38 1039.00,673.66 1039.00,674.71 C1039.00,675.45 1037.73,676.30 1036.19,676.61 C1034.22,677.01 1033.02,678.10 1032.21,680.26 C1029.81,686.62 1035.25,687.34 1040.53,681.37 Z M962.00,680.77 C966.82,679.10 969.81,677.22 973.56,673.51 C981.41,665.72 981.52,664.99 981.36,621.00 C981.22,580.34 979.88,558.62 977.18,553.02 C971.13,540.48 945.01,534.85 928.19,542.47 C921.16,545.65 914.54,552.24 913.47,557.14 C912.64,560.93 913.56,561.92 915.59,559.43 C917.14,557.53 917.15,557.53 916.50,559.50 C912.35,571.92 912.00,575.80 912.08,607.91 C912.12,625.28 912.47,646.11 912.84,654.19 C913.43,666.84 913.81,669.28 915.60,671.69 C918.62,675.78 924.73,678.82 934.18,680.95 C945.81,683.58 954.05,683.52 962.00,680.77 Z M1087.50,680.93 C1087.50,680.16 1086.71,679.38 1085.75,679.19 C1084.03,678.86 1083.31,680.98 1084.69,682.35 C1085.74,683.40 1087.50,682.51 1087.50,680.93 Z M965.00,674.00 C966.92,672.38 968.78,671.04 969.11,671.03 C969.45,671.01 970.98,669.19 972.51,666.98 C974.04,664.77 975.51,663.17 975.76,663.43 C976.75,664.42 971.70,671.05 967.75,673.95 C962.46,677.85 960.39,677.88 965.00,674.00 Z M920.86,671.94 L918.50,669.88 L921.25,671.56 C922.76,672.48 924.00,673.40 924.00,673.62 C924.00,674.40 923.16,673.95 920.86,671.94 Z M874.12,670.28 C874.80,669.60 875.70,657.93 876.49,639.34 C877.89,606.51 878.54,603.01 885.49,590.50 C894.72,573.87 899.57,562.68 902.44,551.36 C904.61,542.80 904.41,539.80 901.32,535.09 L898.64,531.00 L890.57,531.00 C884.29,531.01 881.78,531.45 879.25,532.99 C877.46,534.08 876.00,535.13 876.00,535.33 C876.00,535.53 874.64,539.47 872.99,544.10 C868.66,556.16 862.71,569.11 861.89,568.24 C861.51,567.84 860.01,563.67 858.56,559.00 C851.95,537.67 848.45,532.00 841.86,532.00 C837.13,532.00 835.00,533.64 834.99,537.29 C834.99,542.41 833.21,547.47 829.99,551.52 C825.09,557.68 825.59,560.54 837.65,595.00 L843.42,611.50 L843.80,640.69 L844.18,669.88 L849.34,670.44 C852.18,670.75 856.08,671.18 858.00,671.39 C863.93,672.05 872.97,671.43 874.12,670.28 Z M850.00,663.00 C850.00,662.45 850.45,662.00 851.00,662.00 C851.55,662.00 852.00,662.45 852.00,663.00 C852.00,663.55 851.55,664.00 851.00,664.00 C850.45,664.00 850.00,663.55 850.00,663.00 Z M860.00,663.00 C860.00,662.45 860.65,662.00 861.44,662.00 C862.23,662.00 863.16,662.45 863.50,663.00 C863.84,663.55 863.19,664.00 862.06,664.00 C860.93,664.00 860.00,663.55 860.00,663.00 Z M353.03,658.04 C351.76,657.24 351.79,657.02 353.23,656.47 C355.07,655.76 357.00,656.58 357.00,658.06 C357.00,659.26 354.94,659.25 353.03,658.04 Z M1016.07,655.27 C1013.13,651.70 1012.14,649.00 1013.77,649.00 C1014.20,649.00 1015.38,650.55 1016.40,652.44 C1017.42,654.33 1018.87,656.12 1019.63,656.41 C1020.38,656.70 1021.00,657.40 1021.00,657.97 C1021.00,659.99 1019.10,658.95 1016.07,655.27 Z M942.44,656.25 C942.01,655.29 941.36,643.13 940.99,629.24 C940.62,615.35 940.01,603.68 939.65,603.31 C939.28,602.95 937.72,603.85 936.18,605.32 C931.71,609.61 929.00,608.53 929.00,602.45 C929.00,599.91 931.54,598.00 934.93,598.00 C939.24,598.00 941.00,594.64 941.00,586.44 C941.00,582.28 940.61,579.12 940.13,579.42 C939.24,579.97 938.03,574.56 938.01,569.90 C938.00,566.88 940.77,564.00 943.69,564.00 C946.75,564.00 950.63,568.49 951.89,573.47 C955.03,585.96 951.36,647.85 946.99,656.03 C945.68,658.47 943.47,658.58 942.44,656.25 Z M1001.28,652.75 C1000.75,652.06 1000.01,650.65 999.63,649.61 C999.05,647.98 999.17,647.90 1000.53,649.03 C1002.61,650.76 1004.33,654.00 1003.16,654.00 C1002.66,654.00 1001.81,653.44 1001.28,652.75 Z M342.67,640.93 C341.71,628.64 341.86,613.21 342.93,612.54 C343.97,611.90 344.89,644.28 343.92,647.43 C343.59,648.49 343.03,645.56 342.67,640.93 Z M960.00,646.06 C960.00,644.99 960.45,643.84 961.00,643.50 C961.57,643.15 962.00,643.99 962.00,645.44 C962.00,646.85 961.55,648.00 961.00,648.00 C960.45,648.00 960.00,647.13 960.00,646.06 Z M1046.54,634.07 C1045.86,632.96 1047.44,631.77 1048.36,632.69 C1049.31,633.64 1049.13,635.00 1048.06,635.00 C1047.54,635.00 1046.86,634.58 1046.54,634.07 Z M1054.67,632.33 C1053.45,631.12 1053.98,630.05 1055.50,630.64 C1056.33,630.95 1057.00,631.62 1057.00,632.11 C1057.00,633.16 1055.62,633.29 1054.67,632.33 Z M936.75,627.12 C936.34,625.27 936.05,620.99 936.11,617.62 L936.22,611.50 L937.16,616.40 C937.68,619.10 937.96,623.37 937.80,625.90 C937.50,630.47 937.50,630.48 936.75,627.12 Z M926.00,624.49 C924.97,621.78 925.61,617.00 927.00,617.00 C928.95,617.00 929.83,625.37 928.00,626.50 C927.45,626.84 926.55,625.94 926.00,624.49 Z M303.46,616.93 C303.10,616.35 303.04,615.63 303.33,615.33 C304.05,614.62 306.00,615.88 306.00,617.06 C306.00,618.34 304.27,618.25 303.46,616.93 Z M1093.43,614.89 C1092.58,613.51 1090.00,613.84 1090.00,615.33 C1090.00,616.07 1090.30,616.96 1090.66,617.32 C1091.56,618.23 1094.11,615.99 1093.43,614.89 Z M200.38,611.56 C199.34,608.85 201.06,590.36 202.17,592.34 C203.68,595.04 203.75,612.21 202.25,612.73 C201.56,612.97 200.72,612.44 200.38,611.56 Z M285.00,585.56 C285.00,576.82 285.41,569.86 285.96,569.53 C286.48,569.20 287.72,570.17 288.71,571.67 C292.56,577.56 290.78,601.00 286.47,601.00 C285.24,601.00 285.00,598.49 285.00,585.56 Z M494.13,596.33 C493.58,594.23 492.68,590.70 492.12,588.50 C487.78,571.35 485.56,534.31 486.44,493.50 C486.80,477.00 487.35,461.98 487.68,460.12 L488.27,456.73 L503.39,457.43 C511.70,457.81 520.28,458.58 522.46,459.15 C527.62,460.51 533.52,466.42 534.81,471.54 C535.43,474.00 535.70,496.47 535.54,531.04 C535.25,591.88 535.38,590.49 529.27,594.78 C524.93,597.82 520.42,598.79 507.31,599.51 L495.12,600.17 L494.13,596.33 Z M730.00,599.02 C721.22,598.31 718.19,597.28 714.15,593.63 C708.73,588.71 708.86,590.29 708.81,528.95 L708.76,472.09 L711.37,467.63 C715.89,459.92 718.53,458.95 738.66,457.61 C754.20,456.58 756.31,456.62 756.86,457.97 C758.14,461.08 757.56,555.09 756.20,565.00 C754.40,578.12 751.19,594.49 749.82,597.50 C748.55,600.29 747.09,600.40 730.00,599.02 Z M928.70,581.65 C928.41,580.91 928.53,577.88 928.97,574.90 L929.75,569.50 L929.88,576.25 C930.00,582.92 929.70,584.28 928.70,581.65 Z M346.60,579.41 C345.71,577.09 345.87,574.80 346.88,575.43 C348.14,576.20 348.96,579.90 348.01,580.49 C347.57,580.77 346.94,580.28 346.60,579.41 Z M514.79,574.06 C518.37,570.48 519.35,566.21 517.72,561.35 C516.19,556.77 512.54,554.00 507.82,553.82 C499.89,553.52 495.00,558.17 495.00,566.00 C495.00,569.44 495.61,570.81 498.40,573.60 C501.36,576.56 502.44,577.00 506.82,577.00 C511.05,577.00 512.31,576.53 514.79,574.06 Z M740.78,575.44 C746.11,571.71 747.41,564.39 743.72,558.90 C739.56,552.71 730.53,552.01 725.09,557.45 C722.92,559.62 722.50,560.96 722.50,565.60 C722.50,570.62 722.82,571.45 725.77,574.08 C728.41,576.44 729.95,577.00 733.79,577.00 C736.49,577.00 739.52,576.32 740.78,575.44 Z M504.00,574.29 C493.72,570.51 496.52,556.00 507.53,556.00 C510.92,556.00 516.00,561.01 516.00,564.36 C516.00,568.90 514.13,572.05 510.54,573.55 C506.84,575.10 506.34,575.15 504.00,574.29 Z M730.36,574.05 C724.49,571.58 723.21,563.63 727.92,558.92 C731.65,555.20 735.76,555.08 739.92,558.59 C747.64,565.08 739.66,577.97 730.36,574.05 Z M1002.62,567.88 C1001.74,563.46 1001.85,560.00 1002.87,560.00 C1003.70,560.00 1004.97,565.53 1004.99,569.25 C1005.01,572.19 1003.29,571.19 1002.62,567.88 Z M970.67,561.33 C970.30,560.97 970.00,560.20 970.00,559.63 C970.00,559.01 970.47,559.07 971.18,559.78 C971.83,560.43 972.13,561.20 971.85,561.48 C971.57,561.77 971.03,561.70 970.67,561.33 Z M929.00,548.11 C929.00,547.00 932.08,545.74 932.86,546.53 C933.18,546.85 932.78,547.53 931.97,548.04 C930.10,549.22 929.00,549.25 929.00,548.11 Z M1003.20,546.80 C1001.54,545.14 1001.70,542.33 1003.48,541.64 C1005.22,540.98 1007.42,544.45 1006.61,546.58 C1005.94,548.32 1004.79,548.39 1003.20,546.80 Z M995.00,543.47 C995.00,541.86 997.66,540.33 998.69,541.35 C999.40,542.06 997.14,545.00 995.88,545.00 C995.39,545.00 995.00,544.31 995.00,543.47 Z M1011.48,542.94 C1011.12,541.79 1011.05,540.61 1011.34,540.32 C1012.18,539.49 1014.00,540.98 1014.00,542.50 C1014.00,544.84 1012.18,545.15 1011.48,542.94 Z M844.07,541.59 C843.33,540.69 843.01,539.66 843.37,539.29 C844.31,538.36 846.31,540.58 845.83,542.02 C845.55,542.85 845.01,542.71 844.07,541.59 Z M371.50,539.00 C371.14,538.42 372.16,538.00 373.94,538.00 C375.62,538.00 377.00,538.45 377.00,539.00 C377.00,539.55 375.90,540.00 374.56,540.00 C373.22,540.00 371.84,539.55 371.50,539.00 Z M511.45,538.58 C515.91,536.72 518.33,532.85 518.33,527.58 C518.33,520.30 513.70,516.00 505.85,516.00 C502.58,516.00 501.15,516.65 498.40,519.40 C495.46,522.34 495.00,523.45 495.02,527.65 C495.05,533.09 496.82,536.03 501.50,538.44 C505.22,540.36 507.14,540.39 511.45,538.58 Z M742.10,536.41 C747.21,531.51 747.18,524.02 742.03,518.87 C736.55,513.40 726.03,515.68 723.00,522.99 C720.60,528.80 723.73,536.56 729.50,539.10 C733.02,540.64 739.01,539.36 742.10,536.41 Z M501.83,535.47 C495.72,532.15 496.19,522.56 502.61,519.52 C509.60,516.20 516.84,521.34 515.66,528.77 C514.56,535.68 508.04,538.84 501.83,535.47 Z M728.08,534.41 C725.62,532.34 725.00,531.04 725.00,527.97 C725.00,522.24 728.53,518.55 734.00,518.55 C739.47,518.55 743.00,522.24 743.00,527.97 C743.00,531.04 742.38,532.34 739.92,534.41 C738.19,535.87 735.60,537.00 734.00,537.00 C732.40,537.00 729.81,535.87 728.08,534.41 Z M512.84,501.59 C516.36,499.76 518.45,495.79 518.45,490.93 C518.45,485.92 515.42,481.89 510.29,480.08 C506.88,478.87 505.75,478.86 503.01,480.00 C497.49,482.28 495.00,485.80 495.00,491.34 C495.00,495.53 495.47,496.67 498.40,499.60 C501.17,502.37 502.56,503.00 505.95,503.00 C508.23,503.00 511.33,502.36 512.84,501.59 Z M740.78,501.44 C746.31,497.56 747.63,489.09 743.47,484.14 C738.41,478.14 730.26,477.90 724.90,483.61 C722.97,485.66 722.50,487.23 722.50,491.66 C722.50,496.61 722.83,497.46 725.77,500.08 C728.41,502.44 729.95,503.00 733.79,503.00 C736.49,503.00 739.52,502.32 740.78,501.44 Z M504.00,500.29 C493.72,496.51 496.52,482.00 507.53,482.00 C510.92,482.00 516.00,487.01 516.00,490.36 C516.00,494.90 514.13,498.05 510.54,499.55 C506.84,501.10 506.34,501.15 504.00,500.29 Z M731.27,500.32 C727.91,499.64 725.00,495.30 725.00,490.95 C725.00,487.96 725.64,486.64 728.08,484.59 C729.81,483.13 732.40,482.00 734.00,482.00 C735.60,482.00 738.19,483.13 739.92,484.59 C747.35,490.84 741.06,502.29 731.27,500.32 Z " fill="black" stroke="none"/>
</svg>
