<?xml version="1.0" standalone="no"?>
<!DOCTYPE svg PUBLIC "-//W3C//DTD SVG 1.1//EN" "http://www.w3.org/Graphics/SVG/1.1/DTD/svg11.dtd">
<svg width="1080" height="1080" viewBox="0 0 1080 1080" xmlns="http://www.w3.org/2000/svg" version="1.1">
<path d="M483.00,1013.53 C452.97,1009.66 444.61,1008.15 424.40,1003.00 C404.63,997.96 402.29,996.94 400.45,992.54 C399.64,990.60 396.27,973.82 392.96,955.25 C389.66,936.69 386.07,917.00 384.99,911.50 C383.91,906.00 380.58,887.77 377.58,871.00 C368.85,822.13 356.17,752.85 353.35,738.59 L352.77,735.67 L357.63,738.49 C369.33,745.25 451.46,799.59 525.53,849.58 C578.66,885.44 586.27,890.60 629.31,920.00 C683.77,957.20 714.24,978.50 716.40,980.89 C718.01,982.66 717.89,982.83 713.79,984.50 C683.69,996.75 634.04,1009.05 597.00,1013.44 C589.58,1014.32 580.22,1015.48 576.21,1016.02 C572.20,1016.56 555.32,1016.96 538.71,1016.91 C510.66,1016.83 506.67,1016.59 483.00,1013.53 Z M347.00,976.72 C293.18,950.58 268.70,935.34 232.00,905.14 C218.62,894.13 186.74,862.53 175.86,849.50 C158.08,828.21 141.55,805.16 128.03,782.82 C123.59,775.49 122.84,773.55 123.19,770.32 C123.51,767.34 129.88,757.04 152.12,723.50 C167.81,699.85 190.48,665.65 202.49,647.50 C214.51,629.35 235.29,597.96 248.67,577.75 C262.06,557.54 273.39,541.00 273.86,541.00 C274.85,541.00 276.59,548.91 281.55,576.00 C283.52,586.73 286.93,604.95 289.14,616.50 C291.35,628.05 295.60,650.77 298.58,667.00 C301.57,683.23 307.41,714.95 311.57,737.50 C318.42,774.67 322.46,796.83 334.99,866.00 C337.23,878.38 340.66,897.27 342.61,908.00 C348.57,940.84 354.97,977.43 354.99,978.75 C355.01,980.47 354.41,980.32 347.00,976.72 Z M762.42,958.53 C760.81,957.85 749.98,950.82 738.34,942.90 C717.11,928.46 691.94,911.45 660.06,890.00 C650.66,883.67 633.32,871.98 621.54,864.00 C609.75,856.02 591.05,843.42 579.98,836.00 C558.81,821.79 539.63,808.03 540.21,807.46 C540.61,807.05 628.10,789.84 667.00,782.51 C671.12,781.73 688.45,778.39 705.50,775.09 C722.55,771.78 754.27,765.66 776.00,761.49 C818.30,753.36 859.22,745.46 905.00,736.57 C961.27,725.65 980.41,722.07 980.74,722.41 C982.05,723.72 961.14,765.54 949.50,784.89 C927.79,820.97 907.52,846.73 876.60,877.52 C846.22,907.79 820.70,927.69 781.31,951.85 C769.30,959.22 766.45,960.23 762.42,958.53 Z M728.34,727.57 C728.72,726.56 744.07,703.81 805.50,613.23 C811.55,604.31 822.36,588.34 829.52,577.75 C836.68,567.16 853.53,542.30 866.95,522.50 C880.37,502.70 900.34,473.23 911.33,457.00 C922.31,440.77 935.43,421.43 940.48,414.00 C945.52,406.57 955.87,391.27 963.46,380.00 C971.05,368.73 977.84,358.88 978.55,358.12 C980.24,356.30 982.11,360.02 988.91,378.69 C995.62,397.15 998.16,405.64 1003.56,427.69 C1014.64,472.99 1020.52,533.28 1016.99,565.31 C1016.43,570.36 1015.05,582.98 1013.93,593.33 C1011.46,616.16 1008.14,635.48 1003.46,654.35 C999.48,670.43 997.71,675.07 994.93,676.81 C992.83,678.12 971.08,682.61 924.00,691.45 C907.77,694.50 880.33,699.72 863.00,703.05 C845.67,706.38 820.92,711.11 808.00,713.57 C795.08,716.03 773.02,720.25 759.00,722.94 C726.65,729.17 727.79,729.00 728.34,727.57 Z M97.68,721.32 C95.58,717.20 85.67,689.89 82.68,680.00 C76.54,659.65 70.06,630.74 67.10,610.50 C63.03,582.69 62.00,568.22 62.00,539.16 C62.00,498.86 63.14,490.26 77.37,423.10 C79.72,412.04 81.44,406.13 82.67,404.93 C84.58,403.07 97.77,400.30 180.00,384.50 C241.73,372.64 284.09,364.42 314.25,358.48 C340.30,353.34 346.00,352.43 346.00,353.40 C346.00,355.04 296.90,430.25 235.28,522.98 C147.65,654.87 103.26,720.71 100.37,723.10 C99.45,723.87 98.75,723.41 97.68,721.32 Z M807.59,531.92 C806.98,530.10 798.86,487.89 795.48,469.00 C794.05,461.02 791.58,447.98 789.98,440.00 C788.38,432.02 785.04,414.48 782.55,401.00 C776.72,369.40 769.23,329.65 763.53,300.00 C761.04,287.07 756.52,263.23 753.48,247.00 C750.45,230.78 745.03,201.97 741.44,183.00 C728.48,114.35 726.78,104.89 727.32,104.35 C729.03,102.64 758.03,116.23 781.00,129.51 C810.09,146.32 840.19,168.27 861.99,188.56 C865.57,191.89 869.30,195.26 870.27,196.06 C873.55,198.74 897.74,224.81 904.72,233.18 C913.70,243.97 924.97,258.95 933.53,271.50 C943.63,286.30 956.99,308.69 957.58,311.79 C958.14,314.74 958.60,314.03 921.88,367.50 C911.68,382.35 898.91,401.02 893.49,409.00 C888.08,416.98 880.88,427.55 877.49,432.50 C874.11,437.45 866.91,448.02 861.50,456.00 C825.72,508.73 811.62,529.20 808.85,532.42 C808.40,532.95 807.87,532.73 807.59,531.92 Z M99.00,356.98 C99.00,354.97 108.89,333.16 115.77,320.00 C139.41,274.74 165.05,239.92 201.96,202.91 C231.62,173.17 258.65,152.05 295.17,130.12 C310.14,121.13 313.58,119.73 317.83,120.95 C319.39,121.40 342.90,136.98 370.08,155.58 C397.26,174.17 441.55,204.38 468.50,222.71 C543.54,273.75 538.87,270.46 537.80,271.53 C537.10,272.23 518.34,276.05 442.00,291.00 C368.83,305.34 346.20,309.78 312.50,316.40 C294.35,319.97 261.95,326.31 240.50,330.49 C219.05,334.67 188.00,340.75 171.50,344.01 C155.00,347.26 133.18,351.52 123.00,353.46 C112.83,355.41 103.26,357.26 101.75,357.58 C99.97,357.95 99.00,357.74 99.00,356.98 Z M716.50,335.88 C709.90,331.41 676.60,309.05 642.50,286.20 C608.40,263.35 572.40,239.18 562.50,232.50 C552.60,225.82 533.25,212.76 519.50,203.48 C490.28,183.75 417.40,133.87 391.50,115.86 C381.60,108.98 371.60,102.03 369.29,100.43 C364.59,97.16 364.21,96.46 366.75,95.73 C367.71,95.45 375.56,92.74 384.19,89.71 C419.35,77.35 458.11,69.39 504.27,65.05 C539.17,61.76 556.16,62.36 606.00,68.60 C622.04,70.61 640.03,74.10 656.75,78.46 C673.41,82.79 678.42,84.98 680.37,88.75 C681.21,90.37 683.47,99.97 685.40,110.09 C692.94,149.55 702.12,197.74 703.00,202.50 C703.51,205.25 706.39,220.32 709.40,236.00 C712.41,251.68 716.74,274.40 719.03,286.50 C721.31,298.60 724.51,315.48 726.13,324.00 C727.75,332.52 728.94,340.52 728.79,341.76 C728.52,343.84 727.56,343.38 716.50,335.88 Z " fill="black" stroke="none"/>
</svg>
