<?xml version="1.0" standalone="no"?>
<!DOCTYPE svg PUBLIC "-//W3C//DTD SVG 1.1//EN" "http://www.w3.org/Graphics/SVG/1.1/DTD/svg11.dtd">
<svg width="666" height="402" viewBox="0 0 666 402" xmlns="http://www.w3.org/2000/svg" version="1.1">
<path d="M53.00,371.50 L53.00,365.00 L48.00,365.00 L43.00,365.00 L43.00,361.50 L43.00,358.00 L38.00,358.00 L33.00,358.00 L33.00,351.50 L33.00,345.00 L28.25,345.00 L23.50,345.00 L23.76,283.25 L24.03,221.50 L33.26,221.50 L42.50,221.50 L42.79,211.75 L43.07,202.00 L57.54,202.00 L72.00,202.00 L72.00,195.50 L72.00,189.00 L67.56,189.00 L63.13,189.00 L62.81,185.75 L62.50,182.50 L57.80,182.20 L53.09,181.89 L52.80,175.70 L52.50,169.50 L47.75,169.20 L43.00,168.89 L43.00,165.95 L43.00,163.00 L38.05,163.00 L33.09,163.00 L32.80,156.25 L32.50,149.50 L28.25,149.50 L24.00,149.50 L24.00,107.25 L24.00,65.00 L33.50,65.00 L43.00,65.00 L43.00,55.54 L43.00,46.07 L52.75,45.79 L62.50,45.50 L62.79,35.75 L63.07,26.00 L124.54,26.00 L186.00,26.00 L186.00,32.50 L186.00,39.00 L191.00,39.00 L196.00,39.00 L196.00,52.00 L196.00,65.00 L198.00,65.00 L200.00,65.00 L200.00,55.50 L200.00,46.00 L209.50,46.00 L219.00,46.00 L219.00,36.00 L219.00,26.00 L261.50,26.00 L304.00,26.00 L304.00,32.50 L304.00,39.00 L308.44,39.00 L312.87,39.00 L313.19,42.25 L313.50,45.50 L318.25,45.80 L323.00,46.11 L323.00,52.55 L323.00,59.00 L328.00,59.00 L333.00,59.00 L333.00,62.00 L333.00,65.00 L335.00,65.00 L337.00,65.00 L337.00,45.50 L337.00,26.00 L369.36,26.00 L401.72,26.00 L401.61,32.25 L401.50,38.50 L406.19,38.80 L410.88,39.10 L411.19,42.30 L411.50,45.50 L423.00,45.50 L434.50,45.50 L434.79,35.75 L435.07,26.00 L535.54,26.00 L636.00,26.00 L636.00,32.50 L636.00,39.00 L641.00,39.00 L646.00,39.00 L646.00,61.88 L646.00,84.77 L641.25,84.71 L636.50,84.65 L636.20,91.33 L635.91,98.00 L640.95,98.00 L646.00,98.00 L646.00,120.45 L646.00,142.89 L641.25,143.20 L636.50,143.50 L636.50,150.00 L636.50,156.50 L641.25,156.80 L646.00,157.11 L646.00,179.55 L646.00,202.00 L631.50,202.00 L617.00,202.00 L617.00,208.50 L617.00,215.00 L621.44,215.00 L625.87,215.00 L626.19,218.25 L626.50,221.50 L631.20,221.80 L635.91,222.11 L636.20,228.30 L636.50,234.50 L641.25,234.80 L646.00,235.11 L646.00,277.00 L646.00,318.89 L641.75,319.19 L637.50,319.50 L637.20,325.75 L636.90,332.00 L641.95,332.00 L647.00,332.00 L647.00,355.00 L647.00,378.00 L604.00,378.00 L561.00,378.00 L561.00,371.50 L561.00,365.00 L557.25,364.88 C555.19,364.82 553.16,364.82 552.75,364.88 C552.34,364.95 552.00,363.42 552.00,361.50 L552.00,358.00 L550.00,358.00 L548.00,358.00 L548.00,368.00 L548.00,378.00 L447.00,378.00 L346.00,378.00 L346.00,371.50 L346.00,365.00 L341.50,365.00 L337.00,365.00 L337.00,342.00 L337.00,319.00 L335.00,319.00 L333.00,319.00 L333.00,329.00 L333.00,339.00 L323.00,339.00 L313.00,339.00 L313.00,348.50 L313.00,358.00 L303.50,358.00 L294.00,358.00 L294.00,368.00 L294.00,378.00 L271.50,378.00 L249.00,378.00 L249.00,371.50 L249.00,365.00 L244.00,365.00 L239.00,365.00 L239.00,361.50 L239.00,358.00 L234.00,358.00 L229.00,358.00 L229.00,351.50 L229.00,345.00 L224.00,345.00 L219.00,345.00 L219.00,342.00 L219.00,339.00 L214.00,339.00 L209.00,339.00 L209.00,332.00 L209.00,325.00 L204.50,325.00 L200.00,325.00 L200.00,322.00 L200.00,319.00 L198.00,319.00 L196.00,319.00 L196.00,338.50 L196.00,358.00 L186.00,358.00 L176.00,358.00 L176.00,368.00 L176.00,378.00 L114.50,378.00 L53.00,378.00 L53.00,371.50 Z M154.00,342.54 L154.00,333.07 L163.75,332.79 L173.50,332.50 L173.76,283.25 L174.02,234.00 L164.01,234.00 L154.00,234.00 L154.00,223.99 L154.00,213.98 L104.75,214.24 L55.50,214.50 L55.50,224.25 L55.50,234.00 L45.75,234.00 L36.00,234.00 L36.00,283.50 L36.00,333.00 L45.75,333.00 L55.50,333.00 L55.33,341.73 C55.24,346.54 55.38,350.81 55.64,351.23 C55.90,351.65 78.14,352.00 105.06,352.00 L154.00,352.00 L154.00,342.54 Z M272.00,342.50 L272.00,333.00 L281.50,333.00 L291.00,333.00 L291.00,323.00 L291.00,313.00 L301.00,313.00 L311.00,313.00 L311.00,303.00 L311.00,293.00 L320.50,293.00 L330.00,293.00 L330.00,253.48 L330.00,213.96 L310.25,214.23 L290.50,214.50 L290.23,243.75 L289.97,273.00 L280.48,273.00 L271.00,273.00 L271.00,283.00 L271.00,293.00 L261.50,293.00 L252.00,293.00 L252.00,283.00 L252.00,273.00 L242.25,273.00 L232.50,273.00 L232.50,243.75 L232.50,214.50 L212.50,214.50 L192.50,214.50 L192.24,253.75 L191.98,293.00 L201.99,293.00 L212.00,293.00 L212.00,303.00 L212.00,313.00 L222.00,313.00 L232.00,313.00 L232.00,323.00 L232.00,333.00 L241.50,333.00 L251.00,333.00 L251.00,341.83 C251.00,346.69 251.30,350.97 251.67,351.33 C252.03,351.70 256.76,352.00 262.17,352.00 L272.00,352.00 L272.00,342.50 Z M467.00,342.00 L467.00,332.00 L428.00,332.00 L389.00,332.00 L389.00,312.50 L389.00,293.00 L428.00,293.00 L467.00,293.00 L467.00,283.00 L467.00,273.00 L428.00,273.00 L389.00,273.00 L389.00,254.00 L389.00,235.00 L428.00,235.00 L467.00,235.00 L467.00,224.49 L467.00,213.98 L408.25,214.24 L349.50,214.50 L349.24,283.25 L348.99,352.00 L407.99,352.00 L467.00,352.00 L467.00,342.00 Z M526.00,332.50 L526.00,313.00 L535.50,313.00 L545.00,313.00 L545.00,323.00 L545.00,333.00 L554.50,333.00 L564.00,333.00 L564.00,342.50 L564.00,352.00 L594.50,352.00 L625.00,352.00 L625.00,342.00 L625.00,332.00 L614.50,332.00 L604.00,332.00 L604.00,322.00 L604.00,312.00 L594.50,312.00 L585.00,312.00 L585.00,302.50 L585.00,293.00 L604.50,293.00 L624.00,293.00 L624.00,263.50 L624.00,234.00 L614.00,234.00 L604.00,234.00 L604.00,224.00 L604.00,214.00 L545.00,214.00 L486.00,214.00 L486.00,283.00 L486.00,352.00 L506.00,352.00 L526.00,352.00 L526.00,332.50 Z M76.00,283.50 L76.00,235.00 L105.00,235.00 L134.00,235.00 L134.00,283.50 L134.00,332.00 L105.00,332.00 L76.00,332.00 L76.00,283.50 Z M526.00,264.00 L526.00,235.00 L555.00,235.00 L584.00,235.00 L584.00,254.00 L584.00,273.00 L574.00,273.00 L564.00,273.00 L564.00,283.00 L564.00,293.00 L545.00,293.00 L526.00,293.00 L526.00,264.00 Z M174.00,136.50 L174.00,97.00 L143.97,97.00 L113.93,97.00 L114.22,107.25 L114.50,117.50 L124.25,117.79 L134.00,118.07 L134.00,137.04 L134.00,156.00 L115.04,156.00 L96.07,156.00 L95.79,146.25 L95.50,136.50 L85.75,136.21 L76.00,135.93 L76.00,106.96 L76.00,78.00 L86.07,78.00 L96.14,78.00 L95.82,68.50 L95.50,59.00 L134.78,59.00 L174.07,59.00 L173.78,48.75 L173.50,38.50 L124.50,38.50 L75.50,38.50 L75.21,48.21 L74.93,57.93 L65.21,58.21 L55.50,58.50 L55.36,67.93 L55.22,77.37 L45.86,77.43 L36.50,77.50 L36.24,107.25 L35.97,137.00 L45.74,137.00 L55.50,137.00 L55.50,146.75 L55.50,156.50 L65.25,156.79 L75.00,157.07 L75.00,166.54 L75.00,176.00 L124.50,176.00 L174.00,176.00 L174.00,136.50 Z M232.49,156.25 L232.47,137.00 L261.24,137.00 L290.00,137.00 L290.00,156.50 L290.00,176.00 L310.00,176.00 L330.00,176.00 L330.00,126.43 L330.00,76.86 L320.50,77.18 L311.00,77.50 L311.00,67.75 L311.00,58.00 L301.00,58.00 L291.00,58.00 L291.00,48.00 L291.00,38.00 L261.50,38.00 L232.00,38.00 L232.00,48.00 L232.00,58.00 L222.00,58.00 L212.00,58.00 L212.00,68.09 L212.00,78.18 L202.25,77.84 L192.50,77.50 L192.24,126.77 L191.98,176.04 L212.24,175.77 L232.50,175.50 L232.49,156.25 Z M389.00,137.00 L389.00,98.00 L398.46,98.00 L407.93,98.00 L408.21,107.75 L408.50,117.50 L418.00,117.50 L427.50,117.50 L427.79,107.75 L428.07,98.00 L437.54,98.00 L447.00,98.00 L447.00,137.00 L447.00,176.00 L467.00,176.00 L487.00,176.00 L487.00,106.98 L487.00,37.96 L467.25,38.23 L447.50,38.50 L447.21,48.21 L446.93,57.93 L437.21,58.21 L427.50,58.50 L427.21,68.25 L426.93,78.00 L417.96,78.00 L409.00,78.00 L409.00,68.00 L409.00,58.00 L399.00,58.00 L389.00,58.00 L389.00,47.98 L389.00,37.96 L369.25,38.23 L349.50,38.50 L349.24,107.25 L348.99,176.00 L368.99,176.00 L389.00,176.00 L389.00,137.00 Z M624.00,166.00 L624.00,156.00 L585.00,156.00 L546.00,156.00 L546.00,136.75 L546.00,117.50 L584.75,117.50 L623.50,117.50 L623.78,107.25 L624.07,97.00 L585.03,97.00 L546.00,97.00 L546.00,78.00 L546.00,59.00 L585.03,59.00 L624.07,59.00 L623.78,48.75 L623.50,38.50 L564.75,38.24 L506.00,37.98 L506.00,106.99 L506.00,176.00 L565.00,176.00 L624.00,176.00 L624.00,166.00 Z M232.67,116.25 C232.42,115.84 232.31,107.17 232.42,97.00 L232.63,78.50 L242.32,78.21 L252.00,77.93 L252.00,68.46 L252.00,59.00 L261.50,59.00 L271.00,59.00 L271.00,68.50 L271.00,78.00 L280.50,78.00 L290.00,78.00 L290.00,97.50 L290.00,117.00 L261.56,117.00 C245.92,117.00 232.91,116.66 232.67,116.25 Z " fill="black" stroke="none"/>
</svg>
