<?xml version="1.0" standalone="no"?>
<!DOCTYPE svg PUBLIC "-//W3C//DTD SVG 1.1//EN" "http://www.w3.org/Graphics/SVG/1.1/DTD/svg11.dtd">
<svg width="2280" height="1896" viewBox="0 0 2280 1896" xmlns="http://www.w3.org/2000/svg" version="1.1">
<path d="M1089.50,1731.98 C1086.75,1731.55 1079.78,1730.68 1074.00,1730.05 C1038.63,1726.18 1008.35,1718.40 969.00,1703.04 C822.29,1645.81 713.86,1488.51 708.75,1325.50 L708.50,1317.50 L704.50,1317.25 C669.81,1315.06 607.33,1301.91 592.50,1293.68 C591.40,1293.07 590.27,1292.54 590.00,1292.51 C584.91,1291.92 550.00,1275.59 535.00,1266.80 C530.88,1264.38 525.98,1261.52 524.11,1260.45 C492.38,1242.18 447.55,1202.67 422.04,1170.50 L411.74,1157.50 L447.39,1157.24 C489.11,1156.93 484.42,1155.77 499.67,1170.12 C517.79,1187.15 534.57,1199.81 556.74,1213.14 C570.43,1221.38 601.08,1236.64 602.76,1236.05 C602.90,1236.00 604.25,1236.58 605.76,1237.34 C608.82,1238.89 626.26,1244.83 635.50,1247.47 C638.80,1248.41 642.53,1249.59 643.80,1250.09 C645.06,1250.59 647.11,1251.00 648.35,1251.00 C649.59,1251.00 651.03,1251.40 651.55,1251.90 C652.07,1252.39 654.30,1253.04 656.50,1253.35 C658.70,1253.65 662.75,1254.32 665.50,1254.83 C675.08,1256.62 693.55,1258.89 701.00,1259.19 L708.50,1259.50 L708.50,1203.75 L708.50,1148.00 L737.24,1148.00 L765.98,1148.00 L766.24,1204.25 L766.50,1260.50 L1157.00,1260.50 C1581.47,1260.50 1561.01,1260.75 1587.84,1255.32 C1592.05,1254.47 1597.30,1253.42 1599.50,1252.99 C1652.17,1242.76 1718.44,1206.92 1759.22,1166.61 L1768.94,1157.00 L1805.47,1157.00 C1832.03,1157.00 1842.00,1157.31 1842.00,1158.13 C1842.00,1168.42 1776.87,1230.60 1742.50,1253.12 C1721.70,1266.75 1679.24,1288.89 1670.52,1290.66 C1669.96,1290.77 1667.03,1291.83 1664.00,1293.01 C1630.76,1305.95 1589.70,1314.68 1551.41,1316.94 C1533.67,1317.99 1535.00,1316.91 1535.00,1330.24 C1535.00,1357.70 1527.42,1402.53 1517.42,1434.18 C1515.45,1440.40 1513.67,1446.17 1513.47,1447.00 C1512.53,1450.80 1506.33,1466.74 1499.06,1484.00 C1473.17,1545.53 1416.27,1615.62 1359.40,1656.04 C1338.62,1670.81 1287.90,1699.56 1279.16,1701.52 C1278.25,1701.73 1274.12,1703.30 1270.00,1705.02 C1237.72,1718.48 1202.09,1726.88 1155.81,1731.94 C1144.82,1733.14 1097.09,1733.17 1089.50,1731.98 Z M1180.50,1670.93 C1187.65,1669.77 1196.88,1667.99 1201.00,1666.97 C1205.12,1665.94 1209.62,1664.89 1211.00,1664.63 C1228.23,1661.33 1266.05,1645.63 1294.50,1629.96 C1332.24,1609.19 1381.10,1565.20 1407.65,1528.10 C1428.15,1499.46 1444.74,1468.44 1456.12,1437.50 C1457.73,1433.10 1459.34,1428.83 1459.68,1428.00 C1460.02,1427.17 1460.40,1426.05 1460.53,1425.50 C1460.66,1424.95 1461.75,1421.17 1462.96,1417.11 C1464.18,1413.04 1465.34,1408.99 1465.55,1408.11 C1465.75,1407.22 1466.86,1402.75 1468.01,1398.16 C1469.91,1390.57 1472.54,1377.46 1475.06,1363.00 C1475.94,1357.98 1476.65,1350.32 1478.54,1325.80 C1479.39,1314.70 1500.27,1315.91 1313.00,1316.23 L1151.50,1316.50 L1151.24,1494.50 C1151.10,1592.40 1151.17,1672.98 1151.39,1673.57 C1151.88,1674.86 1161.64,1673.97 1180.50,1670.93 Z M1093.70,1496.25 L1093.50,1318.50 L930.00,1318.50 L766.50,1318.50 L766.80,1331.50 C767.05,1342.68 768.97,1362.36 770.48,1369.35 C770.73,1370.53 771.16,1373.08 771.44,1375.00 C772.17,1380.17 773.68,1387.44 776.01,1397.00 C793.95,1470.55 834.27,1537.42 890.50,1586.88 L902.50,1597.43 L903.00,1479.96 L903.50,1362.50 L932.00,1362.50 L960.50,1362.50 L960.75,1499.28 L961.01,1636.06 L974.25,1642.45 C987.64,1648.90 1002.67,1654.92 1015.50,1658.95 C1019.35,1660.16 1023.40,1661.56 1024.50,1662.06 C1029.96,1664.56 1057.77,1670.33 1079.00,1673.37 C1080.38,1673.57 1084.29,1673.79 1087.70,1673.86 L1093.91,1674.00 L1093.70,1496.25 Z M1410.50,1531.00 C1410.50,1530.27 1409.94,1529.48 1409.25,1529.25 C1408.51,1529.00 1408.00,1529.71 1408.00,1531.00 C1408.00,1532.29 1408.51,1533.00 1409.25,1532.75 C1409.94,1532.52 1410.50,1531.73 1410.50,1531.00 Z M891.00,1197.63 L891.00,1148.00 L919.50,1148.00 L948.00,1148.00 L948.00,1197.00 L948.00,1246.00 L923.25,1246.01 C909.64,1246.02 896.81,1246.30 894.75,1246.64 L891.00,1247.26 L891.00,1197.63 Z M1089.77,1197.00 C1089.55,1155.67 1089.73,1147.07 1090.83,1147.49 C1091.56,1147.77 1104.51,1148.00 1119.59,1148.00 L1147.02,1148.00 L1146.76,1197.25 L1146.50,1246.50 L1118.27,1246.77 L1090.04,1247.03 L1089.77,1197.00 Z M1480.75,1246.26 C1479.11,1245.88 1479.00,1242.71 1479.00,1197.01 L1479.00,1148.16 L1507.25,1147.82 C1522.79,1147.63 1535.50,1147.48 1535.50,1147.49 C1535.50,1147.49 1535.38,1169.82 1535.22,1197.11 L1534.95,1246.72 L1508.72,1246.69 C1494.30,1246.67 1481.71,1246.48 1480.75,1246.26 Z M1058.45,1111.95 C1041.98,1093.77 1025.80,1075.82 1022.50,1072.06 C1019.20,1068.29 1008.19,1056.05 998.02,1044.85 C987.86,1033.66 978.13,1022.92 976.40,1021.00 C974.67,1019.08 963.64,1006.90 951.88,993.93 C940.12,980.97 924.88,964.11 918.00,956.45 C911.12,948.80 902.58,939.37 899.00,935.50 C891.92,927.84 862.70,895.45 850.94,882.25 C846.91,877.71 843.24,874.00 842.80,874.00 C842.36,874.00 841.99,890.31 841.97,910.25 L841.95,946.50 L825.86,964.50 C796.93,996.87 789.60,1005.10 782.00,1013.78 C777.88,1018.50 773.94,1022.54 773.25,1022.76 C772.25,1023.08 772.00,996.10 772.00,890.08 L772.00,757.00 L807.05,757.00 L842.09,757.00 L844.30,759.28 C845.51,760.53 853.48,770.04 862.00,780.41 C870.52,790.79 884.64,807.88 893.37,818.39 C902.10,828.90 912.20,841.10 915.82,845.50 C919.45,849.90 925.39,857.10 929.02,861.50 C980.30,923.52 986.86,931.49 1007.17,956.42 C1013.41,964.07 1019.07,970.52 1019.76,970.75 C1020.74,971.08 1021.00,948.98 1021.00,864.07 L1021.00,756.97 L1055.25,757.24 L1089.50,757.50 L1089.75,951.25 C1089.89,1057.81 1089.64,1145.00 1089.20,1145.00 C1088.76,1145.00 1074.92,1130.13 1058.45,1111.95 Z M1717.00,1087.16 L1717.00,1047.32 L1731.24,1033.91 C1739.08,1026.54 1753.59,1012.88 1763.49,1003.57 C1798.15,970.98 1813.57,956.46 1821.94,948.51 C1831.16,939.75 1831.55,939.38 1841.44,930.17 C1849.60,922.58 1849.80,923.57 1837.30,910.15 C1825.32,897.29 1822.76,894.20 1823.17,893.11 C1823.72,891.61 1866.15,848.00 1867.05,848.00 C1867.51,848.00 1870.27,850.59 1873.19,853.75 C1876.10,856.91 1882.63,863.77 1887.69,868.99 L1896.89,878.47 L1906.21,869.49 C1911.33,864.54 1918.44,857.84 1922.01,854.60 C1925.58,851.35 1932.55,844.82 1937.50,840.09 C1963.12,815.60 2009.59,772.28 2011.88,770.76 C2014.28,769.16 2018.44,769.02 2061.50,769.05 L2108.50,769.08 L2104.91,772.29 C2102.94,774.06 2094.03,782.25 2085.10,790.50 C2076.18,798.75 2065.36,808.65 2061.07,812.50 C2056.78,816.35 2040.99,830.75 2025.99,844.50 C1992.40,875.30 1973.69,892.41 1955.50,908.95 C1947.80,915.95 1940.98,922.32 1940.34,923.09 C1939.40,924.23 1943.12,928.70 1959.84,946.54 C1971.20,958.66 1992.63,981.61 2007.46,997.54 C2022.29,1013.47 2037.64,1029.88 2041.57,1034.00 C2054.24,1047.31 2060.00,1053.67 2060.00,1054.34 C2060.00,1054.70 2039.57,1055.00 2014.60,1055.00 L1969.20,1055.00 L1963.25,1048.75 C1959.98,1045.31 1943.68,1027.42 1927.01,1009.00 C1910.35,990.58 1895.22,973.94 1893.39,972.04 L1890.05,968.59 L1881.23,977.04 C1876.38,981.69 1865.68,991.62 1857.46,999.11 C1849.23,1006.59 1828.33,1025.69 1811.00,1041.55 C1793.67,1057.40 1774.55,1074.88 1768.50,1080.38 C1751.01,1096.27 1734.12,1111.89 1725.93,1119.74 C1721.76,1123.73 1718.05,1127.00 1717.68,1127.00 C1717.31,1127.00 1717.00,1109.07 1717.00,1087.16 Z M228.00,1100.78 C217.82,1092.57 206.51,1083.52 202.87,1080.68 C172.11,1056.68 175.60,1067.02 176.21,1001.69 C176.48,972.51 176.37,947.14 175.96,945.32 L175.21,942.00 L278.86,941.99 C335.86,941.98 383.51,941.70 384.75,941.37 L387.00,940.77 L387.00,854.38 L387.00,768.00 L425.49,768.00 L463.99,768.00 L464.24,913.00 C464.38,992.75 464.39,1058.34 464.25,1058.75 C464.11,1059.16 446.68,1059.38 425.50,1059.23 L387.00,1058.95 L387.00,1032.98 L387.00,1007.00 L317.01,1007.00 L247.02,1007.00 L246.76,1061.35 L246.50,1115.70 L228.00,1100.78 Z M587.00,1059.43 C585.62,1059.19 580.45,1058.52 575.50,1057.92 C539.40,1053.56 505.92,1036.24 492.48,1014.97 C480.64,996.23 481.00,999.82 481.00,901.93 L481.00,819.00 L514.89,819.00 C544.88,819.00 548.86,819.18 549.39,820.58 C549.73,821.45 550.00,856.93 550.00,899.43 C550.00,988.47 548.48,977.95 562.11,983.45 C580.36,990.81 618.01,993.14 639.00,988.20 C644.23,986.97 649.71,985.72 651.20,985.43 C660.08,983.67 679.42,973.31 680.34,969.82 C680.63,968.69 680.71,937.01 680.51,899.41 L680.15,831.05 L684.32,827.81 C686.62,826.02 690.98,822.49 694.00,819.95 C724.89,794.03 748.26,775.03 749.28,775.01 C751.05,774.98 749.56,984.07 747.75,990.00 C740.76,1012.86 720.08,1032.85 691.85,1044.05 C688.91,1045.22 684.25,1047.06 681.50,1048.15 C678.75,1049.23 675.38,1050.33 674.00,1050.59 C672.62,1050.84 670.38,1051.49 669.00,1052.03 C666.44,1053.04 658.31,1054.94 645.00,1057.65 C637.82,1059.11 593.23,1060.48 587.00,1059.43 Z M1181.00,969.50 L1181.00,884.00 L1215.75,884.00 L1250.50,884.00 L1250.24,968.25 C1250.10,1014.59 1249.77,1053.06 1249.52,1053.75 C1249.17,1054.72 1241.35,1055.00 1215.03,1055.00 L1181.00,1055.00 L1181.00,969.50 Z M1339.20,1053.80 C1337.22,1051.82 1337.49,882.41 1339.47,881.65 C1340.28,881.34 1375.78,881.07 1418.35,881.06 C1504.56,881.03 1499.94,881.38 1508.16,874.17 C1522.05,861.96 1518.33,836.88 1501.50,829.30 C1497.79,827.63 1491.84,827.46 1419.50,827.00 L1341.50,826.50 L1341.22,794.00 C1341.07,776.12 1341.19,760.49 1341.49,759.25 L1342.04,757.00 L1414.91,757.00 C1483.44,757.00 1503.41,757.61 1511.50,759.96 C1537.17,767.41 1552.17,777.02 1566.18,795.00 C1601.67,840.54 1587.11,912.45 1537.25,937.87 C1531.52,940.80 1531.28,940.12 1546.00,962.62 C1553.15,973.56 1559.92,984.08 1561.03,986.00 C1570.09,1001.59 1568.39,1001.53 1584.11,986.82 C1591.36,980.05 1600.12,972.02 1603.57,969.00 C1610.82,962.65 1663.35,914.68 1673.00,905.60 C1676.58,902.23 1684.22,895.21 1690.00,890.00 C1695.78,884.78 1703.20,878.00 1706.50,874.94 C1709.80,871.87 1715.20,866.93 1718.50,863.95 C1721.80,860.98 1727.65,855.61 1731.50,852.02 C1735.35,848.43 1740.97,843.29 1744.00,840.60 C1749.83,835.42 1783.73,804.38 1807.73,782.25 L1822.11,769.00 L1869.05,769.00 C1894.87,769.00 1916.00,769.38 1916.00,769.85 C1916.00,770.32 1911.84,774.30 1906.75,778.69 C1901.66,783.08 1892.28,791.36 1885.90,797.08 C1879.52,802.81 1867.39,813.58 1858.95,821.00 C1850.50,828.42 1840.87,836.98 1837.54,840.01 C1834.22,843.04 1824.08,852.02 1815.00,859.98 C1797.14,875.64 1776.08,894.36 1761.00,907.98 C1755.78,912.70 1744.08,923.06 1735.00,931.00 C1725.92,938.95 1718.28,945.68 1718.00,945.97 C1717.72,946.26 1713.90,949.67 1709.50,953.55 C1695.82,965.60 1658.87,998.35 1626.29,1027.29 L1595.08,1055.02 L1555.41,1054.76 L1515.74,1054.50 L1491.87,1019.50 C1478.75,1000.25 1462.95,976.97 1456.76,967.76 L1445.50,951.01 L1426.25,951.01 L1407.00,951.00 L1407.00,1003.00 L1407.00,1055.00 L1373.70,1055.00 C1349.13,1055.00 1340.09,1054.69 1339.20,1053.80 Z M176.52,893.00 C176.36,892.73 176.24,864.71 176.25,830.75 L176.27,769.00 L214.95,769.00 L253.62,769.00 L253.56,830.98 L253.50,892.97 L215.15,893.23 C194.06,893.38 176.68,893.27 176.52,893.00 Z M1104.67,826.33 C1103.38,825.05 1103.90,759.50 1105.20,758.20 C1106.12,757.28 1132.24,757.00 1216.70,757.00 L1327.00,757.00 L1327.00,792.00 L1327.00,827.00 L1216.17,827.00 C1155.21,827.00 1105.03,826.70 1104.67,826.33 Z M712.97,716.36 C712.94,715.63 712.96,610.89 712.99,607.25 C713.00,605.93 765.08,605.33 768.42,606.61 C769.83,607.15 770.00,612.93 770.00,661.61 L770.00,716.00 L743.08,716.00 C728.28,716.00 715.45,716.27 714.58,716.61 C713.71,716.94 712.98,716.83 712.97,716.36 Z M1121.00,716.25 L1093.50,715.97 L1093.63,662.52 C1093.70,633.12 1094.01,608.43 1094.31,607.65 C1094.76,606.47 1099.60,606.23 1122.93,606.23 L1151.00,606.23 L1151.00,661.62 C1151.00,705.38 1150.74,716.95 1149.75,716.77 C1149.06,716.64 1136.12,716.41 1121.00,716.25 Z M1479.00,653.86 C1479.00,597.66 1478.84,591.15 1477.42,590.61 C1474.81,589.61 729.15,589.96 710.50,590.97 C689.80,592.09 668.70,595.03 653.25,598.95 C651.19,599.47 647.41,600.35 644.86,600.90 C632.96,603.46 604.62,613.39 591.00,619.77 C587.42,621.44 582.14,623.83 579.25,625.08 C576.36,626.33 574.00,627.80 574.00,628.34 C574.00,628.89 573.73,629.06 573.39,628.73 C573.06,628.39 572.27,628.56 571.64,629.10 C571.01,629.64 566.45,632.35 561.50,635.13 C553.23,639.78 541.03,647.71 528.50,656.61 C520.98,661.95 508.45,672.53 499.67,680.97 L491.85,688.50 L453.67,689.00 C432.68,689.27 415.34,689.42 415.14,689.31 C414.79,689.12 420.08,682.47 429.30,671.51 C467.24,626.46 536.95,576.31 583.00,560.97 C584.38,560.51 589.33,558.72 594.00,556.98 C607.96,551.81 619.85,548.15 631.50,545.43 C637.55,544.03 645.20,542.24 648.50,541.48 C661.03,538.56 682.75,535.45 697.84,534.41 C703.87,534.00 708.33,533.24 708.54,532.60 C708.74,532.00 709.39,525.42 709.99,518.00 C711.33,501.29 713.88,481.97 716.00,472.50 C716.49,470.30 717.88,464.00 719.08,458.50 C742.99,349.09 813.75,252.07 912.53,193.26 C946.72,172.91 993.26,154.16 1027.50,146.95 C1029.70,146.49 1033.53,145.64 1036.00,145.06 C1085.51,133.49 1160.18,133.50 1209.00,145.10 C1220.54,147.84 1220.31,147.78 1230.52,150.46 C1239.83,152.90 1265.20,161.15 1270.50,163.46 C1272.15,164.18 1276.20,165.80 1279.50,167.06 C1288.05,170.31 1321.42,186.89 1328.27,191.29 C1331.44,193.33 1334.34,195.00 1334.72,195.00 C1335.67,195.00 1347.82,202.93 1361.50,212.49 C1406.68,244.05 1452.61,294.32 1478.93,341.00 C1481.88,346.23 1485.71,352.98 1487.44,356.00 C1489.18,359.02 1491.12,362.62 1491.77,364.00 C1504.61,391.49 1507.70,399.02 1514.36,419.17 C1521.67,441.26 1524.48,451.64 1527.87,469.00 C1531.09,485.55 1534.99,516.40 1535.02,525.69 C1535.04,532.84 1534.88,532.76 1552.02,534.00 C1566.46,535.05 1583.49,537.11 1594.00,539.09 C1609.16,541.94 1611.90,542.53 1624.50,545.57 C1653.61,552.61 1690.63,567.47 1717.93,583.08 C1752.12,602.63 1773.34,618.53 1799.84,644.45 C1814.63,658.91 1841.13,688.63 1839.86,689.31 C1839.66,689.41 1822.58,689.38 1801.91,689.23 L1764.31,688.95 L1754.32,679.73 C1720.06,648.10 1681.26,624.68 1638.00,609.49 C1627.99,605.98 1606.58,599.60 1601.50,598.62 C1596.62,597.68 1590.57,596.38 1589.50,596.05 C1588.95,595.88 1588.05,595.62 1587.50,595.46 C1586.95,595.30 1584.25,594.91 1581.50,594.60 C1578.75,594.29 1571.55,593.36 1565.50,592.53 C1559.45,591.70 1550.11,591.01 1544.74,591.01 L1534.97,591.00 L1535.01,653.55 L1535.06,716.10 L1507.03,716.30 L1479.00,716.50 L1479.00,653.86 Z M1282.23,661.08 C1282.38,630.88 1282.72,606.02 1283.00,605.83 C1283.28,605.65 1295.99,605.63 1311.25,605.78 L1339.00,606.06 L1339.00,661.03 L1339.00,716.00 L1310.48,716.00 L1281.95,716.00 L1282.23,661.08 Z M1477.22,522.50 C1476.92,511.12 1476.35,506.50 1472.83,487.00 C1460.78,420.31 1432.65,363.06 1386.28,310.85 C1373.13,296.05 1342.60,268.00 1339.64,268.00 C1339.29,268.00 1339.00,322.67 1339.00,389.50 L1339.00,511.00 L1310.50,511.00 L1282.00,511.00 L1282.00,370.94 L1282.00,230.87 L1275.25,227.87 C1271.54,226.22 1266.97,224.17 1265.09,223.31 C1244.30,213.81 1205.49,201.76 1186.50,198.91 C1167.19,196.00 1159.18,195.00 1155.33,195.00 L1151.00,195.00 L1151.00,364.50 L1151.00,534.01 L1314.25,533.75 L1477.50,533.50 L1477.22,522.50 Z M1093.59,363.75 L1093.69,195.00 L1090.03,195.00 C1083.06,195.00 1050.80,199.80 1042.50,202.07 C1040.30,202.67 1036.92,203.55 1035.00,204.03 C889.40,239.82 778.71,370.55 767.05,520.50 C766.58,526.55 766.40,531.84 766.66,532.25 C766.91,532.67 840.56,532.89 930.31,532.75 L1093.50,532.50 L1093.59,363.75 Z " fill="black" stroke="none"/>
</svg>
